{"glyphs":{"0":{"ha":1214,"x_min":142,"x_max":1072,"o":"m 607 -22 q 363 52 467 -22 q 200 260 258 126 q 142 572 142 394 q 200 884 142 751 q 363 1092 258 1018 q 607 1167 467 1167 q 851 1092 747 1167 q 1014 884 956 1018 q 1072 572 1072 751 q 1014 260 1072 394 q 851 52 956 126 q 607 -22 747 -22 m 607 15 q 829 85 734 15 q 977 280 924 155 q 1031 572 1031 406 q 977 864 1031 739 q 829 1059 924 990 q 607 1129 734 1129 q 385 1059 481 1129 q 236 864 290 990 q 183 572 183 739 q 236 280 183 406 q 385 85 290 155 q 607 15 481 15 z "},"1":{"ha":435,"x_min":127,"x_max":240,"o":"m 201 0 l 201 1107 l 127 1107 l 127 1146 l 240 1146 l 240 0 l 201 0 z "},"2":{"ha":1010,"x_min":110,"x_max":888,"o":"m 110 0 l 110 13 q 407 253 284 150 q 612 435 531 357 q 740 575 693 514 q 805 690 786 637 q 824 795 824 742 q 780 962 824 888 q 663 1080 736 1036 q 499 1124 589 1124 q 336 1080 410 1124 q 218 962 263 1036 q 174 799 174 888 l 131 799 q 160 941 131 874 q 239 1058 188 1008 q 356 1138 289 1109 q 499 1167 423 1167 q 683 1117 600 1167 q 817 984 767 1068 q 867 793 867 899 q 850 684 867 738 q 789 570 832 631 q 673 435 747 510 q 486 265 599 361 q 217 43 374 169 l 888 43 l 888 0 l 110 0 z "},"3":{"ha":926,"x_min":113,"x_max":778,"o":"m 453 -22 q 276 16 353 -22 q 156 123 199 54 q 113 281 113 191 l 153 281 q 192 144 153 203 q 299 53 231 86 q 453 21 367 21 q 658 92 581 21 q 734 276 734 163 q 697 421 734 356 q 597 525 659 486 q 459 564 535 564 q 419 560 435 564 l 419 600 l 449 600 q 592 637 529 600 q 692 735 655 674 q 728 870 728 797 q 693 1001 728 943 q 600 1094 658 1060 q 473 1128 542 1128 q 344 1093 403 1128 q 252 1001 286 1059 q 217 872 217 943 l 178 872 q 218 1023 178 957 q 325 1128 258 1090 q 473 1167 392 1167 q 623 1127 556 1167 q 730 1020 690 1087 q 770 871 770 953 q 743 745 770 805 q 669 643 717 686 q 559 581 622 600 q 668 526 619 567 q 748 422 718 485 q 778 279 778 359 q 741 125 778 193 q 630 17 703 57 q 453 -22 558 -22 z "},"4":{"ha":913,"x_min":62,"x_max":810,"o":"m 638 0 l 638 226 l 62 226 l 62 261 l 638 1146 l 677 1146 l 677 261 l 810 261 l 810 226 l 677 226 l 677 0 l 638 0 m 106 261 l 638 261 l 638 1086 l 106 261 z "},"5":{"ha":1040,"x_min":113,"x_max":913,"o":"m 513 -22 q 340 8 420 -22 q 200 95 259 39 q 113 226 142 151 l 145 243 q 287 73 187 135 q 518 11 387 11 q 706 53 625 11 q 833 172 788 94 q 878 356 878 249 q 829 552 878 469 q 695 680 779 635 q 508 725 612 725 q 323 682 410 725 q 163 554 235 638 l 255 1146 l 840 1146 l 840 1111 l 285 1111 l 213 647 q 503 758 331 758 q 715 708 623 758 q 860 566 808 658 q 913 353 913 475 q 857 142 913 225 q 710 18 801 58 q 513 -22 619 -22 z "},"6":{"ha":1028,"x_min":124,"x_max":903,"o":"m 510 -22 q 347 10 418 -22 q 225 96 275 42 q 150 217 176 150 q 124 355 124 285 q 152 507 124 431 q 223 633 181 583 l 653 1146 l 702 1146 l 338 711 q 429 748 383 735 q 523 761 474 761 q 668 732 599 761 q 789 650 736 703 q 873 525 842 597 q 903 366 903 453 q 852 166 903 253 q 713 28 801 78 q 510 -22 624 -22 m 510 14 q 694 60 613 14 q 821 185 774 106 q 867 367 867 265 q 820 551 867 470 q 695 678 774 632 q 520 725 616 725 q 340 676 422 725 q 209 545 258 628 q 160 361 160 463 q 203 189 160 268 q 325 62 247 110 q 510 14 403 14 z "},"7":{"ha":858,"x_min":106,"x_max":758,"o":"m 106 0 l 702 1111 l 106 1111 l 106 1146 l 758 1146 l 758 1128 l 152 0 l 106 0 z "},"8":{"ha":942,"x_min":135,"x_max":807,"o":"m 471 -22 q 297 20 373 -22 q 178 136 221 63 q 135 299 135 209 q 195 487 135 405 q 357 606 255 569 q 225 713 274 640 q 176 877 176 786 q 214 1024 176 958 q 319 1128 252 1090 q 471 1167 385 1167 q 589 1144 535 1167 q 682 1083 642 1122 q 743 990 722 1043 q 765 877 765 938 q 716 713 765 786 q 585 606 667 640 q 747 487 687 569 q 807 299 807 405 q 764 136 807 209 q 645 20 721 63 q 471 -22 569 -22 m 471 14 q 624 51 558 14 q 729 153 691 89 q 767 299 767 218 q 728 446 767 381 q 623 548 690 510 q 471 585 556 585 q 320 548 388 585 q 214 447 253 511 q 175 299 175 383 q 213 153 175 218 q 318 51 251 89 q 471 14 385 14 m 471 624 q 602 657 544 624 q 694 748 660 690 q 727 878 727 805 q 693 1008 727 951 q 602 1099 660 1066 q 471 1133 544 1133 q 340 1099 398 1133 q 248 1008 282 1066 q 215 878 215 951 q 248 748 215 805 q 339 657 281 690 q 471 624 397 624 z "},"9":{"ha":1028,"x_min":124,"x_max":903,"o":"m 326 0 l 700 446 q 517 385 619 385 q 362 415 433 385 q 237 498 290 444 q 154 624 183 552 q 124 780 124 696 q 175 979 124 892 q 315 1116 226 1066 q 517 1167 404 1167 q 716 1117 629 1167 q 853 980 803 1067 q 903 780 903 892 q 897 709 903 744 q 877 639 890 673 q 847 573 865 604 q 805 513 828 541 l 374 0 l 326 0 m 517 424 q 650 452 588 424 q 761 530 713 481 q 836 643 809 578 q 864 780 864 707 q 819 959 864 881 q 696 1082 774 1038 q 517 1127 617 1127 q 335 1082 415 1127 q 210 958 256 1037 q 164 780 164 880 q 210 599 164 679 q 337 471 257 518 q 517 424 417 424 z "},"A":{"ha":1147,"x_min":110,"x_max":1038,"o":"m 110 0 l 556 1146 l 592 1146 l 1038 0 l 996 0 l 832 424 l 315 424 l 151 0 l 110 0 m 328 458 l 819 458 l 574 1099 l 328 458 z "},"Á":{"ha":1147,"x_min":110,"x_max":1038,"o":"m 110 0 l 556 1146 l 592 1146 l 1038 0 l 996 0 l 832 424 l 315 424 l 151 0 l 110 0 m 328 458 l 819 458 l 574 1099 l 328 458 m 581 1256 l 550 1275 l 649 1515 l 692 1486 l 581 1256 z "},"Ă":{"ha":1147,"x_min":110,"x_max":1038,"o":"m 110 0 l 556 1146 l 592 1146 l 1038 0 l 996 0 l 832 424 l 315 424 l 151 0 l 110 0 m 328 458 l 819 458 l 574 1099 l 328 458 m 574 1381 q 450 1407 506 1381 q 355 1481 394 1433 q 303 1592 317 1528 l 338 1600 q 382 1504 349 1545 q 464 1440 415 1463 q 574 1417 513 1417 q 683 1440 633 1417 q 765 1504 732 1463 q 810 1600 798 1545 l 844 1592 q 792 1481 831 1528 q 697 1407 753 1433 q 574 1381 641 1381 z "},"Â":{"ha":1147,"x_min":110,"x_max":1038,"o":"m 110 0 l 556 1146 l 592 1146 l 1038 0 l 996 0 l 832 424 l 315 424 l 151 0 l 110 0 m 328 458 l 819 458 l 574 1099 l 328 458 m 361 1400 l 340 1429 l 574 1600 l 807 1429 l 786 1400 l 574 1556 l 361 1400 z "},"Ä":{"ha":1147,"x_min":110,"x_max":1038,"o":"m 110 0 l 556 1146 l 592 1146 l 1038 0 l 996 0 l 832 424 l 315 424 l 151 0 l 110 0 m 328 458 l 819 458 l 574 1099 l 328 458 m 738 1371 q 714 1381 724 1371 q 704 1404 704 1391 q 714 1428 704 1418 q 738 1438 724 1438 q 761 1428 751 1438 q 771 1404 771 1418 q 761 1381 771 1391 q 738 1371 751 1371 m 410 1371 q 386 1381 397 1371 q 376 1404 376 1391 q 386 1428 376 1418 q 410 1438 397 1438 q 433 1428 424 1438 q 443 1404 443 1418 q 433 1381 443 1391 q 410 1371 424 1371 z "},"À":{"ha":1147,"x_min":110,"x_max":1038,"o":"m 110 0 l 556 1146 l 592 1146 l 1038 0 l 996 0 l 832 424 l 315 424 l 151 0 l 110 0 m 328 458 l 819 458 l 574 1099 l 328 458 m 614 1256 l 502 1486 l 546 1515 l 644 1275 l 614 1256 z "},"Ā":{"ha":1147,"x_min":110,"x_max":1038,"o":"m 110 0 l 556 1146 l 592 1146 l 1038 0 l 996 0 l 832 424 l 315 424 l 151 0 l 110 0 m 328 458 l 819 458 l 574 1099 l 328 458 m 290 1382 l 290 1414 l 857 1414 l 857 1382 l 290 1382 z "},"Ą":{"ha":1147,"x_min":110,"x_max":1238,"o":"m 110 0 l 556 1146 l 592 1146 l 1038 0 l 996 0 l 832 424 l 315 424 l 151 0 l 110 0 m 328 458 l 819 458 l 574 1099 l 328 458 m 1047 -388 q 922 -342 970 -388 q 873 -233 873 -297 q 907 -125 873 -184 q 1002 0 940 -65 l 1038 0 q 943 -126 976 -65 q 909 -232 909 -187 q 945 -316 909 -279 q 1051 -352 981 -352 q 1136 -333 1097 -352 q 1215 -272 1176 -314 l 1238 -288 q 1155 -361 1206 -335 q 1047 -388 1103 -388 z "},"Å":{"ha":1147,"x_min":110,"x_max":1038,"o":"m 110 0 l 556 1146 l 592 1146 l 1038 0 l 996 0 l 832 424 l 315 424 l 151 0 l 110 0 m 328 458 l 819 458 l 574 1099 l 328 458 m 574 1331 q 506 1346 536 1331 q 457 1388 475 1361 q 439 1450 439 1415 l 439 1450 q 457 1512 439 1485 q 506 1554 475 1539 q 574 1569 536 1569 q 642 1554 611 1569 q 690 1512 672 1539 q 708 1450 708 1485 q 690 1388 708 1415 q 642 1346 672 1361 q 574 1331 611 1331 m 574 1367 q 644 1390 617 1367 q 672 1450 672 1414 q 644 1510 672 1487 q 574 1533 617 1533 q 503 1510 531 1533 q 475 1450 475 1487 l 475 1450 q 503 1390 475 1414 q 574 1367 531 1367 z "},"Ã":{"ha":1147,"x_min":110,"x_max":1038,"o":"m 110 0 l 556 1146 l 592 1146 l 1038 0 l 996 0 l 832 424 l 315 424 l 151 0 l 110 0 m 328 458 l 819 458 l 574 1099 l 328 458 m 712 1350 q 631 1367 664 1350 q 569 1406 597 1383 q 510 1444 541 1428 q 435 1461 478 1461 q 335 1429 376 1461 q 268 1353 293 1397 l 242 1376 q 320 1461 272 1426 q 435 1496 368 1496 q 516 1479 483 1496 q 578 1440 550 1463 q 638 1401 606 1418 q 712 1385 669 1385 q 806 1413 763 1385 q 879 1493 849 1441 l 906 1469 q 852 1404 882 1431 q 786 1364 822 1377 q 712 1350 751 1350 z "},"Æ":{"ha":1649,"x_min":110,"x_max":1540,"o":"m 110 0 l 556 1146 l 1099 1146 l 1113 1111 l 608 1111 l 807 592 l 1296 592 l 1309 557 l 821 557 l 1024 35 l 1526 35 l 1540 0 l 995 0 l 832 424 l 315 424 l 151 0 l 110 0 m 328 458 l 819 458 l 574 1098 l 328 458 z "},"B":{"ha":890,"x_min":161,"x_max":810,"o":"m 161 0 l 161 1146 l 356 1146 q 616 1070 524 1146 q 708 856 708 994 q 533 593 708 660 q 738 500 665 576 q 810 299 810 423 q 768 138 810 205 q 647 35 726 71 q 457 0 568 0 l 161 0 m 200 602 l 356 602 q 590 668 508 602 q 672 856 672 734 q 590 1045 672 978 q 356 1112 507 1112 l 200 1112 l 200 602 m 200 36 l 457 36 q 690 105 607 36 q 774 299 774 174 q 690 495 774 424 q 457 565 606 565 l 200 565 l 200 36 z "},"C":{"ha":1147,"x_min":103,"x_max":1067,"o":"m 695 -22 q 458 23 567 -22 q 270 148 350 67 q 147 337 190 229 q 103 572 103 445 q 147 807 103 699 q 270 996 190 915 q 458 1122 350 1077 q 695 1167 567 1167 q 898 1134 804 1167 q 1067 1043 992 1101 l 1043 1013 q 886 1098 974 1069 q 698 1128 797 1128 q 475 1085 576 1128 q 300 967 374 1042 q 186 790 226 891 q 146 572 146 689 q 186 355 146 456 q 300 178 226 253 q 475 59 374 102 q 698 17 576 17 q 886 46 797 17 q 1043 132 974 76 l 1067 101 q 898 10 992 43 q 695 -22 804 -22 z "},"Ć":{"ha":1147,"x_min":103,"x_max":1067,"o":"m 695 -22 q 458 23 567 -22 q 270 148 350 67 q 147 337 190 229 q 103 572 103 445 q 147 807 103 699 q 270 996 190 915 q 458 1122 350 1077 q 695 1167 567 1167 q 898 1134 804 1167 q 1067 1043 992 1101 l 1043 1013 q 886 1098 974 1069 q 698 1128 797 1128 q 475 1085 576 1128 q 300 967 374 1042 q 186 790 226 891 q 146 572 146 689 q 186 355 146 456 q 300 178 226 253 q 475 59 374 102 q 698 17 576 17 q 886 46 797 17 q 1043 132 974 76 l 1067 101 q 898 10 992 43 q 695 -22 804 -22 m 702 1277 l 672 1296 l 770 1535 l 814 1507 l 702 1277 z "},"Č":{"ha":1147,"x_min":103,"x_max":1067,"o":"m 695 -22 q 458 23 567 -22 q 270 148 350 67 q 147 337 190 229 q 103 572 103 445 q 147 807 103 699 q 270 996 190 915 q 458 1122 350 1077 q 695 1167 567 1167 q 898 1134 804 1167 q 1067 1043 992 1101 l 1043 1013 q 886 1098 974 1069 q 698 1128 797 1128 q 475 1085 576 1128 q 300 967 374 1042 q 186 790 226 891 q 146 572 146 689 q 186 355 146 456 q 300 178 226 253 q 475 59 374 102 q 698 17 576 17 q 886 46 797 17 q 1043 132 974 76 l 1067 101 q 898 10 992 43 q 695 -22 804 -22 m 695 1324 l 462 1494 l 483 1524 l 695 1368 l 908 1524 l 928 1494 l 695 1324 z "},"Ç":{"ha":1147,"x_min":103,"x_max":1067,"o":"m 695 -22 q 458 23 567 -22 q 270 148 350 67 q 147 337 190 229 q 103 572 103 445 q 147 807 103 699 q 270 996 190 915 q 458 1122 350 1077 q 695 1167 567 1167 q 898 1134 804 1167 q 1067 1043 992 1101 l 1043 1013 q 886 1098 974 1069 q 698 1128 797 1128 q 475 1085 576 1128 q 300 967 374 1042 q 186 790 226 891 q 146 572 146 689 q 186 355 146 456 q 300 178 226 253 q 475 59 374 102 q 698 17 576 17 q 886 46 797 17 q 1043 132 974 76 l 1067 101 q 898 10 992 43 q 695 -22 804 -22 m 682 -411 q 583 -386 626 -411 q 516 -316 539 -360 l 544 -300 q 683 -377 585 -377 q 774 -349 740 -377 q 809 -274 809 -320 q 781 -207 809 -233 q 708 -181 753 -181 q 652 -189 683 -181 q 601 -210 622 -197 l 599 -209 l 659 -22 l 695 -22 l 652 -154 q 685 -148 673 -150 q 707 -147 697 -147 q 805 -182 767 -147 q 843 -274 843 -218 q 798 -373 843 -334 q 682 -411 753 -411 z "},"Ċ":{"ha":1147,"x_min":103,"x_max":1067,"o":"m 695 -22 q 458 23 567 -22 q 270 148 350 67 q 147 337 190 229 q 103 572 103 445 q 147 807 103 699 q 270 996 190 915 q 458 1122 350 1077 q 695 1167 567 1167 q 898 1134 804 1167 q 1067 1043 992 1101 l 1043 1013 q 886 1098 974 1069 q 698 1128 797 1128 q 475 1085 576 1128 q 300 967 374 1042 q 186 790 226 891 q 146 572 146 689 q 186 355 146 456 q 300 178 226 253 q 475 59 374 102 q 698 17 576 17 q 886 46 797 17 q 1043 132 974 76 l 1067 101 q 898 10 992 43 q 695 -22 804 -22 m 696 1443 q 679 1448 687 1443 q 667 1460 672 1452 q 663 1476 663 1467 q 667 1493 663 1485 q 679 1505 672 1500 q 696 1509 687 1509 q 712 1505 705 1509 q 724 1493 719 1500 q 728 1476 728 1485 q 724 1460 728 1467 q 712 1448 719 1452 q 696 1443 705 1443 z "},"D":{"ha":1148,"x_min":203,"x_max":1008,"o":"m 203 0 l 203 1146 l 430 1146 q 657 1102 552 1146 q 841 980 763 1058 q 964 798 919 902 q 1008 573 1008 694 q 964 347 1008 451 q 841 165 920 243 q 657 43 763 87 q 430 0 552 0 l 203 0 m 242 35 l 430 35 q 642 76 544 35 q 814 191 740 117 q 929 362 888 264 q 970 573 970 460 q 929 784 970 686 q 814 955 888 881 q 641 1070 740 1028 q 430 1111 543 1111 l 242 1111 l 242 35 z "},"Ð":{"ha":1168,"x_min":110,"x_max":1028,"o":"m 224 0 l 224 557 l 110 557 l 110 589 l 224 589 l 224 1146 l 450 1146 q 672 1104 568 1146 q 857 985 776 1062 q 982 803 937 908 q 1028 574 1028 699 q 982 343 1028 448 q 857 161 937 238 q 673 42 777 84 q 450 0 568 0 l 224 0 m 263 35 l 450 35 q 657 74 560 35 q 830 186 754 114 q 948 358 905 259 q 990 574 990 456 q 947 789 990 691 q 829 960 904 888 q 656 1072 753 1032 q 450 1111 559 1111 l 263 1111 l 263 589 l 636 589 l 636 557 l 263 557 l 263 35 z "},"Ď":{"ha":1148,"x_min":203,"x_max":1008,"o":"m 203 0 l 203 1146 l 430 1146 q 657 1102 552 1146 q 841 980 763 1058 q 964 798 919 902 q 1008 573 1008 694 q 964 347 1008 451 q 841 165 920 243 q 657 43 763 87 q 430 0 552 0 l 203 0 m 242 35 l 430 35 q 642 76 544 35 q 814 191 740 117 q 929 362 888 264 q 970 573 970 460 q 929 784 970 686 q 814 955 888 881 q 641 1070 740 1028 q 430 1111 543 1111 l 242 1111 l 242 35 m 574 1303 l 341 1474 l 362 1503 l 574 1347 l 787 1503 l 808 1474 l 574 1303 z "},"Đ":{"ha":1168,"x_min":110,"x_max":1028,"o":"m 224 0 l 224 557 l 110 557 l 110 589 l 224 589 l 224 1146 l 450 1146 q 672 1104 568 1146 q 857 985 776 1062 q 982 803 937 908 q 1028 574 1028 699 q 982 343 1028 448 q 857 161 937 238 q 673 42 777 84 q 450 0 568 0 l 224 0 m 263 35 l 450 35 q 657 74 560 35 q 830 186 754 114 q 948 358 905 259 q 990 574 990 456 q 947 789 990 691 q 829 960 904 888 q 656 1072 753 1032 q 450 1111 559 1111 l 263 1111 l 263 589 l 636 589 l 636 557 l 263 557 l 263 35 z "},"E":{"ha":871,"x_min":203,"x_max":748,"o":"m 203 0 l 203 1146 l 748 1146 l 748 1111 l 242 1111 l 242 592 l 731 592 l 731 557 l 242 557 l 242 35 l 748 35 l 748 0 l 203 0 z "},"É":{"ha":871,"x_min":203,"x_max":748,"o":"m 203 0 l 203 1146 l 748 1146 l 748 1111 l 242 1111 l 242 592 l 731 592 l 731 557 l 242 557 l 242 35 l 748 35 l 748 0 l 203 0 m 497 1256 l 467 1275 l 565 1515 l 609 1486 l 497 1256 z "},"Ě":{"ha":871,"x_min":203,"x_max":748,"o":"m 203 0 l 203 1146 l 748 1146 l 748 1111 l 242 1111 l 242 592 l 731 592 l 731 557 l 242 557 l 242 35 l 748 35 l 748 0 l 203 0 m 490 1303 l 257 1474 l 278 1503 l 490 1347 l 703 1503 l 724 1474 l 490 1303 z "},"Ê":{"ha":871,"x_min":203,"x_max":748,"o":"m 203 0 l 203 1146 l 748 1146 l 748 1111 l 242 1111 l 242 592 l 731 592 l 731 557 l 242 557 l 242 35 l 748 35 l 748 0 l 203 0 m 278 1400 l 257 1429 l 490 1600 l 724 1429 l 703 1400 l 490 1556 l 278 1400 z "},"Ë":{"ha":871,"x_min":203,"x_max":748,"o":"m 203 0 l 203 1146 l 748 1146 l 748 1111 l 242 1111 l 242 592 l 731 592 l 731 557 l 242 557 l 242 35 l 748 35 l 748 0 l 203 0 m 654 1371 q 631 1381 641 1371 q 621 1404 621 1391 q 631 1428 621 1418 q 654 1438 641 1438 q 678 1428 668 1438 q 688 1404 688 1418 q 678 1381 688 1391 q 654 1371 668 1371 m 326 1371 q 303 1381 313 1371 q 293 1404 293 1391 q 303 1428 293 1418 q 326 1438 313 1438 q 350 1428 340 1438 q 360 1404 360 1418 q 350 1381 360 1391 q 326 1371 340 1371 z "},"Ė":{"ha":871,"x_min":203,"x_max":748,"o":"m 203 0 l 203 1146 l 748 1146 l 748 1111 l 242 1111 l 242 592 l 731 592 l 731 557 l 242 557 l 242 35 l 748 35 l 748 0 l 203 0 m 491 1422 q 474 1427 482 1422 q 462 1439 467 1431 q 458 1456 458 1447 q 462 1472 458 1465 q 474 1484 467 1479 q 491 1488 482 1488 q 507 1484 500 1488 q 519 1472 515 1479 q 524 1456 524 1465 q 519 1439 524 1447 q 507 1427 515 1431 q 491 1422 500 1422 z "},"È":{"ha":871,"x_min":203,"x_max":748,"o":"m 203 0 l 203 1146 l 748 1146 l 748 1111 l 242 1111 l 242 592 l 731 592 l 731 557 l 242 557 l 242 35 l 748 35 l 748 0 l 203 0 m 531 1256 l 419 1486 l 463 1515 l 561 1275 l 531 1256 z "},"Ē":{"ha":871,"x_min":203,"x_max":774,"o":"m 203 0 l 203 1146 l 748 1146 l 748 1111 l 242 1111 l 242 592 l 731 592 l 731 557 l 242 557 l 242 35 l 748 35 l 748 0 l 203 0 m 207 1382 l 207 1414 l 774 1414 l 774 1382 l 207 1382 z "},"Ę":{"ha":871,"x_min":203,"x_max":949,"o":"m 203 0 l 203 1146 l 748 1146 l 748 1111 l 242 1111 l 242 592 l 731 592 l 731 557 l 242 557 l 242 35 l 748 35 l 748 0 l 203 0 m 757 -388 q 632 -342 681 -388 q 583 -233 583 -297 q 617 -125 583 -184 q 713 0 651 -65 l 748 0 q 653 -126 687 -65 q 619 -232 619 -187 q 655 -316 619 -279 q 761 -352 691 -352 q 847 -333 807 -352 q 925 -272 887 -314 l 949 -288 q 865 -361 917 -335 q 757 -388 814 -388 z "},"F":{"ha":860,"x_min":203,"x_max":748,"o":"m 203 0 l 203 1146 l 748 1146 l 748 1111 l 208 1111 l 242 1132 l 242 529 l 208 592 l 716 592 l 716 557 l 208 557 l 242 619 l 242 0 l 203 0 z "},"G":{"ha":1360,"x_min":142,"x_max":1231,"o":"m 708 -22 q 485 24 588 -22 q 306 152 383 70 q 185 341 228 233 q 142 572 142 449 q 180 790 142 683 q 289 981 217 896 q 468 1116 362 1066 q 711 1167 574 1167 q 889 1141 808 1167 q 1034 1072 969 1116 q 1144 971 1098 1028 l 1117 943 q 943 1080 1049 1028 q 708 1132 838 1132 q 487 1085 584 1132 q 322 959 390 1039 q 218 780 253 880 q 183 572 183 680 q 223 355 183 456 q 334 176 263 253 q 500 56 405 99 q 705 13 595 13 q 881 42 794 13 q 1038 129 967 72 q 1149 267 1108 186 q 1191 449 1191 347 l 1191 501 l 701 501 l 701 538 l 1231 538 l 1231 475 q 1184 250 1231 344 q 1060 95 1137 156 q 890 7 983 35 q 708 -22 798 -22 z "},"Ğ":{"ha":1360,"x_min":142,"x_max":1231,"o":"m 708 -22 q 485 24 588 -22 q 306 152 383 70 q 185 341 228 233 q 142 572 142 449 q 180 790 142 683 q 289 981 217 896 q 468 1116 362 1066 q 711 1167 574 1167 q 889 1141 808 1167 q 1034 1072 969 1116 q 1144 971 1098 1028 l 1117 943 q 943 1080 1049 1028 q 708 1132 838 1132 q 487 1085 584 1132 q 322 959 390 1039 q 218 780 253 880 q 183 572 183 680 q 223 355 183 456 q 334 176 263 253 q 500 56 405 99 q 705 13 595 13 q 881 42 794 13 q 1038 129 967 72 q 1149 267 1108 186 q 1191 449 1191 347 l 1191 501 l 701 501 l 701 538 l 1231 538 l 1231 475 q 1184 250 1231 344 q 1060 95 1137 156 q 890 7 983 35 q 708 -22 798 -22 m 715 1381 q 591 1407 647 1381 q 496 1481 535 1433 q 444 1592 458 1528 l 478 1600 q 523 1504 490 1545 q 605 1440 556 1463 q 715 1417 654 1417 q 824 1440 774 1417 q 906 1504 873 1463 q 951 1600 939 1545 l 985 1592 q 933 1481 972 1528 q 838 1407 894 1433 q 715 1381 782 1381 z "},"Ģ":{"ha":1360,"x_min":142,"x_max":1231,"o":"m 708 -22 q 485 24 588 -22 q 306 152 383 70 q 185 341 228 233 q 142 572 142 449 q 180 790 142 683 q 289 981 217 896 q 468 1116 362 1066 q 711 1167 574 1167 q 889 1141 808 1167 q 1034 1072 969 1116 q 1144 971 1098 1028 l 1117 943 q 943 1080 1049 1028 q 708 1132 838 1132 q 487 1085 584 1132 q 322 959 390 1039 q 218 780 253 880 q 183 572 183 680 q 223 355 183 456 q 334 176 263 253 q 500 56 405 99 q 705 13 595 13 q 881 42 794 13 q 1038 129 967 72 q 1149 267 1108 186 q 1191 449 1191 347 l 1191 501 l 701 501 l 701 538 l 1231 538 l 1231 475 q 1184 250 1231 344 q 1060 95 1137 156 q 890 7 983 35 q 708 -22 798 -22 m 708 -308 l 699 -300 q 722 -246 715 -276 q 730 -176 730 -217 q 701 -164 713 -176 q 689 -135 689 -152 q 700 -106 689 -117 q 731 -94 712 -94 q 761 -109 751 -94 q 771 -153 771 -123 q 751 -243 771 -196 q 708 -308 732 -290 z "},"Ġ":{"ha":1360,"x_min":142,"x_max":1231,"o":"m 708 -22 q 485 24 588 -22 q 306 152 383 70 q 185 341 228 233 q 142 572 142 449 q 180 790 142 683 q 289 981 217 896 q 468 1116 362 1066 q 711 1167 574 1167 q 889 1141 808 1167 q 1034 1072 969 1116 q 1144 971 1098 1028 l 1117 943 q 943 1080 1049 1028 q 708 1132 838 1132 q 487 1085 584 1132 q 322 959 390 1039 q 218 780 253 880 q 183 572 183 680 q 223 355 183 456 q 334 176 263 253 q 500 56 405 99 q 705 13 595 13 q 881 42 794 13 q 1038 129 967 72 q 1149 267 1108 186 q 1191 449 1191 347 l 1191 501 l 701 501 l 701 538 l 1231 538 l 1231 475 q 1184 250 1231 344 q 1060 95 1137 156 q 890 7 983 35 q 708 -22 798 -22 m 715 1422 q 699 1427 706 1422 q 686 1439 691 1431 q 682 1456 682 1447 q 686 1472 682 1465 q 699 1484 691 1479 q 715 1488 706 1488 q 732 1484 724 1488 q 743 1472 739 1479 q 748 1456 748 1465 q 743 1439 748 1447 q 732 1427 739 1431 q 715 1422 724 1422 z "},"H":{"ha":1221,"x_min":203,"x_max":1017,"o":"m 203 0 l 203 1146 l 242 1146 l 242 592 l 978 592 l 978 1146 l 1017 1146 l 1017 0 l 978 0 l 978 557 l 242 557 l 242 0 l 203 0 z "},"Ħ":{"ha":1221,"x_min":110,"x_max":1122,"o":"m 203 0 l 203 1146 l 242 1146 l 242 571 l 978 571 l 978 1146 l 1017 1146 l 1017 0 l 978 0 l 978 536 l 242 536 l 242 0 l 203 0 m 110 743 l 110 778 l 1122 778 l 1122 743 l 110 743 z "},"I":{"ha":446,"x_min":203,"x_max":242,"o":"m 203 0 l 203 1146 l 242 1146 l 242 0 l 203 0 z "},"Í":{"ha":446,"x_min":199,"x_max":342,"o":"m 203 0 l 203 1146 l 242 1146 l 242 0 l 203 0 m 230 1256 l 199 1275 l 298 1515 l 342 1486 l 230 1256 z "},"Î":{"ha":446,"x_min":-10,"x_max":456,"o":"m 203 0 l 203 1146 l 242 1146 l 242 0 l 203 0 m 10 1400 l -10 1429 l 223 1600 l 456 1429 l 435 1400 l 223 1556 l 10 1400 z "},"Ï":{"ha":446,"x_min":26,"x_max":420,"o":"m 203 0 l 203 1146 l 242 1146 l 242 0 l 203 0 m 387 1371 q 364 1381 374 1371 q 353 1404 353 1391 q 364 1428 353 1418 q 387 1438 374 1438 q 410 1428 401 1438 q 420 1404 420 1418 q 410 1381 420 1391 q 387 1371 401 1371 m 59 1371 q 36 1381 46 1371 q 26 1404 26 1391 q 36 1428 26 1418 q 59 1438 46 1438 q 83 1428 73 1438 q 92 1404 92 1418 q 83 1381 92 1391 q 59 1371 73 1371 z "},"İ":{"ha":446,"x_min":190,"x_max":256,"o":"m 203 0 l 203 1146 l 242 1146 l 242 0 l 203 0 m 224 1422 q 207 1427 215 1422 q 195 1439 199 1431 q 190 1456 190 1447 q 195 1472 190 1465 q 207 1484 199 1479 q 224 1488 215 1488 q 240 1484 233 1488 q 252 1472 247 1479 q 256 1456 256 1465 q 252 1439 256 1447 q 240 1427 247 1431 q 224 1422 233 1422 z "},"Ì":{"ha":446,"x_min":151,"x_max":294,"o":"m 203 0 l 203 1146 l 242 1146 l 242 0 l 203 0 m 263 1256 l 151 1486 l 195 1515 l 294 1275 l 263 1256 z "},"Ī":{"ha":446,"x_min":-60,"x_max":506,"o":"m 203 0 l 203 1146 l 242 1146 l 242 0 l 203 0 m -60 1382 l -60 1414 l 506 1414 l 506 1382 l -60 1382 z "},"Į":{"ha":446,"x_min":78,"x_max":443,"o":"m 203 0 l 203 1146 l 242 1146 l 242 0 l 203 0 m 251 -388 q 126 -342 175 -388 q 78 -233 78 -297 q 111 -125 78 -184 q 207 0 145 -65 l 242 0 q 148 -126 181 -65 q 114 -232 114 -187 q 150 -316 114 -279 q 256 -352 185 -352 q 341 -333 301 -352 q 419 -272 381 -314 l 443 -288 q 360 -361 411 -335 q 251 -388 308 -388 z "},"J":{"ha":927,"x_min":137,"x_max":735,"o":"m 394 -22 q 137 83 244 -22 l 160 116 q 398 14 256 14 q 619 99 541 14 q 697 339 697 184 l 697 1146 l 735 1146 l 735 322 q 645 69 735 160 q 394 -22 555 -22 z "},"K":{"ha":992,"x_min":203,"x_max":915,"o":"m 203 0 l 203 1146 l 242 1146 l 242 594 l 809 1146 l 863 1146 l 270 569 l 915 0 l 858 0 l 242 540 l 242 0 l 203 0 z "},"Ķ":{"ha":992,"x_min":203,"x_max":915,"o":"m 203 0 l 203 1146 l 242 1146 l 242 594 l 809 1146 l 863 1146 l 270 569 l 915 0 l 858 0 l 242 540 l 242 0 l 203 0 m 485 -308 l 476 -300 q 500 -246 492 -276 q 508 -176 508 -217 q 479 -164 491 -176 q 467 -135 467 -152 q 478 -106 467 -117 q 508 -94 490 -94 q 539 -109 528 -94 q 549 -153 549 -123 q 529 -243 549 -196 q 485 -308 510 -290 z "},"L":{"ha":865,"x_min":203,"x_max":759,"o":"m 203 0 l 203 1146 l 242 1146 l 242 35 l 759 35 l 759 0 l 203 0 z "},"Ĺ":{"ha":865,"x_min":203,"x_max":759,"o":"m 203 0 l 203 1146 l 242 1146 l 242 35 l 759 35 l 759 0 l 203 0 m 440 1256 l 409 1275 l 508 1515 l 551 1486 l 440 1256 z "},"Ľ":{"ha":865,"x_min":199,"x_max":759,"o":"m 203 0 l 203 1146 l 242 1146 l 242 35 l 759 35 l 759 0 l 203 0 m 433 1303 l 199 1474 l 220 1503 l 433 1347 l 645 1503 l 666 1474 l 433 1303 z "},"Ļ":{"ha":865,"x_min":203,"x_max":759,"o":"m 203 0 l 203 1146 l 242 1146 l 242 35 l 759 35 l 759 0 l 203 0 m 410 -308 l 401 -300 q 425 -246 417 -276 q 433 -176 433 -217 q 404 -164 416 -176 q 392 -135 392 -152 q 403 -106 392 -117 q 433 -94 415 -94 q 464 -109 453 -94 q 474 -153 474 -123 q 454 -243 474 -196 q 410 -308 435 -290 z "},"Ł":{"ha":886,"x_min":110,"x_max":781,"o":"m 226 0 l 226 515 l 110 424 l 110 456 l 226 547 l 226 1146 l 265 1146 l 265 578 l 415 696 l 415 664 l 265 546 l 265 35 l 781 35 l 781 0 l 226 0 z "},"M":{"ha":1426,"x_min":131,"x_max":1295,"o":"m 131 0 l 299 1146 l 341 1146 l 713 149 l 1085 1146 l 1127 1146 l 1295 0 l 1256 0 l 1098 1065 l 734 93 l 692 93 l 328 1065 l 170 0 l 131 0 z "},"N":{"ha":1168,"x_min":203,"x_max":965,"o":"m 203 0 l 203 1146 l 242 1146 l 926 71 l 926 1146 l 965 1146 l 965 0 l 926 0 l 242 1074 l 242 0 l 203 0 z "},"Ń":{"ha":1168,"x_min":203,"x_max":965,"o":"m 203 0 l 203 1146 l 242 1146 l 926 71 l 926 1146 l 965 1146 l 965 0 l 926 0 l 242 1074 l 242 0 l 203 0 m 591 1256 l 560 1275 l 659 1515 l 703 1486 l 591 1256 z "},"Ň":{"ha":1168,"x_min":203,"x_max":965,"o":"m 203 0 l 203 1146 l 242 1146 l 926 71 l 926 1146 l 965 1146 l 965 0 l 926 0 l 242 1074 l 242 0 l 203 0 m 584 1303 l 351 1474 l 372 1503 l 584 1347 l 797 1503 l 817 1474 l 584 1303 z "},"Ņ":{"ha":1168,"x_min":203,"x_max":965,"o":"m 203 0 l 203 1146 l 242 1146 l 926 71 l 926 1146 l 965 1146 l 965 0 l 926 0 l 242 1074 l 242 0 l 203 0 m 562 -308 l 553 -300 q 576 -246 569 -276 q 584 -176 584 -217 q 555 -164 567 -176 q 543 -135 543 -152 q 555 -106 543 -117 q 585 -94 566 -94 q 615 -109 605 -94 q 625 -153 625 -123 q 606 -243 625 -196 q 562 -308 586 -290 z "},"Ŋ":{"ha":1156,"x_min":203,"x_max":965,"o":"m 623 -383 q 481 -357 542 -383 q 366 -277 419 -332 l 390 -244 q 500 -323 441 -299 q 627 -347 560 -347 q 850 -260 774 -347 q 926 -22 926 -173 l 926 0 l 242 1074 l 242 0 l 203 0 l 203 1146 l 242 1146 l 926 71 l 926 1146 l 965 1146 l 965 -38 q 874 -291 965 -200 q 623 -383 784 -383 z "},"Ñ":{"ha":1168,"x_min":203,"x_max":965,"o":"m 203 0 l 203 1146 l 242 1146 l 926 71 l 926 1146 l 965 1146 l 965 0 l 926 0 l 242 1074 l 242 0 l 203 0 m 722 1350 q 641 1367 674 1350 q 580 1406 608 1383 q 520 1444 551 1428 q 445 1461 489 1461 q 345 1429 387 1461 q 278 1353 303 1397 l 252 1376 q 330 1461 282 1426 q 445 1496 378 1496 q 527 1479 493 1496 q 589 1440 560 1463 q 648 1401 617 1418 q 722 1385 679 1385 q 817 1413 774 1385 q 890 1493 860 1441 l 916 1469 q 862 1404 892 1431 q 797 1364 832 1377 q 722 1350 761 1350 z "},"O":{"ha":1438,"x_min":141,"x_max":1297,"o":"m 719 -22 q 494 24 599 -22 q 310 151 389 69 q 186 341 231 233 q 141 572 141 449 q 186 804 141 697 q 310 993 231 912 q 494 1121 389 1075 q 719 1167 599 1167 q 944 1121 839 1167 q 1128 993 1049 1075 q 1252 804 1207 912 q 1297 572 1297 697 q 1252 341 1297 449 q 1128 151 1207 233 q 944 24 1049 69 q 719 -22 839 -22 m 719 15 q 928 58 831 15 q 1098 178 1025 101 q 1213 356 1172 255 q 1255 572 1255 457 q 1213 789 1255 688 q 1098 966 1172 890 q 928 1086 1025 1043 q 719 1129 831 1129 q 510 1086 608 1129 q 339 966 413 1043 q 224 789 266 890 q 183 572 183 688 q 224 356 183 457 q 339 178 266 255 q 510 58 413 101 q 719 15 608 15 z "},"Ó":{"ha":1438,"x_min":141,"x_max":1297,"o":"m 719 -22 q 494 24 599 -22 q 310 151 389 69 q 186 341 231 233 q 141 572 141 449 q 186 804 141 697 q 310 993 231 912 q 494 1121 389 1075 q 719 1167 599 1167 q 944 1121 839 1167 q 1128 993 1049 1075 q 1252 804 1207 912 q 1297 572 1297 697 q 1252 341 1297 449 q 1128 151 1207 233 q 944 24 1049 69 q 719 -22 839 -22 m 719 15 q 928 58 831 15 q 1098 178 1025 101 q 1213 356 1172 255 q 1255 572 1255 457 q 1213 789 1255 688 q 1098 966 1172 890 q 928 1086 1025 1043 q 719 1129 831 1129 q 510 1086 608 1129 q 339 966 413 1043 q 224 789 266 890 q 183 572 183 688 q 224 356 183 457 q 339 178 266 255 q 510 58 413 101 q 719 15 608 15 m 726 1256 l 695 1275 l 794 1515 l 838 1486 l 726 1256 z "},"Ô":{"ha":1438,"x_min":141,"x_max":1297,"o":"m 719 -22 q 494 24 599 -22 q 310 151 389 69 q 186 341 231 233 q 141 572 141 449 q 186 804 141 697 q 310 993 231 912 q 494 1121 389 1075 q 719 1167 599 1167 q 944 1121 839 1167 q 1128 993 1049 1075 q 1252 804 1207 912 q 1297 572 1297 697 q 1252 341 1297 449 q 1128 151 1207 233 q 944 24 1049 69 q 719 -22 839 -22 m 719 15 q 928 58 831 15 q 1098 178 1025 101 q 1213 356 1172 255 q 1255 572 1255 457 q 1213 789 1255 688 q 1098 966 1172 890 q 928 1086 1025 1043 q 719 1129 831 1129 q 510 1086 608 1129 q 339 966 413 1043 q 224 789 266 890 q 183 572 183 688 q 224 356 183 457 q 339 178 266 255 q 510 58 413 101 q 719 15 608 15 m 506 1400 l 485 1429 l 719 1600 l 952 1429 l 931 1400 l 719 1556 l 506 1400 z "},"Ö":{"ha":1438,"x_min":141,"x_max":1297,"o":"m 719 -22 q 494 24 599 -22 q 310 151 389 69 q 186 341 231 233 q 141 572 141 449 q 186 804 141 697 q 310 993 231 912 q 494 1121 389 1075 q 719 1167 599 1167 q 944 1121 839 1167 q 1128 993 1049 1075 q 1252 804 1207 912 q 1297 572 1297 697 q 1252 341 1297 449 q 1128 151 1207 233 q 944 24 1049 69 q 719 -22 839 -22 m 719 15 q 928 58 831 15 q 1098 178 1025 101 q 1213 356 1172 255 q 1255 572 1255 457 q 1213 789 1255 688 q 1098 966 1172 890 q 928 1086 1025 1043 q 719 1129 831 1129 q 510 1086 608 1129 q 339 966 413 1043 q 224 789 266 890 q 183 572 183 688 q 224 356 183 457 q 339 178 266 255 q 510 58 413 101 q 719 15 608 15 m 883 1371 q 859 1381 869 1371 q 849 1404 849 1391 q 859 1428 849 1418 q 883 1438 869 1438 q 906 1428 897 1438 q 916 1404 916 1418 q 906 1381 916 1391 q 883 1371 897 1371 m 555 1371 q 532 1381 542 1371 q 522 1404 522 1391 q 532 1428 522 1418 q 555 1438 542 1438 q 578 1428 569 1438 q 588 1404 588 1418 q 578 1381 588 1391 q 555 1371 569 1371 z "},"Ò":{"ha":1438,"x_min":141,"x_max":1297,"o":"m 719 -22 q 494 24 599 -22 q 310 151 389 69 q 186 341 231 233 q 141 572 141 449 q 186 804 141 697 q 310 993 231 912 q 494 1121 389 1075 q 719 1167 599 1167 q 944 1121 839 1167 q 1128 993 1049 1075 q 1252 804 1207 912 q 1297 572 1297 697 q 1252 341 1297 449 q 1128 151 1207 233 q 944 24 1049 69 q 719 -22 839 -22 m 719 15 q 928 58 831 15 q 1098 178 1025 101 q 1213 356 1172 255 q 1255 572 1255 457 q 1213 789 1255 688 q 1098 966 1172 890 q 928 1086 1025 1043 q 719 1129 831 1129 q 510 1086 608 1129 q 339 966 413 1043 q 224 789 266 890 q 183 572 183 688 q 224 356 183 457 q 339 178 266 255 q 510 58 413 101 q 719 15 608 15 m 759 1256 l 647 1486 l 691 1515 l 790 1275 l 759 1256 z "},"Ő":{"ha":1438,"x_min":141,"x_max":1297,"o":"m 719 -22 q 494 24 599 -22 q 310 151 389 69 q 186 341 231 233 q 141 572 141 449 q 186 804 141 697 q 310 993 231 912 q 494 1121 389 1075 q 719 1167 599 1167 q 944 1121 839 1167 q 1128 993 1049 1075 q 1252 804 1207 912 q 1297 572 1297 697 q 1252 341 1297 449 q 1128 151 1207 233 q 944 24 1049 69 q 719 -22 839 -22 m 719 15 q 928 58 831 15 q 1098 178 1025 101 q 1213 356 1172 255 q 1255 572 1255 457 q 1213 789 1255 688 q 1098 966 1172 890 q 928 1086 1025 1043 q 719 1129 831 1129 q 510 1086 608 1129 q 339 966 413 1043 q 224 789 266 890 q 183 572 183 688 q 224 356 183 457 q 339 178 266 255 q 510 58 413 101 q 719 15 608 15 m 797 1453 l 767 1482 l 882 1600 l 928 1557 l 797 1453 m 608 1453 l 578 1482 l 694 1600 l 739 1557 l 608 1453 z "},"Ō":{"ha":1438,"x_min":141,"x_max":1297,"o":"m 719 -22 q 494 24 599 -22 q 310 151 389 69 q 186 341 231 233 q 141 572 141 449 q 186 804 141 697 q 310 993 231 912 q 494 1121 389 1075 q 719 1167 599 1167 q 944 1121 839 1167 q 1128 993 1049 1075 q 1252 804 1207 912 q 1297 572 1297 697 q 1252 341 1297 449 q 1128 151 1207 233 q 944 24 1049 69 q 719 -22 839 -22 m 719 15 q 928 58 831 15 q 1098 178 1025 101 q 1213 356 1172 255 q 1255 572 1255 457 q 1213 789 1255 688 q 1098 966 1172 890 q 928 1086 1025 1043 q 719 1129 831 1129 q 510 1086 608 1129 q 339 966 413 1043 q 224 789 266 890 q 183 572 183 688 q 224 356 183 457 q 339 178 266 255 q 510 58 413 101 q 719 15 608 15 m 435 1382 l 435 1414 l 1002 1414 l 1002 1382 l 435 1382 z "},"Ø":{"ha":1438,"x_min":141,"x_max":1297,"o":"m 719 -22 q 494 24 599 -22 q 310 151 389 69 q 186 341 231 233 q 141 572 141 449 q 186 804 141 697 q 310 993 231 912 q 494 1121 389 1075 q 719 1167 599 1167 q 944 1121 839 1167 q 1128 993 1049 1075 q 1252 804 1207 912 q 1297 572 1297 697 q 1252 341 1297 449 q 1128 151 1207 233 q 944 24 1049 69 q 719 -22 839 -22 m 719 15 q 928 58 831 15 q 1098 178 1025 101 q 1213 356 1172 255 q 1255 572 1255 457 q 1213 789 1255 688 q 1098 966 1172 890 q 928 1086 1025 1043 q 719 1129 831 1129 q 510 1086 608 1129 q 339 966 413 1043 q 224 789 266 890 q 183 572 183 688 q 224 356 183 457 q 339 178 266 255 q 510 58 413 101 q 719 15 608 15 m 303 6 l 273 29 l 1138 1142 l 1170 1118 l 303 6 z "},"Õ":{"ha":1438,"x_min":141,"x_max":1297,"o":"m 719 -22 q 494 24 599 -22 q 310 151 389 69 q 186 341 231 233 q 141 572 141 449 q 186 804 141 697 q 310 993 231 912 q 494 1121 389 1075 q 719 1167 599 1167 q 944 1121 839 1167 q 1128 993 1049 1075 q 1252 804 1207 912 q 1297 572 1297 697 q 1252 341 1297 449 q 1128 151 1207 233 q 944 24 1049 69 q 719 -22 839 -22 m 719 15 q 928 58 831 15 q 1098 178 1025 101 q 1213 356 1172 255 q 1255 572 1255 457 q 1213 789 1255 688 q 1098 966 1172 890 q 928 1086 1025 1043 q 719 1129 831 1129 q 510 1086 608 1129 q 339 966 413 1043 q 224 789 266 890 q 183 572 183 688 q 224 356 183 457 q 339 178 266 255 q 510 58 413 101 q 719 15 608 15 m 857 1350 q 776 1367 809 1350 q 714 1406 742 1383 q 655 1444 686 1428 q 580 1461 624 1461 q 480 1429 522 1461 q 413 1353 438 1397 l 387 1376 q 465 1461 417 1426 q 580 1496 513 1496 q 661 1479 628 1496 q 723 1440 695 1463 q 783 1401 751 1418 q 857 1385 814 1385 q 951 1413 908 1385 q 1024 1493 994 1441 l 1051 1469 q 997 1404 1027 1431 q 931 1364 967 1377 q 857 1350 896 1350 z "},"Œ":{"ha":1381,"x_min":140,"x_max":1258,"o":"m 714 0 q 486 44 591 0 q 304 165 382 88 q 183 347 226 243 q 140 572 140 451 q 184 798 140 694 q 307 981 228 903 q 490 1102 385 1059 q 714 1146 594 1146 l 1258 1146 l 1258 1111 l 753 1111 l 753 592 l 1242 592 l 1242 557 l 753 557 l 753 35 l 1258 35 l 1258 0 l 714 0 m 714 36 l 714 1110 q 506 1069 603 1110 q 336 955 409 1028 q 223 784 264 882 q 182 572 182 686 q 222 361 182 458 q 334 191 262 264 q 503 77 406 118 q 714 36 600 36 z "},"P":{"ha":933,"x_min":203,"x_max":803,"o":"m 203 0 l 203 1146 l 449 1146 q 641 1107 562 1146 q 762 999 720 1069 q 803 835 803 928 q 762 668 803 742 q 641 553 720 595 q 449 511 562 511 l 242 511 l 242 0 l 203 0 m 242 549 l 449 549 q 621 586 550 549 q 730 688 692 623 q 767 835 767 752 q 730 981 767 918 q 621 1078 692 1043 q 449 1113 550 1113 l 242 1113 l 242 549 z "},"Þ":{"ha":933,"x_min":203,"x_max":803,"o":"m 203 0 l 203 1146 l 242 1146 l 242 883 l 449 883 q 711 798 618 883 q 803 572 803 713 q 762 406 803 479 q 641 291 720 333 q 449 249 562 249 l 242 249 l 242 0 l 203 0 m 242 286 l 449 286 q 621 323 550 286 q 730 425 692 360 q 767 572 767 490 q 684 774 767 697 q 449 850 601 850 l 242 850 l 242 286 z "},"Q":{"ha":1401,"x_min":113,"x_max":1289,"o":"m 1271 -37 q 1154 17 1214 -15 q 1033 89 1094 49 q 688 -22 885 -22 q 460 22 565 -22 q 277 147 355 67 q 156 334 199 226 q 113 568 113 442 q 157 802 113 693 q 281 992 201 910 q 465 1120 360 1074 q 691 1167 570 1167 q 917 1121 812 1167 q 1100 994 1022 1075 q 1224 805 1179 913 q 1268 572 1268 697 q 1214 316 1268 436 q 1063 111 1160 195 q 1180 46 1123 74 q 1289 -1 1236 17 l 1271 -37 m 688 15 q 852 40 774 15 q 999 113 931 65 q 877 207 935 157 q 767 313 818 258 l 786 332 q 1028 135 896 222 q 1174 327 1122 213 q 1225 571 1225 441 q 1184 789 1225 688 q 1070 967 1143 890 q 900 1086 997 1043 q 691 1129 803 1129 q 481 1086 578 1129 q 310 966 384 1043 q 195 788 237 890 q 154 568 154 685 q 194 349 154 450 q 307 174 235 249 q 476 57 379 99 q 688 15 574 15 z "},"R":{"ha":928,"x_min":203,"x_max":851,"o":"m 203 0 l 203 1146 l 449 1146 q 638 1108 559 1146 q 760 1001 717 1070 q 803 835 803 931 q 762 668 803 740 q 644 556 720 597 q 466 511 569 515 l 851 0 l 801 0 l 416 511 l 242 511 l 242 0 l 203 0 m 242 549 l 449 549 q 617 584 546 549 q 728 684 689 619 q 767 835 767 748 q 682 1038 767 963 q 449 1113 597 1113 l 242 1113 l 242 549 z "},"Ŕ":{"ha":928,"x_min":203,"x_max":851,"o":"m 203 0 l 203 1146 l 449 1146 q 638 1108 559 1146 q 760 1001 717 1070 q 803 835 803 931 q 762 668 803 740 q 644 556 720 597 q 466 511 569 515 l 851 0 l 801 0 l 416 511 l 242 511 l 242 0 l 203 0 m 242 549 l 449 549 q 617 584 546 549 q 728 684 689 619 q 767 835 767 748 q 682 1038 767 963 q 449 1113 597 1113 l 242 1113 l 242 549 m 471 1256 l 440 1275 l 539 1515 l 583 1486 l 471 1256 z "},"Ř":{"ha":928,"x_min":203,"x_max":851,"o":"m 203 0 l 203 1146 l 449 1146 q 638 1108 559 1146 q 760 1001 717 1070 q 803 835 803 931 q 762 668 803 740 q 644 556 720 597 q 466 511 569 515 l 851 0 l 801 0 l 416 511 l 242 511 l 242 0 l 203 0 m 242 549 l 449 549 q 617 584 546 549 q 728 684 689 619 q 767 835 767 748 q 682 1038 767 963 q 449 1113 597 1113 l 242 1113 l 242 549 m 464 1303 l 231 1474 l 251 1503 l 464 1347 l 676 1503 l 697 1474 l 464 1303 z "},"Ŗ":{"ha":928,"x_min":203,"x_max":851,"o":"m 203 0 l 203 1146 l 449 1146 q 638 1108 559 1146 q 760 1001 717 1070 q 803 835 803 931 q 762 668 803 740 q 644 556 720 597 q 466 511 569 515 l 851 0 l 801 0 l 416 511 l 242 511 l 242 0 l 203 0 m 242 549 l 449 549 q 617 584 546 549 q 728 684 689 619 q 767 835 767 748 q 682 1038 767 963 q 449 1113 597 1113 l 242 1113 l 242 549 m 442 -308 l 433 -300 q 456 -246 449 -276 q 464 -176 464 -217 q 435 -164 447 -176 q 423 -135 423 -152 q 434 -106 423 -117 q 465 -94 446 -94 q 495 -109 485 -94 q 505 -153 505 -123 q 485 -243 505 -196 q 442 -308 466 -290 z "},"S":{"ha":951,"x_min":117,"x_max":822,"o":"m 483 -22 q 322 9 389 -22 q 211 85 255 41 q 145 169 167 129 q 117 226 122 210 l 148 243 q 176 187 154 224 q 237 110 197 150 q 337 42 276 70 q 483 14 398 14 q 633 44 564 14 q 743 134 701 74 q 785 283 785 194 q 757 406 785 356 q 682 490 729 456 q 577 547 635 524 q 462 590 520 571 q 376 623 423 603 q 285 674 328 642 q 214 754 242 706 q 185 875 185 803 q 207 989 185 936 q 268 1082 229 1042 q 362 1144 308 1122 q 481 1167 416 1167 q 608 1141 553 1167 q 700 1076 663 1115 q 753 999 737 1038 l 722 983 q 675 1053 708 1019 q 592 1109 642 1087 q 479 1131 543 1131 q 338 1092 396 1131 q 250 995 280 1054 q 220 873 220 936 q 245 771 220 813 q 309 702 269 730 q 393 656 348 674 q 480 624 438 638 q 600 578 540 603 q 710 516 660 553 q 791 423 760 478 q 822 285 822 367 q 775 118 822 187 q 652 14 728 49 q 483 -22 575 -22 z "},"Ś":{"ha":951,"x_min":117,"x_max":822,"o":"m 483 -22 q 322 9 389 -22 q 211 85 255 41 q 145 169 167 129 q 117 226 122 210 l 148 243 q 176 187 154 224 q 237 110 197 150 q 337 42 276 70 q 483 14 398 14 q 633 44 564 14 q 743 134 701 74 q 785 283 785 194 q 757 406 785 356 q 682 490 729 456 q 577 547 635 524 q 462 590 520 571 q 376 623 423 603 q 285 674 328 642 q 214 754 242 706 q 185 875 185 803 q 207 989 185 936 q 268 1082 229 1042 q 362 1144 308 1122 q 481 1167 416 1167 q 608 1141 553 1167 q 700 1076 663 1115 q 753 999 737 1038 l 722 983 q 675 1053 708 1019 q 592 1109 642 1087 q 479 1131 543 1131 q 338 1092 396 1131 q 250 995 280 1054 q 220 873 220 936 q 245 771 220 813 q 309 702 269 730 q 393 656 348 674 q 480 624 438 638 q 600 578 540 603 q 710 516 660 553 q 791 423 760 478 q 822 285 822 367 q 775 118 822 187 q 652 14 728 49 q 483 -22 575 -22 m 488 1263 l 457 1282 l 556 1522 l 599 1493 l 488 1263 z "},"Š":{"ha":951,"x_min":117,"x_max":822,"o":"m 483 -22 q 322 9 389 -22 q 211 85 255 41 q 145 169 167 129 q 117 226 122 210 l 148 243 q 176 187 154 224 q 237 110 197 150 q 337 42 276 70 q 483 14 398 14 q 633 44 564 14 q 743 134 701 74 q 785 283 785 194 q 757 406 785 356 q 682 490 729 456 q 577 547 635 524 q 462 590 520 571 q 376 623 423 603 q 285 674 328 642 q 214 754 242 706 q 185 875 185 803 q 207 989 185 936 q 268 1082 229 1042 q 362 1144 308 1122 q 481 1167 416 1167 q 608 1141 553 1167 q 700 1076 663 1115 q 753 999 737 1038 l 722 983 q 675 1053 708 1019 q 592 1109 642 1087 q 479 1131 543 1131 q 338 1092 396 1131 q 250 995 280 1054 q 220 873 220 936 q 245 771 220 813 q 309 702 269 730 q 393 656 348 674 q 480 624 438 638 q 600 578 540 603 q 710 516 660 553 q 791 423 760 478 q 822 285 822 367 q 775 118 822 187 q 652 14 728 49 q 483 -22 575 -22 m 481 1310 l 247 1481 l 268 1510 l 481 1354 l 693 1510 l 714 1481 l 481 1310 z "},"Ş":{"ha":951,"x_min":117,"x_max":822,"o":"m 483 -22 q 322 9 389 -22 q 211 85 255 41 q 145 169 167 129 q 117 226 122 210 l 148 243 q 176 187 154 224 q 237 110 197 150 q 337 42 276 70 q 483 14 398 14 q 633 44 564 14 q 743 134 701 74 q 785 283 785 194 q 757 406 785 356 q 682 490 729 456 q 577 547 635 524 q 462 590 520 571 q 376 623 423 603 q 285 674 328 642 q 214 754 242 706 q 185 875 185 803 q 207 989 185 936 q 268 1082 229 1042 q 362 1144 308 1122 q 481 1167 416 1167 q 608 1141 553 1167 q 700 1076 663 1115 q 753 999 737 1038 l 722 983 q 675 1053 708 1019 q 592 1109 642 1087 q 479 1131 543 1131 q 338 1092 396 1131 q 250 995 280 1054 q 220 873 220 936 q 245 771 220 813 q 309 702 269 730 q 393 656 348 674 q 480 624 438 638 q 600 578 540 603 q 710 516 660 553 q 791 423 760 478 q 822 285 822 367 q 775 118 822 187 q 652 14 728 49 q 483 -22 575 -22 m 492 -389 q 392 -364 436 -389 q 326 -294 349 -338 l 354 -278 q 493 -355 395 -355 q 584 -326 549 -355 q 619 -252 619 -298 q 591 -184 619 -210 q 518 -158 563 -158 q 462 -167 492 -158 q 410 -188 432 -175 l 408 -187 l 469 0 l 505 0 l 462 -132 q 494 -126 483 -128 q 517 -124 506 -124 q 615 -160 576 -124 q 653 -251 653 -196 q 608 -350 653 -312 q 492 -389 563 -389 z "},"Ș":{"ha":951,"x_min":117,"x_max":822,"o":"m 483 -22 q 322 9 389 -22 q 211 85 255 41 q 145 169 167 129 q 117 226 122 210 l 148 243 q 176 187 154 224 q 237 110 197 150 q 337 42 276 70 q 483 14 398 14 q 633 44 564 14 q 743 134 701 74 q 785 283 785 194 q 757 406 785 356 q 682 490 729 456 q 577 547 635 524 q 462 590 520 571 q 376 623 423 603 q 285 674 328 642 q 214 754 242 706 q 185 875 185 803 q 207 989 185 936 q 268 1082 229 1042 q 362 1144 308 1122 q 481 1167 416 1167 q 608 1141 553 1167 q 700 1076 663 1115 q 753 999 737 1038 l 722 983 q 675 1053 708 1019 q 592 1109 642 1087 q 479 1131 543 1131 q 338 1092 396 1131 q 250 995 280 1054 q 220 873 220 936 q 245 771 220 813 q 309 702 269 730 q 393 656 348 674 q 480 624 438 638 q 600 578 540 603 q 710 516 660 553 q 791 423 760 478 q 822 285 822 367 q 775 118 822 187 q 652 14 728 49 q 483 -22 575 -22 m 483 -308 l 474 -300 q 497 -246 490 -276 q 505 -176 505 -217 q 476 -164 488 -176 q 464 -135 464 -152 q 475 -106 464 -117 q 506 -94 487 -94 q 536 -109 526 -94 q 546 -153 546 -123 q 526 -243 546 -196 q 483 -308 507 -290 z "},"ẞ":{"ha":1031,"x_min":203,"x_max":902,"o":"m 606 -23 q 480 2 538 -23 q 353 81 422 28 l 374 115 q 488 41 433 68 q 608 15 543 15 q 735 45 678 15 q 826 132 792 76 q 860 265 860 189 q 839 369 860 328 q 784 439 817 410 q 712 488 750 467 q 640 528 674 508 q 585 574 606 549 q 563 638 563 600 q 579 694 563 672 q 617 735 594 716 q 663 776 640 753 q 702 832 686 799 q 717 917 717 865 q 656 1072 717 1017 q 501 1126 594 1126 q 309 1031 376 1126 q 242 774 242 937 l 242 0 l 203 0 l 203 778 q 238 981 203 894 q 340 1118 273 1069 q 503 1167 407 1167 q 634 1138 576 1167 q 725 1053 692 1109 q 759 918 759 998 q 743 824 759 861 q 705 763 728 788 q 658 719 681 738 q 619 682 635 701 q 603 637 603 663 q 625 585 603 606 q 681 545 647 564 q 753 506 715 527 q 825 454 791 484 q 881 378 859 424 q 902 267 902 333 q 865 118 902 183 q 760 15 827 52 q 606 -23 693 -23 z "},"T":{"ha":1017,"x_min":106,"x_max":911,"o":"m 489 0 l 489 1107 l 106 1107 l 106 1146 l 911 1146 l 911 1107 l 528 1107 l 528 0 l 489 0 z "},"Ŧ":{"ha":1017,"x_min":106,"x_max":911,"o":"m 489 0 l 489 1107 l 106 1107 l 106 1146 l 911 1146 l 911 1107 l 528 1107 l 528 0 l 489 0 m 256 699 l 256 734 l 762 734 l 762 699 l 256 699 z "},"Ť":{"ha":1017,"x_min":106,"x_max":911,"o":"m 489 0 l 489 1107 l 106 1107 l 106 1146 l 911 1146 l 911 1107 l 528 1107 l 528 0 l 489 0 m 508 1303 l 275 1474 l 296 1503 l 508 1347 l 721 1503 l 742 1474 l 508 1303 z "},"Ţ":{"ha":1017,"x_min":106,"x_max":911,"o":"m 489 0 l 489 1107 l 106 1107 l 106 1146 l 911 1146 l 911 1107 l 528 1107 l 528 0 l 489 0 m 515 -389 q 415 -364 459 -389 q 349 -294 372 -338 l 377 -278 q 516 -355 418 -355 q 607 -326 572 -355 q 642 -252 642 -298 q 614 -184 642 -210 q 541 -158 586 -158 q 485 -167 515 -158 q 433 -188 455 -175 l 431 -187 l 492 0 l 528 0 l 485 -132 q 517 -126 506 -128 q 540 -124 529 -124 q 638 -160 599 -124 q 676 -251 676 -196 q 631 -350 676 -312 q 515 -389 585 -389 z "},"Ț":{"ha":1017,"x_min":106,"x_max":911,"o":"m 489 0 l 489 1107 l 106 1107 l 106 1146 l 911 1146 l 911 1107 l 528 1107 l 528 0 l 489 0 m 506 -308 l 497 -300 q 520 -246 513 -276 q 528 -176 528 -217 q 499 -164 511 -176 q 487 -135 487 -152 q 498 -106 487 -117 q 528 -94 510 -94 q 559 -109 549 -94 q 569 -153 569 -123 q 549 -243 569 -196 q 506 -308 530 -290 z "},"U":{"ha":1127,"x_min":189,"x_max":939,"o":"m 564 -22 q 282 86 376 -22 q 189 413 189 195 l 189 1146 l 228 1146 l 228 413 q 313 117 228 218 q 564 17 399 17 q 815 117 729 17 q 900 413 900 218 l 900 1146 l 939 1146 l 939 413 q 845 86 939 195 q 564 -22 752 -22 z "},"Ú":{"ha":1127,"x_min":189,"x_max":939,"o":"m 564 -22 q 282 86 376 -22 q 189 413 189 195 l 189 1146 l 228 1146 l 228 413 q 313 117 228 218 q 564 17 399 17 q 815 117 729 17 q 900 413 900 218 l 900 1146 l 939 1146 l 939 413 q 845 86 939 195 q 564 -22 752 -22 m 571 1256 l 540 1275 l 639 1515 l 683 1486 l 571 1256 z "},"Û":{"ha":1127,"x_min":189,"x_max":939,"o":"m 564 -22 q 282 86 376 -22 q 189 413 189 195 l 189 1146 l 228 1146 l 228 413 q 313 117 228 218 q 564 17 399 17 q 815 117 729 17 q 900 413 900 218 l 900 1146 l 939 1146 l 939 413 q 845 86 939 195 q 564 -22 752 -22 m 351 1400 l 331 1429 l 564 1600 l 797 1429 l 776 1400 l 564 1556 l 351 1400 z "},"Ü":{"ha":1127,"x_min":189,"x_max":939,"o":"m 564 -22 q 282 86 376 -22 q 189 413 189 195 l 189 1146 l 228 1146 l 228 413 q 313 117 228 218 q 564 17 399 17 q 815 117 729 17 q 900 413 900 218 l 900 1146 l 939 1146 l 939 413 q 845 86 939 195 q 564 -22 752 -22 m 728 1371 q 705 1381 715 1371 q 694 1404 694 1391 q 705 1428 694 1418 q 728 1438 715 1438 q 751 1428 742 1438 q 761 1404 761 1418 q 751 1381 761 1391 q 728 1371 742 1371 m 400 1371 q 377 1381 387 1371 q 367 1404 367 1391 q 377 1428 367 1418 q 400 1438 387 1438 q 424 1428 414 1438 q 433 1404 433 1418 q 424 1381 433 1391 q 400 1371 414 1371 z "},"Ù":{"ha":1127,"x_min":189,"x_max":939,"o":"m 564 -22 q 282 86 376 -22 q 189 413 189 195 l 189 1146 l 228 1146 l 228 413 q 313 117 228 218 q 564 17 399 17 q 815 117 729 17 q 900 413 900 218 l 900 1146 l 939 1146 l 939 413 q 845 86 939 195 q 564 -22 752 -22 m 604 1256 l 492 1486 l 536 1515 l 635 1275 l 604 1256 z "},"Ű":{"ha":1127,"x_min":189,"x_max":939,"o":"m 564 -22 q 282 86 376 -22 q 189 413 189 195 l 189 1146 l 228 1146 l 228 413 q 313 117 228 218 q 564 17 399 17 q 815 117 729 17 q 900 413 900 218 l 900 1146 l 939 1146 l 939 413 q 845 86 939 195 q 564 -22 752 -22 m 642 1453 l 613 1482 l 727 1600 l 773 1557 l 642 1453 m 453 1453 l 424 1482 l 540 1600 l 584 1557 l 453 1453 z "},"Ū":{"ha":1127,"x_min":189,"x_max":939,"o":"m 564 -22 q 282 86 376 -22 q 189 413 189 195 l 189 1146 l 228 1146 l 228 413 q 313 117 228 218 q 564 17 399 17 q 815 117 729 17 q 900 413 900 218 l 900 1146 l 939 1146 l 939 413 q 845 86 939 195 q 564 -22 752 -22 m 281 1382 l 281 1414 l 847 1414 l 847 1382 l 281 1382 z "},"Ų":{"ha":1127,"x_min":189,"x_max":939,"o":"m 564 -22 q 282 86 376 -22 q 189 413 189 195 l 189 1146 l 228 1146 l 228 413 q 313 117 228 218 q 564 17 399 17 q 815 117 729 17 q 900 413 900 218 l 900 1146 l 939 1146 l 939 413 q 845 86 939 195 q 564 -22 752 -22 m 601 -388 q 476 -342 524 -388 q 427 -233 427 -297 q 461 -125 427 -184 q 556 0 494 -65 l 592 0 q 497 -126 531 -65 q 463 -232 463 -187 q 499 -316 463 -279 q 605 -352 535 -352 q 691 -333 651 -352 q 769 -272 731 -314 l 792 -288 q 709 -361 760 -335 q 601 -388 658 -388 z "},"Ů":{"ha":1127,"x_min":189,"x_max":939,"o":"m 564 -22 q 282 86 376 -22 q 189 413 189 195 l 189 1146 l 228 1146 l 228 413 q 313 117 228 218 q 564 17 399 17 q 815 117 729 17 q 900 413 900 218 l 900 1146 l 939 1146 l 939 413 q 845 86 939 195 q 564 -22 752 -22 m 564 1331 q 496 1346 526 1331 q 447 1388 465 1361 q 429 1450 429 1415 l 429 1450 q 447 1512 429 1485 q 496 1554 465 1539 q 564 1569 526 1569 q 632 1554 601 1569 q 681 1512 663 1539 q 699 1450 699 1485 q 681 1388 699 1415 q 632 1346 663 1361 q 564 1331 601 1331 m 564 1367 q 635 1390 607 1367 q 663 1450 663 1414 q 635 1510 663 1487 q 564 1533 607 1533 q 493 1510 522 1533 q 465 1450 465 1487 l 465 1450 q 493 1390 465 1414 q 564 1367 522 1367 z "},"V":{"ha":1210,"x_min":109,"x_max":1101,"o":"m 590 0 l 109 1146 l 153 1146 l 605 58 l 1056 1146 l 1101 1146 l 620 0 l 590 0 z "},"W":{"ha":1772,"x_min":114,"x_max":1658,"o":"m 460 0 l 114 1146 l 157 1146 l 482 42 l 869 1146 l 903 1146 l 1290 42 l 1615 1146 l 1658 1146 l 1313 0 l 1267 0 l 886 1065 l 506 0 l 460 0 z "},"Ẃ":{"ha":1772,"x_min":114,"x_max":1658,"o":"m 460 0 l 114 1146 l 157 1146 l 482 42 l 869 1146 l 903 1146 l 1290 42 l 1615 1146 l 1658 1146 l 1313 0 l 1267 0 l 886 1065 l 506 0 l 460 0 m 893 1256 l 863 1275 l 961 1515 l 1005 1486 l 893 1256 z "},"Ŵ":{"ha":1772,"x_min":114,"x_max":1658,"o":"m 460 0 l 114 1146 l 157 1146 l 482 42 l 869 1146 l 903 1146 l 1290 42 l 1615 1146 l 1658 1146 l 1313 0 l 1267 0 l 886 1065 l 506 0 l 460 0 m 674 1400 l 653 1429 l 886 1600 l 1119 1429 l 1099 1400 l 886 1556 l 674 1400 z "},"Ẅ":{"ha":1772,"x_min":114,"x_max":1658,"o":"m 460 0 l 114 1146 l 157 1146 l 482 42 l 869 1146 l 903 1146 l 1290 42 l 1615 1146 l 1658 1146 l 1313 0 l 1267 0 l 886 1065 l 506 0 l 460 0 m 1050 1371 q 1027 1381 1037 1371 q 1017 1404 1017 1391 q 1027 1428 1017 1418 q 1050 1438 1037 1438 q 1074 1428 1064 1438 q 1083 1404 1083 1418 q 1074 1381 1083 1391 q 1050 1371 1064 1371 m 722 1371 q 699 1381 709 1371 q 689 1404 689 1391 q 699 1428 689 1418 q 722 1438 709 1438 q 746 1428 736 1438 q 756 1404 756 1418 q 746 1381 756 1391 q 722 1371 736 1371 z "},"Ẁ":{"ha":1772,"x_min":114,"x_max":1658,"o":"m 460 0 l 114 1146 l 157 1146 l 482 42 l 869 1146 l 903 1146 l 1290 42 l 1615 1146 l 1658 1146 l 1313 0 l 1267 0 l 886 1065 l 506 0 l 460 0 m 926 1256 l 815 1486 l 858 1515 l 957 1275 l 926 1256 z "},"X":{"ha":1140,"x_min":105,"x_max":1035,"o":"m 105 0 l 545 619 l 172 1146 l 220 1146 l 570 654 l 920 1146 l 969 1146 l 595 619 l 1035 0 l 985 0 l 570 585 l 155 0 l 105 0 z "},"Y":{"ha":1014,"x_min":106,"x_max":908,"o":"m 488 0 l 488 489 l 106 1146 l 153 1146 l 507 536 l 861 1146 l 908 1146 l 526 489 l 526 0 l 488 0 z "},"Ý":{"ha":1014,"x_min":106,"x_max":908,"o":"m 488 0 l 488 489 l 106 1146 l 153 1146 l 507 536 l 861 1146 l 908 1146 l 526 489 l 526 0 l 488 0 m 514 1256 l 483 1275 l 582 1515 l 626 1486 l 514 1256 z "},"Ŷ":{"ha":1014,"x_min":106,"x_max":908,"o":"m 488 0 l 488 489 l 106 1146 l 153 1146 l 507 536 l 861 1146 l 908 1146 l 526 489 l 526 0 l 488 0 m 294 1400 l 274 1429 l 507 1600 l 740 1429 l 719 1400 l 507 1556 l 294 1400 z "},"Ÿ":{"ha":1014,"x_min":106,"x_max":908,"o":"m 488 0 l 488 489 l 106 1146 l 153 1146 l 507 536 l 861 1146 l 908 1146 l 526 489 l 526 0 l 488 0 m 671 1371 q 648 1381 658 1371 q 638 1404 638 1391 q 648 1428 638 1418 q 671 1438 658 1438 q 694 1428 685 1438 q 704 1404 704 1418 q 694 1381 704 1391 q 671 1371 685 1371 m 343 1371 q 320 1381 330 1371 q 310 1404 310 1391 q 320 1428 310 1418 q 343 1438 330 1438 q 367 1428 357 1438 q 376 1404 376 1418 q 367 1381 376 1391 q 343 1371 357 1371 z "},"Ỳ":{"ha":1014,"x_min":106,"x_max":908,"o":"m 488 0 l 488 489 l 106 1146 l 153 1146 l 507 536 l 861 1146 l 908 1146 l 526 489 l 526 0 l 488 0 m 547 1256 l 435 1486 l 479 1515 l 578 1275 l 547 1256 z "},"Z":{"ha":1117,"x_min":105,"x_max":1009,"o":"m 105 0 l 931 1107 l 183 1107 l 183 1146 l 1009 1146 l 183 39 l 970 39 l 970 0 l 105 0 z "},"Ź":{"ha":1117,"x_min":105,"x_max":1009,"o":"m 105 0 l 931 1107 l 183 1107 l 183 1146 l 1009 1146 l 183 39 l 970 39 l 970 0 l 105 0 m 566 1256 l 535 1275 l 634 1515 l 678 1486 l 566 1256 z "},"Ž":{"ha":1117,"x_min":105,"x_max":1009,"o":"m 105 0 l 931 1107 l 183 1107 l 183 1146 l 1009 1146 l 183 39 l 970 39 l 970 0 l 105 0 m 559 1303 l 326 1474 l 347 1503 l 559 1347 l 772 1503 l 792 1474 l 559 1303 z "},"Ż":{"ha":1117,"x_min":105,"x_max":1009,"o":"m 105 0 l 931 1107 l 183 1107 l 183 1146 l 1009 1146 l 183 39 l 970 39 l 970 0 l 105 0 m 560 1422 q 543 1427 551 1422 q 531 1439 535 1431 q 526 1456 526 1447 q 531 1472 526 1465 q 543 1484 535 1479 q 560 1488 551 1488 q 576 1484 569 1488 q 588 1472 583 1479 q 592 1456 592 1465 q 588 1439 592 1447 q 576 1427 583 1431 q 560 1422 569 1422 z "},"a":{"ha":992,"x_min":115,"x_max":828,"o":"m 470 -22 q 288 27 369 -22 q 161 161 208 76 q 115 356 115 247 q 161 550 115 465 q 288 684 208 635 q 470 733 369 733 q 664 679 578 733 q 790 529 750 624 l 790 711 l 828 711 l 828 0 l 790 0 l 790 182 q 661 32 746 87 q 470 -22 576 -22 m 473 14 q 639 58 567 14 q 752 179 711 101 q 794 356 794 256 q 753 533 794 456 q 639 653 712 610 q 473 697 567 697 q 307 653 380 697 q 193 533 235 610 q 152 356 152 456 q 193 179 152 256 q 307 58 235 102 q 473 14 380 14 z "},"á":{"ha":992,"x_min":115,"x_max":828,"o":"m 470 -22 q 288 27 369 -22 q 161 161 208 76 q 115 356 115 247 q 161 550 115 465 q 288 684 208 635 q 470 733 369 733 q 664 679 578 733 q 790 529 750 624 l 790 711 l 828 711 l 828 0 l 790 0 l 790 182 q 661 32 746 87 q 470 -22 576 -22 m 473 14 q 639 58 567 14 q 752 179 711 101 q 794 356 794 256 q 753 533 794 456 q 639 653 712 610 q 473 697 567 697 q 307 653 380 697 q 193 533 235 610 q 152 356 152 456 q 193 179 152 256 q 307 58 235 102 q 473 14 380 14 m 526 844 l 495 863 l 594 1102 l 638 1074 l 526 844 z "},"ă":{"ha":992,"x_min":115,"x_max":828,"o":"m 470 -22 q 288 27 369 -22 q 161 161 208 76 q 115 356 115 247 q 161 550 115 465 q 288 684 208 635 q 470 733 369 733 q 664 679 578 733 q 790 529 750 624 l 790 711 l 828 711 l 828 0 l 790 0 l 790 182 q 661 32 746 87 q 470 -22 576 -22 m 473 14 q 639 58 567 14 q 752 179 711 101 q 794 356 794 256 q 753 533 794 456 q 639 653 712 610 q 473 697 567 697 q 307 653 380 697 q 193 533 235 610 q 152 356 152 456 q 193 179 152 256 q 307 58 235 102 q 473 14 380 14 m 519 968 q 395 994 451 968 q 300 1068 339 1021 q 248 1179 262 1116 l 283 1188 q 327 1091 294 1133 q 409 1027 360 1050 q 519 1004 458 1004 q 628 1027 578 1004 q 710 1091 677 1050 q 755 1188 743 1133 l 790 1179 q 737 1068 776 1116 q 642 994 699 1021 q 519 968 586 968 z "},"â":{"ha":992,"x_min":115,"x_max":828,"o":"m 470 -22 q 288 27 369 -22 q 161 161 208 76 q 115 356 115 247 q 161 550 115 465 q 288 684 208 635 q 470 733 369 733 q 664 679 578 733 q 790 529 750 624 l 790 711 l 828 711 l 828 0 l 790 0 l 790 182 q 661 32 746 87 q 470 -22 576 -22 m 473 14 q 639 58 567 14 q 752 179 711 101 q 794 356 794 256 q 753 533 794 456 q 639 653 712 610 q 473 697 567 697 q 307 653 380 697 q 193 533 235 610 q 152 356 152 456 q 193 179 152 256 q 307 58 235 102 q 473 14 380 14 m 306 988 l 285 1017 l 519 1188 l 752 1017 l 731 988 l 519 1143 l 306 988 z "},"ä":{"ha":992,"x_min":115,"x_max":828,"o":"m 470 -22 q 288 27 369 -22 q 161 161 208 76 q 115 356 115 247 q 161 550 115 465 q 288 684 208 635 q 470 733 369 733 q 664 679 578 733 q 790 529 750 624 l 790 711 l 828 711 l 828 0 l 790 0 l 790 182 q 661 32 746 87 q 470 -22 576 -22 m 473 14 q 639 58 567 14 q 752 179 711 101 q 794 356 794 256 q 753 533 794 456 q 639 653 712 610 q 473 697 567 697 q 307 653 380 697 q 193 533 235 610 q 152 356 152 456 q 193 179 152 256 q 307 58 235 102 q 473 14 380 14 m 683 958 q 659 968 669 958 q 649 992 649 978 q 659 1015 649 1006 q 683 1025 669 1025 q 706 1015 697 1025 q 716 992 716 1006 q 706 968 716 978 q 683 958 697 958 m 355 958 q 332 968 342 958 q 322 992 322 978 q 332 1015 322 1006 q 355 1025 342 1025 q 378 1015 369 1025 q 388 992 388 1006 q 378 968 388 978 q 355 958 369 958 z "},"à":{"ha":992,"x_min":115,"x_max":828,"o":"m 470 -22 q 288 27 369 -22 q 161 161 208 76 q 115 356 115 247 q 161 550 115 465 q 288 684 208 635 q 470 733 369 733 q 664 679 578 733 q 790 529 750 624 l 790 711 l 828 711 l 828 0 l 790 0 l 790 182 q 661 32 746 87 q 470 -22 576 -22 m 473 14 q 639 58 567 14 q 752 179 711 101 q 794 356 794 256 q 753 533 794 456 q 639 653 712 610 q 473 697 567 697 q 307 653 380 697 q 193 533 235 610 q 152 356 152 456 q 193 179 152 256 q 307 58 235 102 q 473 14 380 14 m 559 844 l 447 1074 l 491 1102 l 590 863 l 559 844 z "},"ā":{"ha":992,"x_min":115,"x_max":828,"o":"m 470 -22 q 288 27 369 -22 q 161 161 208 76 q 115 356 115 247 q 161 550 115 465 q 288 684 208 635 q 470 733 369 733 q 664 679 578 733 q 790 529 750 624 l 790 711 l 828 711 l 828 0 l 790 0 l 790 182 q 661 32 746 87 q 470 -22 576 -22 m 473 14 q 639 58 567 14 q 752 179 711 101 q 794 356 794 256 q 753 533 794 456 q 639 653 712 610 q 473 697 567 697 q 307 653 380 697 q 193 533 235 610 q 152 356 152 456 q 193 179 152 256 q 307 58 235 102 q 473 14 380 14 m 235 969 l 235 1001 l 802 1001 l 802 969 l 235 969 z "},"ą":{"ha":992,"x_min":115,"x_max":1029,"o":"m 470 -22 q 288 27 369 -22 q 161 161 208 76 q 115 356 115 247 q 161 550 115 465 q 288 684 208 635 q 470 733 369 733 q 664 679 578 733 q 790 529 750 624 l 790 711 l 828 711 l 828 0 l 790 0 l 790 182 q 661 32 746 87 q 470 -22 576 -22 m 473 14 q 639 58 567 14 q 752 179 711 101 q 794 356 794 256 q 753 533 794 456 q 639 653 712 610 q 473 697 567 697 q 307 653 380 697 q 193 533 235 610 q 152 356 152 456 q 193 179 152 256 q 307 58 235 102 q 473 14 380 14 m 838 -388 q 713 -342 761 -388 q 664 -233 664 -297 q 698 -125 664 -184 q 793 0 731 -65 l 828 0 q 734 -126 767 -65 q 700 -232 700 -187 q 736 -316 700 -279 q 842 -352 772 -352 q 927 -333 888 -352 q 1006 -272 967 -314 l 1029 -288 q 946 -361 997 -335 q 838 -388 894 -388 z "},"å":{"ha":992,"x_min":115,"x_max":828,"o":"m 470 -22 q 288 27 369 -22 q 161 161 208 76 q 115 356 115 247 q 161 550 115 465 q 288 684 208 635 q 470 733 369 733 q 664 679 578 733 q 790 529 750 624 l 790 711 l 828 711 l 828 0 l 790 0 l 790 182 q 661 32 746 87 q 470 -22 576 -22 m 473 14 q 639 58 567 14 q 752 179 711 101 q 794 356 794 256 q 753 533 794 456 q 639 653 712 610 q 473 697 567 697 q 307 653 380 697 q 193 533 235 610 q 152 356 152 456 q 193 179 152 256 q 307 58 235 102 q 473 14 380 14 m 519 918 q 451 933 481 918 q 402 976 420 949 q 384 1038 384 1003 l 384 1038 q 402 1099 384 1072 q 451 1142 420 1126 q 519 1157 481 1157 q 587 1142 556 1157 q 635 1099 617 1126 q 653 1038 653 1072 q 635 976 653 1003 q 587 933 617 949 q 519 918 556 918 m 519 954 q 590 978 562 954 q 617 1038 617 1001 q 590 1098 617 1074 q 519 1121 562 1121 q 448 1098 476 1121 q 420 1038 420 1074 l 420 1038 q 448 978 420 1001 q 519 954 476 954 z "},"ã":{"ha":992,"x_min":115,"x_max":851,"o":"m 470 -22 q 288 27 369 -22 q 161 161 208 76 q 115 356 115 247 q 161 550 115 465 q 288 684 208 635 q 470 733 369 733 q 664 679 578 733 q 790 529 750 624 l 790 711 l 828 711 l 828 0 l 790 0 l 790 182 q 661 32 746 87 q 470 -22 576 -22 m 473 14 q 639 58 567 14 q 752 179 711 101 q 794 356 794 256 q 753 533 794 456 q 639 653 712 610 q 473 697 567 697 q 307 653 380 697 q 193 533 235 610 q 152 356 152 456 q 193 179 152 256 q 307 58 235 102 q 473 14 380 14 m 657 938 q 576 954 609 938 q 514 993 542 971 q 455 1032 486 1015 q 380 1049 424 1049 q 280 1016 322 1049 q 213 940 238 984 l 187 964 q 265 1049 217 1014 q 380 1083 313 1083 q 461 1067 428 1083 q 523 1028 495 1050 q 583 989 551 1006 q 657 972 614 972 q 751 1000 708 972 q 824 1081 794 1028 l 851 1057 q 797 991 827 1018 q 731 951 767 965 q 657 938 696 938 z "},"æ":{"ha":1457,"x_min":101,"x_max":1357,"o":"m 383 -22 q 242 6 306 -22 q 140 87 178 35 q 101 208 101 139 q 139 330 101 277 q 241 411 176 382 q 385 440 305 440 q 528 411 464 440 q 628 332 592 382 l 628 432 q 564 629 628 559 q 388 699 499 699 q 300 685 338 699 q 230 650 261 672 q 172 597 199 627 l 144 619 q 257 707 194 681 q 390 733 320 733 q 579 669 512 733 q 660 514 646 605 q 793 672 705 611 q 992 733 881 733 q 1174 683 1092 733 q 1307 548 1257 633 q 1357 360 1356 463 q 1357 358 1357 358 q 1357 356 1357 357 l 663 356 q 707 180 663 257 q 828 58 751 102 q 1006 14 906 14 q 1176 54 1099 14 q 1297 167 1253 94 l 1328 147 q 1192 22 1277 67 q 1006 -22 1108 -22 q 803 31 893 -22 q 667 179 713 85 q 614 73 653 118 q 515 2 574 27 q 383 -22 456 -22 m 385 14 q 509 38 453 14 q 599 107 565 63 q 632 210 632 151 q 599 313 632 269 q 509 380 565 356 q 385 404 453 404 q 260 380 317 404 q 171 313 204 356 q 138 210 138 269 q 171 107 138 151 q 260 38 204 63 q 385 14 317 14 m 664 390 l 1318 390 q 1264 547 1310 477 q 1148 657 1219 616 q 992 697 1077 697 q 835 657 907 697 q 718 547 764 616 q 664 390 672 477 z "},"b":{"ha":992,"x_min":163,"x_max":877,"o":"m 522 -22 q 331 32 415 -22 q 202 182 246 87 l 202 0 l 163 0 l 163 1194 l 202 1194 l 202 529 q 331 679 246 624 q 522 733 415 733 q 703 684 623 733 q 831 550 784 635 q 877 356 877 465 q 831 161 877 247 q 703 27 784 76 q 522 -22 623 -22 m 519 14 q 684 58 612 14 q 798 179 757 102 q 840 356 840 256 q 798 533 840 456 q 685 653 757 610 q 519 697 613 697 q 353 653 425 697 q 239 533 281 610 q 198 356 198 456 q 239 179 198 256 q 353 58 281 101 q 519 14 426 14 z "},"c":{"ha":824,"x_min":113,"x_max":738,"o":"m 492 -22 q 343 6 413 -22 q 223 84 274 33 q 142 204 171 135 q 113 356 113 273 q 142 508 113 439 q 223 628 171 577 q 343 706 274 678 q 492 733 413 733 q 626 711 563 733 q 738 650 690 690 l 715 624 q 492 697 622 697 q 316 653 393 697 q 194 532 238 609 q 149 356 149 455 q 193 180 149 258 q 315 58 238 103 q 493 14 392 14 q 613 33 556 14 q 713 88 669 51 l 738 61 q 626 0 688 22 q 492 -22 563 -22 z "},"ć":{"ha":824,"x_min":113,"x_max":738,"o":"m 492 -22 q 343 6 413 -22 q 223 84 274 33 q 142 204 171 135 q 113 356 113 273 q 142 508 113 439 q 223 628 171 577 q 343 706 274 678 q 492 733 413 733 q 626 711 563 733 q 738 650 690 690 l 715 624 q 492 697 622 697 q 316 653 393 697 q 194 532 238 609 q 149 356 149 455 q 193 180 149 258 q 315 58 238 103 q 493 14 392 14 q 613 33 556 14 q 713 88 669 51 l 738 61 q 626 0 688 22 q 492 -22 563 -22 m 499 844 l 469 863 l 567 1102 l 611 1074 l 499 844 z "},"č":{"ha":824,"x_min":113,"x_max":738,"o":"m 492 -22 q 343 6 413 -22 q 223 84 274 33 q 142 204 171 135 q 113 356 113 273 q 142 508 113 439 q 223 628 171 577 q 343 706 274 678 q 492 733 413 733 q 626 711 563 733 q 738 650 690 690 l 715 624 q 492 697 622 697 q 316 653 393 697 q 194 532 238 609 q 149 356 149 455 q 193 180 149 258 q 315 58 238 103 q 493 14 392 14 q 613 33 556 14 q 713 88 669 51 l 738 61 q 626 0 688 22 q 492 -22 563 -22 m 492 890 l 259 1061 l 280 1090 l 492 935 l 705 1090 l 726 1061 l 492 890 z "},"ç":{"ha":824,"x_min":113,"x_max":738,"o":"m 492 -22 q 343 6 413 -22 q 223 84 274 33 q 142 204 171 135 q 113 356 113 273 q 142 508 113 439 q 223 628 171 577 q 343 706 274 678 q 492 733 413 733 q 626 711 563 733 q 738 650 690 690 l 715 624 q 492 697 622 697 q 316 653 393 697 q 194 532 238 609 q 149 356 149 455 q 193 180 149 258 q 315 58 238 103 q 493 14 392 14 q 613 33 556 14 q 713 88 669 51 l 738 61 q 626 0 688 22 q 492 -22 563 -22 m 483 -382 q 383 -357 427 -382 q 317 -287 340 -331 l 345 -271 q 484 -348 386 -348 q 575 -319 540 -348 q 610 -245 610 -291 q 582 -177 610 -203 q 509 -151 554 -151 q 453 -160 483 -151 q 401 -181 423 -168 l 399 -180 l 460 7 l 496 7 l 453 -125 q 485 -119 474 -121 q 508 -117 497 -117 q 606 -153 567 -117 q 644 -244 644 -189 q 599 -343 644 -305 q 483 -382 553 -382 z "},"ċ":{"ha":824,"x_min":113,"x_max":738,"o":"m 492 -22 q 343 6 413 -22 q 223 84 274 33 q 142 204 171 135 q 113 356 113 273 q 142 508 113 439 q 223 628 171 577 q 343 706 274 678 q 492 733 413 733 q 626 711 563 733 q 738 650 690 690 l 715 624 q 492 697 622 697 q 316 653 393 697 q 194 532 238 609 q 149 356 149 455 q 193 180 149 258 q 315 58 238 103 q 493 14 392 14 q 613 33 556 14 q 713 88 669 51 l 738 61 q 626 0 688 22 q 492 -22 563 -22 m 493 1010 q 476 1014 484 1010 q 464 1026 469 1019 q 460 1043 460 1034 q 464 1059 460 1052 q 476 1071 469 1067 q 493 1076 484 1076 q 509 1071 502 1076 q 521 1059 517 1067 q 526 1043 526 1052 q 521 1026 526 1034 q 509 1014 517 1019 q 493 1010 502 1010 z "},"d":{"ha":992,"x_min":115,"x_max":828,"o":"m 470 -22 q 288 27 369 -22 q 161 161 208 76 q 115 356 115 247 q 161 550 115 465 q 288 684 208 635 q 470 733 369 733 q 661 679 576 733 q 790 529 746 624 l 790 1196 l 828 1196 l 828 0 l 790 0 l 790 182 q 661 32 746 87 q 470 -22 576 -22 m 473 14 q 639 58 567 14 q 752 179 711 101 q 794 356 794 256 q 753 533 794 456 q 639 653 712 610 q 473 697 567 697 q 307 653 380 697 q 193 533 235 610 q 152 356 152 456 q 193 179 152 256 q 307 58 235 102 q 473 14 380 14 z "},"ð":{"ha":1004,"x_min":113,"x_max":874,"o":"m 494 -22 q 300 26 386 -22 q 164 159 214 74 q 113 356 113 244 q 142 509 113 440 q 223 628 171 578 q 344 706 274 678 q 494 733 413 733 q 688 685 601 733 q 823 554 774 638 q 728 848 797 723 q 555 1057 658 974 l 448 950 l 420 978 l 523 1081 q 434 1136 481 1112 q 335 1179 387 1160 l 349 1215 q 456 1168 406 1194 q 551 1108 506 1142 l 658 1215 l 685 1188 l 581 1085 q 709 948 654 1024 q 801 778 764 871 q 856 580 838 686 q 874 356 874 474 q 824 159 874 244 q 688 26 774 74 q 494 -22 601 -22 m 494 14 q 671 58 593 14 q 793 179 749 102 q 838 356 838 256 q 793 532 838 455 q 671 653 749 609 q 494 697 593 697 q 316 653 394 697 q 194 532 238 609 q 149 356 149 455 q 194 179 149 256 q 316 58 238 102 q 494 14 394 14 z "},"ď":{"ha":992,"x_min":115,"x_max":828,"o":"m 470 -22 q 288 27 369 -22 q 161 161 208 76 q 115 356 115 247 q 161 550 115 465 q 288 684 208 635 q 470 733 369 733 q 661 679 576 733 q 790 529 746 624 l 790 1196 l 828 1196 l 828 0 l 790 0 l 790 182 q 661 32 746 87 q 470 -22 576 -22 m 473 14 q 639 58 567 14 q 752 179 711 101 q 794 356 794 256 q 753 533 794 456 q 639 653 712 610 q 473 697 567 697 q 307 653 380 697 q 193 533 235 610 q 152 356 152 456 q 193 179 152 256 q 307 58 235 102 q 473 14 380 14 m 456 1036 l 223 1207 l 244 1236 l 456 1081 l 669 1236 l 690 1207 l 456 1036 z "},"đ":{"ha":992,"x_min":115,"x_max":967,"o":"m 472 -22 q 290 26 371 -22 q 162 159 209 74 q 115 356 115 244 l 115 356 q 162 552 115 467 q 290 685 209 637 q 472 733 371 733 q 663 678 579 733 q 790 529 747 623 l 790 936 l 465 936 l 465 968 l 790 968 l 790 1196 l 828 1196 l 828 968 l 967 968 l 967 936 l 828 936 l 828 0 l 790 0 l 790 182 q 663 33 747 88 q 472 -22 579 -22 m 473 14 q 639 58 566 14 q 752 178 711 101 q 794 356 794 256 q 752 533 794 456 q 639 654 711 610 q 473 697 566 697 q 308 654 381 697 q 194 533 235 610 q 152 356 152 456 l 152 356 q 194 178 152 256 q 308 58 235 101 q 473 14 381 14 z "},"e":{"ha":943,"x_min":113,"x_max":843,"o":"m 492 -22 q 295 27 381 -22 q 161 161 209 77 q 113 351 113 246 q 141 502 113 432 q 220 623 170 572 q 337 704 271 675 q 477 733 403 733 q 652 687 572 733 q 784 560 733 640 q 842 377 835 479 q 843 366 843 371 q 843 356 843 362 l 149 356 q 193 180 149 257 q 315 58 237 102 q 492 14 392 14 q 662 54 585 14 q 783 167 739 94 l 814 147 q 679 22 763 67 q 492 -22 594 -22 m 150 390 l 804 390 q 750 547 796 478 q 633 657 704 617 q 478 697 563 697 q 322 657 393 697 q 204 547 250 617 q 150 390 158 478 z "},"é":{"ha":943,"x_min":113,"x_max":843,"o":"m 492 -22 q 295 27 381 -22 q 161 161 209 77 q 113 351 113 246 q 141 502 113 432 q 220 623 170 572 q 337 704 271 675 q 477 733 403 733 q 652 687 572 733 q 784 560 733 640 q 842 377 835 479 q 843 366 843 371 q 843 356 843 362 l 149 356 q 193 180 149 257 q 315 58 237 102 q 492 14 392 14 q 662 54 585 14 q 783 167 739 94 l 814 147 q 679 22 763 67 q 492 -22 594 -22 m 150 390 l 804 390 q 750 547 796 478 q 633 657 704 617 q 478 697 563 697 q 322 657 393 697 q 204 547 250 617 q 150 390 158 478 m 478 823 l 448 842 l 547 1081 l 590 1053 l 478 823 z "},"ě":{"ha":943,"x_min":113,"x_max":843,"o":"m 492 -22 q 295 27 381 -22 q 161 161 209 77 q 113 351 113 246 q 141 502 113 432 q 220 623 170 572 q 337 704 271 675 q 477 733 403 733 q 652 687 572 733 q 784 560 733 640 q 842 377 835 479 q 843 366 843 371 q 843 356 843 362 l 149 356 q 193 180 149 257 q 315 58 237 102 q 492 14 392 14 q 662 54 585 14 q 783 167 739 94 l 814 147 q 679 22 763 67 q 492 -22 594 -22 m 150 390 l 804 390 q 750 547 796 478 q 633 657 704 617 q 478 697 563 697 q 322 657 393 697 q 204 547 250 617 q 150 390 158 478 m 472 869 l 238 1040 l 259 1069 l 472 914 l 684 1069 l 705 1040 l 472 869 z "},"ê":{"ha":943,"x_min":113,"x_max":843,"o":"m 492 -22 q 295 27 381 -22 q 161 161 209 77 q 113 351 113 246 q 141 502 113 432 q 220 623 170 572 q 337 704 271 675 q 477 733 403 733 q 652 687 572 733 q 784 560 733 640 q 842 377 835 479 q 843 366 843 371 q 843 356 843 362 l 149 356 q 193 180 149 257 q 315 58 237 102 q 492 14 392 14 q 662 54 585 14 q 783 167 739 94 l 814 147 q 679 22 763 67 q 492 -22 594 -22 m 150 390 l 804 390 q 750 547 796 478 q 633 657 704 617 q 478 697 563 697 q 322 657 393 697 q 204 547 250 617 q 150 390 158 478 m 259 967 l 238 996 l 472 1167 l 705 996 l 684 967 l 472 1122 l 259 967 z "},"ë":{"ha":943,"x_min":113,"x_max":843,"o":"m 492 -22 q 295 27 381 -22 q 161 161 209 77 q 113 351 113 246 q 141 502 113 432 q 220 623 170 572 q 337 704 271 675 q 477 733 403 733 q 652 687 572 733 q 784 560 733 640 q 842 377 835 479 q 843 366 843 371 q 843 356 843 362 l 149 356 q 193 180 149 257 q 315 58 237 102 q 492 14 392 14 q 662 54 585 14 q 783 167 739 94 l 814 147 q 679 22 763 67 q 492 -22 594 -22 m 150 390 l 804 390 q 750 547 796 478 q 633 657 704 617 q 478 697 563 697 q 322 657 393 697 q 204 547 250 617 q 150 390 158 478 m 635 938 q 612 948 622 938 q 602 971 602 958 q 612 994 602 985 q 635 1004 622 1004 q 659 994 649 1004 q 669 971 669 985 q 659 948 669 958 q 635 938 649 938 m 308 938 q 284 948 294 938 q 274 971 274 958 q 284 994 274 985 q 308 1004 294 1004 q 331 994 322 1004 q 341 971 341 985 q 331 948 341 958 q 308 938 322 938 z "},"ė":{"ha":943,"x_min":113,"x_max":843,"o":"m 492 -22 q 295 27 381 -22 q 161 161 209 77 q 113 351 113 246 q 141 502 113 432 q 220 623 170 572 q 337 704 271 675 q 477 733 403 733 q 652 687 572 733 q 784 560 733 640 q 842 377 835 479 q 843 366 843 371 q 843 356 843 362 l 149 356 q 193 180 149 257 q 315 58 237 102 q 492 14 392 14 q 662 54 585 14 q 783 167 739 94 l 814 147 q 679 22 763 67 q 492 -22 594 -22 m 150 390 l 804 390 q 750 547 796 478 q 633 657 704 617 q 478 697 563 697 q 322 657 393 697 q 204 547 250 617 q 150 390 158 478 m 472 989 q 456 993 463 989 q 443 1006 448 998 q 439 1022 439 1013 q 443 1039 439 1031 q 456 1050 448 1046 q 472 1055 463 1055 q 489 1050 481 1055 q 500 1039 496 1046 q 505 1022 505 1031 q 500 1006 505 1013 q 489 993 496 998 q 472 989 481 989 z "},"è":{"ha":943,"x_min":113,"x_max":843,"o":"m 492 -22 q 295 27 381 -22 q 161 161 209 77 q 113 351 113 246 q 141 502 113 432 q 220 623 170 572 q 337 704 271 675 q 477 733 403 733 q 652 687 572 733 q 784 560 733 640 q 842 377 835 479 q 843 366 843 371 q 843 356 843 362 l 149 356 q 193 180 149 257 q 315 58 237 102 q 492 14 392 14 q 662 54 585 14 q 783 167 739 94 l 814 147 q 679 22 763 67 q 492 -22 594 -22 m 150 390 l 804 390 q 750 547 796 478 q 633 657 704 617 q 478 697 563 697 q 322 657 393 697 q 204 547 250 617 q 150 390 158 478 m 512 823 l 400 1053 l 444 1081 l 542 842 l 512 823 z "},"ē":{"ha":943,"x_min":113,"x_max":843,"o":"m 492 -22 q 295 27 381 -22 q 161 161 209 77 q 113 351 113 246 q 141 502 113 432 q 220 623 170 572 q 337 704 271 675 q 477 733 403 733 q 652 687 572 733 q 784 560 733 640 q 842 377 835 479 q 843 366 843 371 q 843 356 843 362 l 149 356 q 193 180 149 257 q 315 58 237 102 q 492 14 392 14 q 662 54 585 14 q 783 167 739 94 l 814 147 q 679 22 763 67 q 492 -22 594 -22 m 150 390 l 804 390 q 750 547 796 478 q 633 657 704 617 q 478 697 563 697 q 322 657 393 697 q 204 547 250 617 q 150 390 158 478 m 188 949 l 188 981 l 755 981 l 755 949 l 188 949 z "},"ę":{"ha":943,"x_min":113,"x_max":843,"o":"m 492 -22 q 295 27 381 -22 q 161 161 209 77 q 113 351 113 246 q 141 502 113 432 q 220 623 170 572 q 337 704 271 675 q 477 733 403 733 q 652 687 572 733 q 784 560 733 640 q 842 377 835 479 q 843 366 843 371 q 843 356 843 362 l 149 356 q 193 180 149 257 q 315 58 237 102 q 492 14 392 14 q 662 54 585 14 q 783 167 739 94 l 814 147 q 679 22 763 67 q 492 -22 594 -22 m 150 390 l 804 390 q 750 547 796 478 q 633 657 704 617 q 478 697 563 697 q 322 657 393 697 q 204 547 250 617 q 150 390 158 478 m 519 -388 q 394 -342 443 -388 q 346 -233 346 -297 q 380 -125 346 -184 q 475 0 413 -65 l 510 0 q 416 -126 449 -65 q 382 -232 382 -187 q 418 -316 382 -279 q 524 -352 453 -352 q 609 -333 569 -352 q 688 -272 649 -314 l 711 -288 q 628 -361 679 -335 q 519 -388 576 -388 z "},"f":{"ha":465,"x_min":110,"x_max":433,"o":"m 168 0 l 168 682 l 110 682 l 110 711 l 168 711 l 168 1010 q 186 1124 168 1078 q 240 1192 204 1169 q 329 1215 276 1215 q 388 1207 362 1215 q 433 1183 413 1199 l 419 1154 q 335 1182 388 1182 q 266 1163 294 1182 q 222 1106 237 1143 q 207 1017 207 1069 l 207 711 l 396 711 l 396 682 l 207 682 l 207 0 l 168 0 z "},"g":{"ha":992,"x_min":104,"x_max":829,"o":"m 460 -382 q 240 -329 331 -382 q 104 -175 150 -276 l 140 -161 q 262 -299 176 -247 q 461 -350 348 -350 q 629 -313 554 -350 q 747 -206 703 -276 q 790 -33 790 -135 l 790 182 q 662 32 747 87 q 471 -22 577 -22 q 289 27 369 -22 q 162 161 208 76 q 115 356 115 247 q 162 550 115 465 q 289 684 208 635 q 471 733 369 733 q 662 679 577 733 q 790 529 747 624 l 790 711 l 829 711 l 829 -19 q 782 -225 829 -144 q 651 -343 734 -305 q 460 -382 567 -382 m 474 14 q 640 58 567 14 q 753 179 712 101 q 794 356 794 256 q 753 533 794 456 q 640 653 713 610 q 474 697 567 697 q 308 653 381 697 q 194 533 235 610 q 153 356 153 456 q 194 179 153 256 q 308 58 235 102 q 474 14 381 14 z "},"ğ":{"ha":992,"x_min":104,"x_max":829,"o":"m 460 -382 q 240 -329 331 -382 q 104 -175 150 -276 l 140 -161 q 262 -299 176 -247 q 461 -350 348 -350 q 629 -313 554 -350 q 747 -206 703 -276 q 790 -33 790 -135 l 790 182 q 662 32 747 87 q 471 -22 577 -22 q 289 27 369 -22 q 162 161 208 76 q 115 356 115 247 q 162 550 115 465 q 289 684 208 635 q 471 733 369 733 q 662 679 577 733 q 790 529 747 624 l 790 711 l 829 711 l 829 -19 q 782 -225 829 -144 q 651 -343 734 -305 q 460 -382 567 -382 m 474 14 q 640 58 567 14 q 753 179 712 101 q 794 356 794 256 q 753 533 794 456 q 640 653 713 610 q 474 697 567 697 q 308 653 381 697 q 194 533 235 610 q 153 356 153 456 q 194 179 153 256 q 308 58 235 102 q 474 14 381 14 m 471 968 q 347 994 403 968 q 252 1068 291 1021 q 200 1179 214 1116 l 235 1188 q 280 1091 247 1133 q 361 1027 313 1050 q 471 1004 410 1004 q 580 1027 531 1004 q 662 1091 629 1050 q 707 1188 695 1133 l 742 1179 q 689 1068 728 1116 q 594 994 651 1021 q 471 968 538 968 z "},"ģ":{"ha":992,"x_min":104,"x_max":829,"o":"m 460 -382 q 240 -329 331 -382 q 104 -175 150 -276 l 140 -161 q 262 -299 176 -247 q 461 -350 348 -350 q 629 -313 554 -350 q 747 -206 703 -276 q 790 -33 790 -135 l 790 182 q 662 32 747 87 q 471 -22 577 -22 q 289 27 369 -22 q 162 161 208 76 q 115 356 115 247 q 162 550 115 465 q 289 684 208 635 q 471 733 369 733 q 662 679 577 733 q 790 529 747 624 l 790 711 l 829 711 l 829 -19 q 782 -225 829 -144 q 651 -343 734 -305 q 460 -382 567 -382 m 474 14 q 640 58 567 14 q 753 179 712 101 q 794 356 794 256 q 753 533 794 456 q 640 653 713 610 q 474 697 567 697 q 308 653 381 697 q 194 533 235 610 q 153 356 153 456 q 194 179 153 256 q 308 58 235 102 q 474 14 381 14 m 470 968 q 445 980 453 968 q 438 1016 438 992 q 453 1089 438 1051 q 489 1142 469 1127 l 496 1135 q 477 1091 483 1115 q 471 1035 471 1067 q 494 1025 485 1035 q 504 1001 504 1015 q 495 977 504 987 q 470 968 485 968 z "},"ġ":{"ha":992,"x_min":104,"x_max":829,"o":"m 460 -382 q 240 -329 331 -382 q 104 -175 150 -276 l 140 -161 q 262 -299 176 -247 q 461 -350 348 -350 q 629 -313 554 -350 q 747 -206 703 -276 q 790 -33 790 -135 l 790 182 q 662 32 747 87 q 471 -22 577 -22 q 289 27 369 -22 q 162 161 208 76 q 115 356 115 247 q 162 550 115 465 q 289 684 208 635 q 471 733 369 733 q 662 679 577 733 q 790 529 747 624 l 790 711 l 829 711 l 829 -19 q 782 -225 829 -144 q 651 -343 734 -305 q 460 -382 567 -382 m 474 14 q 640 58 567 14 q 753 179 712 101 q 794 356 794 256 q 753 533 794 456 q 640 653 713 610 q 474 697 567 697 q 308 653 381 697 q 194 533 235 610 q 153 356 153 456 q 194 179 153 256 q 308 58 235 102 q 474 14 381 14 m 472 1010 q 455 1014 463 1010 q 443 1026 447 1019 q 438 1043 438 1034 q 443 1059 438 1052 q 455 1071 447 1067 q 472 1076 463 1076 q 488 1071 481 1076 q 500 1059 495 1067 q 504 1043 504 1052 q 500 1026 504 1034 q 488 1014 495 1019 q 472 1010 481 1010 z "},"h":{"ha":853,"x_min":163,"x_max":702,"o":"m 163 0 l 163 1196 l 202 1196 l 202 604 q 285 695 224 656 q 442 733 346 733 q 583 700 525 733 q 672 601 641 667 q 702 440 702 536 l 702 0 l 663 0 l 663 435 q 605 631 663 564 q 440 699 547 699 q 311 668 365 699 q 230 590 258 638 q 202 488 202 542 l 202 0 l 163 0 z "},"ħ":{"ha":853,"x_min":64,"x_max":702,"o":"m 163 0 l 163 1196 l 202 1196 l 202 604 q 285 695 224 656 q 442 733 346 733 q 583 700 525 733 q 672 601 641 667 q 702 440 702 536 l 702 0 l 663 0 l 663 435 q 605 631 663 564 q 440 699 547 699 q 311 668 365 699 q 230 590 258 638 q 202 488 202 542 l 202 0 l 163 0 m 64 929 l 64 965 l 351 965 l 351 929 l 64 929 z "},"i":{"ha":365,"x_min":149,"x_max":215,"o":"m 163 0 l 163 711 l 201 711 l 201 0 l 163 0 m 182 850 q 165 855 173 850 q 153 867 158 859 q 149 883 149 874 q 153 900 149 892 q 165 911 158 907 q 182 916 173 916 q 198 911 191 916 q 210 900 206 907 q 215 883 215 892 q 210 867 215 874 q 198 855 206 859 q 182 850 191 850 z "},"ı":{"ha":365,"x_min":163,"x_max":202,"o":"m 163 0 l 163 711 l 202 711 l 202 0 l 163 0 z "},"í":{"ha":365,"x_min":159,"x_max":301,"o":"m 163 0 l 163 711 l 202 711 l 202 0 l 163 0 m 190 823 l 159 842 l 258 1081 l 301 1053 l 190 823 z "},"î":{"ha":365,"x_min":-51,"x_max":416,"o":"m 163 0 l 163 711 l 202 711 l 202 0 l 163 0 m -30 967 l -51 996 l 183 1167 l 416 996 l 395 967 l 183 1122 l -30 967 z "},"ï":{"ha":365,"x_min":-15,"x_max":380,"o":"m 163 0 l 163 711 l 202 711 l 202 0 l 163 0 m 347 938 q 323 948 333 938 q 313 971 313 958 q 323 994 313 985 q 347 1004 333 1004 q 370 994 360 1004 q 380 971 380 985 q 370 948 380 958 q 347 938 360 938 m 19 938 q -5 948 6 938 q -15 971 -15 958 q -5 994 -15 985 q 19 1004 6 1004 q 42 994 33 1004 q 52 971 52 985 q 42 948 52 958 q 19 938 33 938 z "},"ì":{"ha":365,"x_min":111,"x_max":253,"o":"m 163 0 l 163 711 l 202 711 l 202 0 l 163 0 m 223 823 l 111 1053 l 155 1081 l 253 842 l 223 823 z "},"ī":{"ha":365,"x_min":-101,"x_max":466,"o":"m 163 0 l 163 711 l 202 711 l 202 0 l 163 0 m -101 949 l -101 981 l 466 981 l 466 949 l -101 949 z "},"į":{"ha":365,"x_min":38,"x_max":403,"o":"m 163 0 l 163 711 l 202 711 l 202 0 l 163 0 m 183 989 q 167 993 174 989 q 155 1006 159 998 q 150 1022 150 1013 q 155 1039 150 1031 q 167 1050 159 1046 q 183 1055 174 1055 q 200 1050 192 1055 q 211 1039 207 1046 q 216 1022 216 1031 q 211 1006 216 1013 q 200 993 207 998 q 183 989 192 989 m 211 -388 q 86 -342 135 -388 q 38 -233 38 -297 q 71 -125 38 -184 q 167 0 105 -65 l 202 0 q 107 -126 141 -65 q 74 -232 74 -187 q 109 -316 74 -279 q 215 -352 145 -352 q 301 -333 261 -352 q 379 -272 341 -314 l 403 -288 q 319 -361 371 -335 q 211 -388 268 -388 z "},"j":{"ha":366,"x_min":-62,"x_max":217,"o":"m 40 -382 q -18 -374 8 -382 q -62 -350 -44 -366 l -51 -319 q 36 -349 -20 -349 q 164 -183 164 -349 l 164 711 l 203 711 l 203 -176 q 162 -331 203 -279 q 40 -382 122 -382 m 183 851 q 167 856 174 851 q 155 868 159 860 q 150 885 150 876 q 155 901 150 894 q 167 914 159 909 q 183 918 174 918 q 200 914 192 918 q 212 901 208 909 q 217 885 217 894 q 212 868 217 876 q 200 856 208 860 q 183 851 192 851 z "},"k":{"ha":690,"x_min":163,"x_max":567,"o":"m 163 0 l 163 1194 l 202 1194 l 202 403 l 498 711 l 549 711 l 239 385 l 567 0 l 517 0 l 202 369 l 202 0 l 163 0 z "},"ķ":{"ha":690,"x_min":163,"x_max":567,"o":"m 163 0 l 163 1194 l 202 1194 l 202 403 l 498 711 l 549 711 l 239 385 l 567 0 l 517 0 l 202 369 l 202 0 l 163 0 m 323 -308 l 314 -300 q 338 -246 330 -276 q 345 -176 345 -217 q 316 -164 328 -176 q 304 -135 304 -152 q 316 -106 304 -117 q 346 -94 327 -94 q 376 -109 366 -94 q 386 -153 386 -123 q 367 -243 386 -196 q 323 -308 347 -290 z "},"l":{"ha":365,"x_min":163,"x_max":202,"o":"m 163 0 l 163 1194 l 202 1194 l 202 0 l 163 0 z "},"ĺ":{"ha":365,"x_min":159,"x_max":301,"o":"m 163 0 l 163 1194 l 202 1194 l 202 0 l 163 0 m 190 1305 l 159 1324 l 258 1563 l 301 1535 l 190 1305 z "},"ľ":{"ha":365,"x_min":-51,"x_max":416,"o":"m 163 0 l 163 1194 l 202 1194 l 202 0 l 163 0 m 183 1351 l -51 1522 l -30 1551 l 183 1396 l 395 1551 l 416 1522 l 183 1351 z "},"ļ":{"ha":365,"x_min":142,"x_max":224,"o":"m 163 0 l 163 1194 l 202 1194 l 202 0 l 163 0 m 160 -308 l 151 -300 q 175 -246 167 -276 q 183 -176 183 -217 q 154 -164 166 -176 q 142 -135 142 -152 q 153 -106 142 -117 q 183 -94 165 -94 q 214 -109 203 -94 q 224 -153 224 -123 q 204 -243 224 -196 q 160 -308 185 -290 z "},"ł":{"ha":417,"x_min":77,"x_max":383,"o":"m 210 0 l 210 613 l 77 508 l 77 547 l 210 651 l 210 1194 l 249 1194 l 249 683 l 383 788 l 383 749 l 249 644 l 249 0 l 210 0 z "},"m":{"ha":1356,"x_min":163,"x_max":1205,"o":"m 163 0 l 163 711 l 202 711 l 202 604 q 301 700 238 666 q 444 733 364 733 q 599 691 535 733 q 686 575 663 649 q 786 689 721 644 q 946 733 851 733 q 1079 703 1021 733 q 1171 613 1138 672 q 1205 465 1205 553 l 1205 0 l 1166 0 l 1166 453 q 1107 632 1166 566 q 950 699 1047 699 q 825 668 881 699 q 736 590 769 637 q 703 496 703 544 l 703 0 l 665 0 l 665 467 q 606 636 665 574 q 452 699 547 699 q 328 669 385 699 q 236 597 271 640 q 202 510 202 553 l 202 0 l 163 0 z "},"n":{"ha":853,"x_min":163,"x_max":702,"o":"m 163 0 l 163 711 l 202 711 l 202 604 q 285 695 224 656 q 442 733 346 733 q 583 700 525 733 q 672 601 641 667 q 702 440 702 536 l 702 0 l 663 0 l 663 435 q 605 631 663 564 q 440 697 547 697 q 311 667 365 697 q 230 590 258 638 q 202 488 202 542 l 202 0 l 163 0 z "},"ń":{"ha":853,"x_min":163,"x_max":702,"o":"m 163 0 l 163 711 l 202 711 l 202 604 q 285 695 224 656 q 442 733 346 733 q 583 700 525 733 q 672 601 641 667 q 702 440 702 536 l 702 0 l 663 0 l 663 435 q 605 631 663 564 q 440 697 547 697 q 311 667 365 697 q 230 590 258 638 q 202 488 202 542 l 202 0 l 163 0 m 449 844 l 418 863 l 517 1102 l 560 1074 l 449 844 z "},"ň":{"ha":853,"x_min":163,"x_max":702,"o":"m 163 0 l 163 711 l 202 711 l 202 604 q 285 695 224 656 q 442 733 346 733 q 583 700 525 733 q 672 601 641 667 q 702 440 702 536 l 702 0 l 663 0 l 663 435 q 605 631 663 564 q 440 697 547 697 q 311 667 365 697 q 230 590 258 638 q 202 488 202 542 l 202 0 l 163 0 m 442 890 l 208 1061 l 229 1090 l 442 935 l 654 1090 l 675 1061 l 442 890 z "},"ņ":{"ha":853,"x_min":163,"x_max":702,"o":"m 163 0 l 163 711 l 202 711 l 202 604 q 285 695 224 656 q 442 733 346 733 q 583 700 525 733 q 672 601 641 667 q 702 440 702 536 l 702 0 l 663 0 l 663 435 q 605 631 663 564 q 440 697 547 697 q 311 667 365 697 q 230 590 258 638 q 202 488 202 542 l 202 0 l 163 0 m 404 -308 l 395 -300 q 419 -246 411 -276 q 426 -176 426 -217 q 398 -164 410 -176 q 385 -135 385 -152 q 397 -106 385 -117 q 427 -94 408 -94 q 457 -109 447 -94 q 467 -153 467 -123 q 448 -243 467 -196 q 404 -308 428 -290 z "},"ŋ":{"ha":851,"x_min":163,"x_max":702,"o":"m 539 -382 q 481 -374 507 -382 q 437 -350 455 -365 l 448 -319 q 535 -349 479 -349 q 663 -183 663 -349 l 663 432 q 637 564 663 503 q 560 661 611 624 q 435 699 510 699 q 322 673 375 699 q 235 600 268 647 q 202 488 202 553 l 202 0 l 163 0 l 163 711 l 202 711 l 202 604 q 289 697 225 661 q 433 733 353 733 q 575 696 515 733 q 669 593 635 658 q 702 444 702 528 l 702 -176 q 661 -331 702 -279 q 539 -382 621 -382 z "},"ñ":{"ha":853,"x_min":110,"x_max":774,"o":"m 163 0 l 163 711 l 202 711 l 202 604 q 285 695 224 656 q 442 733 346 733 q 583 700 525 733 q 672 601 641 667 q 702 440 702 536 l 702 0 l 663 0 l 663 435 q 605 631 663 564 q 440 697 547 697 q 311 667 365 697 q 230 590 258 638 q 202 488 202 542 l 202 0 l 163 0 m 580 938 q 499 954 532 938 q 437 993 465 971 q 378 1032 409 1015 q 303 1049 347 1049 q 203 1016 244 1049 q 136 940 161 984 l 110 964 q 188 1049 140 1014 q 303 1083 236 1083 q 384 1067 351 1083 q 446 1028 418 1050 q 506 989 474 1006 q 580 972 537 972 q 674 1000 631 972 q 747 1081 717 1028 l 774 1057 q 720 991 750 1018 q 654 951 690 965 q 580 938 619 938 z "},"o":{"ha":988,"x_min":113,"x_max":874,"o":"m 494 -22 q 300 26 386 -22 q 164 159 214 74 q 113 356 113 244 q 164 552 113 467 q 300 685 214 638 q 494 733 386 733 q 688 685 601 733 q 824 552 774 638 q 874 356 874 467 q 824 159 874 244 q 688 26 774 74 q 494 -22 601 -22 m 494 17 q 670 60 593 17 q 791 181 747 104 q 835 356 835 257 q 791 531 835 454 q 670 651 747 607 q 494 694 593 694 q 317 651 394 694 q 196 531 240 607 q 152 356 152 454 q 196 181 152 257 q 317 60 240 104 q 494 17 394 17 z "},"ó":{"ha":988,"x_min":113,"x_max":874,"o":"m 494 -22 q 300 26 386 -22 q 164 159 214 74 q 113 356 113 244 q 164 552 113 467 q 300 685 214 638 q 494 733 386 733 q 688 685 601 733 q 824 552 774 638 q 874 356 874 467 q 824 159 874 244 q 688 26 774 74 q 494 -22 601 -22 m 494 17 q 670 60 593 17 q 791 181 747 104 q 835 356 835 257 q 791 531 835 454 q 670 651 747 607 q 494 694 593 694 q 317 651 394 694 q 196 531 240 607 q 152 356 152 454 q 196 181 152 257 q 317 60 240 104 q 494 17 394 17 m 501 844 l 470 863 l 569 1102 l 613 1074 l 501 844 z "},"ô":{"ha":988,"x_min":113,"x_max":874,"o":"m 494 -22 q 300 26 386 -22 q 164 159 214 74 q 113 356 113 244 q 164 552 113 467 q 300 685 214 638 q 494 733 386 733 q 688 685 601 733 q 824 552 774 638 q 874 356 874 467 q 824 159 874 244 q 688 26 774 74 q 494 -22 601 -22 m 494 17 q 670 60 593 17 q 791 181 747 104 q 835 356 835 257 q 791 531 835 454 q 670 651 747 607 q 494 694 593 694 q 317 651 394 694 q 196 531 240 607 q 152 356 152 454 q 196 181 152 257 q 317 60 240 104 q 494 17 394 17 m 281 988 l 260 1017 l 494 1188 l 727 1017 l 706 988 l 494 1143 l 281 988 z "},"ö":{"ha":988,"x_min":113,"x_max":874,"o":"m 494 -22 q 300 26 386 -22 q 164 159 214 74 q 113 356 113 244 q 164 552 113 467 q 300 685 214 638 q 494 733 386 733 q 688 685 601 733 q 824 552 774 638 q 874 356 874 467 q 824 159 874 244 q 688 26 774 74 q 494 -22 601 -22 m 494 17 q 670 60 593 17 q 791 181 747 104 q 835 356 835 257 q 791 531 835 454 q 670 651 747 607 q 494 694 593 694 q 317 651 394 694 q 196 531 240 607 q 152 356 152 454 q 196 181 152 257 q 317 60 240 104 q 494 17 394 17 m 658 958 q 634 968 644 958 q 624 992 624 978 q 634 1015 624 1006 q 658 1025 644 1025 q 681 1015 672 1025 q 691 992 691 1006 q 681 968 691 978 q 658 958 672 958 m 330 958 q 307 968 317 958 q 297 992 297 978 q 307 1015 297 1006 q 330 1025 317 1025 q 353 1015 344 1025 q 363 992 363 1006 q 353 968 363 978 q 330 958 344 958 z "},"ò":{"ha":988,"x_min":113,"x_max":874,"o":"m 494 -22 q 300 26 386 -22 q 164 159 214 74 q 113 356 113 244 q 164 552 113 467 q 300 685 214 638 q 494 733 386 733 q 688 685 601 733 q 824 552 774 638 q 874 356 874 467 q 824 159 874 244 q 688 26 774 74 q 494 -22 601 -22 m 494 17 q 670 60 593 17 q 791 181 747 104 q 835 356 835 257 q 791 531 835 454 q 670 651 747 607 q 494 694 593 694 q 317 651 394 694 q 196 531 240 607 q 152 356 152 454 q 196 181 152 257 q 317 60 240 104 q 494 17 394 17 m 534 844 l 422 1074 l 466 1102 l 565 863 l 534 844 z "},"ő":{"ha":988,"x_min":113,"x_max":874,"o":"m 494 -22 q 300 26 386 -22 q 164 159 214 74 q 113 356 113 244 q 164 552 113 467 q 300 685 214 638 q 494 733 386 733 q 688 685 601 733 q 824 552 774 638 q 874 356 874 467 q 824 159 874 244 q 688 26 774 74 q 494 -22 601 -22 m 494 17 q 670 60 593 17 q 791 181 747 104 q 835 356 835 257 q 791 531 835 454 q 670 651 747 607 q 494 694 593 694 q 317 651 394 694 q 196 531 240 607 q 152 356 152 454 q 196 181 152 257 q 317 60 240 104 q 494 17 394 17 m 572 1040 l 542 1069 l 657 1188 l 703 1144 l 572 1040 m 383 1040 l 353 1069 l 469 1188 l 514 1144 l 383 1040 z "},"ō":{"ha":988,"x_min":113,"x_max":874,"o":"m 494 -22 q 300 26 386 -22 q 164 159 214 74 q 113 356 113 244 q 164 552 113 467 q 300 685 214 638 q 494 733 386 733 q 688 685 601 733 q 824 552 774 638 q 874 356 874 467 q 824 159 874 244 q 688 26 774 74 q 494 -22 601 -22 m 494 17 q 670 60 593 17 q 791 181 747 104 q 835 356 835 257 q 791 531 835 454 q 670 651 747 607 q 494 694 593 694 q 317 651 394 694 q 196 531 240 607 q 152 356 152 454 q 196 181 152 257 q 317 60 240 104 q 494 17 394 17 m 210 969 l 210 1001 l 777 1001 l 777 969 l 210 969 z "},"ø":{"ha":988,"x_min":113,"x_max":874,"o":"m 494 -22 q 300 26 386 -22 q 164 159 214 74 q 113 356 113 244 q 164 552 113 467 q 300 685 214 638 q 494 733 386 733 q 688 685 601 733 q 824 552 774 638 q 874 356 874 467 q 824 159 874 244 q 688 26 774 74 q 494 -22 601 -22 m 494 17 q 670 60 593 17 q 791 181 747 104 q 835 356 835 257 q 791 531 835 454 q 670 651 747 607 q 494 694 593 694 q 317 651 394 694 q 196 531 240 607 q 152 356 152 454 q 196 181 152 257 q 317 60 240 104 q 494 17 394 17 m 159 -22 l 778 733 l 828 733 l 209 -22 l 159 -22 z "},"õ":{"ha":988,"x_min":113,"x_max":874,"o":"m 494 -22 q 300 26 386 -22 q 164 159 214 74 q 113 356 113 244 q 164 552 113 467 q 300 685 214 638 q 494 733 386 733 q 688 685 601 733 q 824 552 774 638 q 874 356 874 467 q 824 159 874 244 q 688 26 774 74 q 494 -22 601 -22 m 494 17 q 670 60 593 17 q 791 181 747 104 q 835 356 835 257 q 791 531 835 454 q 670 651 747 607 q 494 694 593 694 q 317 651 394 694 q 196 531 240 607 q 152 356 152 454 q 196 181 152 257 q 317 60 240 104 q 494 17 394 17 m 632 938 q 551 954 584 938 q 489 993 517 971 q 430 1032 461 1015 q 355 1049 399 1049 q 255 1016 297 1049 q 188 940 213 984 l 162 964 q 240 1049 192 1014 q 355 1083 288 1083 q 436 1067 403 1083 q 498 1028 470 1050 q 558 989 526 1006 q 632 972 589 972 q 726 1000 683 972 q 799 1081 769 1028 l 826 1057 q 772 991 802 1018 q 706 951 742 965 q 632 938 671 938 z "},"œ":{"ha":1663,"x_min":113,"x_max":1563,"o":"m 494 -22 q 300 26 386 -22 q 164 159 214 74 q 113 356 113 244 q 164 552 113 467 q 300 685 214 638 q 494 733 386 733 q 719 666 621 733 q 855 485 817 599 q 931 614 880 558 q 1051 702 982 670 q 1198 733 1119 733 q 1380 683 1298 733 q 1512 549 1463 633 q 1563 363 1562 465 q 1563 358 1563 360 q 1563 356 1563 357 l 869 356 q 913 180 869 257 q 1035 58 957 102 q 1212 14 1113 14 q 1382 54 1306 14 q 1503 167 1459 94 l 1534 147 q 1399 23 1483 67 q 1212 -22 1314 -22 q 989 44 1086 -22 q 853 224 892 110 q 718 44 815 111 q 494 -22 620 -22 m 494 14 q 672 58 594 14 q 794 179 749 102 q 838 356 838 256 q 794 532 838 455 q 672 653 749 609 q 494 697 594 697 q 316 653 394 697 q 194 532 238 609 q 149 356 149 455 q 194 179 149 256 q 316 58 238 102 q 494 14 394 14 m 870 390 l 1524 390 q 1470 547 1516 477 q 1354 657 1425 616 q 1198 697 1283 697 q 1042 657 1113 697 q 924 547 970 616 q 870 390 878 477 z "},"p":{"ha":992,"x_min":163,"x_max":877,"o":"m 163 -361 l 163 711 l 202 711 l 202 531 q 330 680 245 626 q 520 733 415 733 q 703 684 623 733 q 831 550 784 635 q 877 356 877 465 q 831 162 877 247 q 703 27 784 76 q 520 -22 623 -22 q 331 32 415 -22 q 202 182 246 87 l 202 -361 l 163 -361 m 519 14 q 684 58 612 14 q 798 179 757 102 q 840 356 840 256 q 798 533 840 456 q 685 653 757 610 q 519 697 613 697 q 353 653 425 697 q 239 533 281 610 q 198 356 198 456 q 239 179 198 256 q 353 58 281 101 q 519 14 426 14 z "},"þ":{"ha":992,"x_min":163,"x_max":877,"o":"m 163 -361 l 163 1194 l 202 1194 l 202 529 q 329 678 245 623 q 520 733 413 733 q 702 685 621 733 q 830 552 783 637 q 877 356 877 467 q 830 159 877 244 q 702 26 783 74 q 520 -22 621 -22 q 329 33 413 -22 q 202 182 245 88 l 202 -361 l 163 -361 m 519 14 q 684 58 611 14 q 798 178 756 101 q 840 356 840 256 q 798 533 840 456 q 684 654 756 610 q 519 697 611 697 q 353 654 426 697 q 239 533 281 610 q 198 356 198 456 q 239 178 198 256 q 353 58 281 101 q 519 14 426 14 z "},"q":{"ha":992,"x_min":115,"x_max":828,"o":"m 790 -361 l 790 182 q 661 32 746 87 q 472 -22 577 -22 q 288 27 369 -22 q 161 162 208 76 q 115 356 115 247 q 161 550 115 465 q 288 684 208 635 q 472 733 369 733 q 661 679 577 733 q 790 529 746 624 l 790 711 l 828 711 l 828 -361 l 790 -361 m 473 14 q 639 58 567 14 q 752 179 711 101 q 794 356 794 256 q 753 533 794 456 q 639 653 712 610 q 473 697 567 697 q 307 653 380 697 q 193 533 235 610 q 152 356 152 456 q 193 179 152 256 q 307 58 235 102 q 473 14 380 14 z "},"r":{"ha":578,"x_min":163,"x_max":515,"o":"m 163 0 l 163 711 l 202 711 l 202 604 q 284 701 232 669 q 409 733 335 733 q 465 729 438 733 q 515 717 493 724 l 499 683 q 456 695 480 691 q 409 699 432 699 q 309 672 356 699 q 232 601 262 644 q 202 510 202 558 l 202 0 l 163 0 z "},"ŕ":{"ha":578,"x_min":163,"x_max":515,"o":"m 163 0 l 163 711 l 202 711 l 202 604 q 284 701 232 669 q 409 733 335 733 q 465 729 438 733 q 515 717 493 724 l 499 683 q 456 695 480 691 q 409 699 432 699 q 309 672 356 699 q 232 601 262 644 q 202 510 202 558 l 202 0 l 163 0 m 291 844 l 260 863 l 359 1102 l 403 1074 l 291 844 z "},"ř":{"ha":578,"x_min":51,"x_max":517,"o":"m 163 0 l 163 711 l 202 711 l 202 604 q 284 701 232 669 q 409 733 335 733 q 465 729 438 733 q 515 717 493 724 l 499 683 q 456 695 480 691 q 409 699 432 699 q 309 672 356 699 q 232 601 262 644 q 202 510 202 558 l 202 0 l 163 0 m 284 890 l 51 1061 l 72 1090 l 284 935 l 497 1090 l 517 1061 l 284 890 z "},"ŗ":{"ha":578,"x_min":163,"x_max":515,"o":"m 163 0 l 163 711 l 202 711 l 202 604 q 284 701 232 669 q 409 733 335 733 q 465 729 438 733 q 515 717 493 724 l 499 683 q 456 695 480 691 q 409 699 432 699 q 309 672 356 699 q 232 601 262 644 q 202 510 202 558 l 202 0 l 163 0 m 267 -308 l 258 -300 q 281 -246 274 -276 q 289 -176 289 -217 q 260 -164 272 -176 q 248 -135 248 -152 q 259 -106 248 -117 q 290 -94 271 -94 q 320 -109 310 -94 q 330 -153 330 -123 q 310 -243 330 -196 q 267 -308 291 -290 z "},"s":{"ha":676,"x_min":89,"x_max":572,"o":"m 338 -22 q 185 28 251 -22 q 89 171 120 78 l 122 182 q 206 57 149 102 q 337 13 263 13 q 436 36 390 13 q 510 102 482 59 q 538 203 538 144 q 514 283 538 254 q 447 332 491 312 q 342 375 403 351 q 251 416 295 393 q 177 473 206 438 q 149 562 149 508 q 174 650 149 611 q 243 711 199 688 q 342 733 287 733 q 454 702 404 733 q 532 615 503 672 l 500 600 q 341 699 451 699 q 228 660 272 699 q 185 561 185 622 q 207 492 185 519 q 267 448 228 466 q 353 411 305 430 q 470 362 421 385 q 545 302 519 338 q 572 204 572 267 q 541 85 572 136 q 457 6 510 34 q 338 -22 403 -22 z "},"ś":{"ha":676,"x_min":89,"x_max":572,"o":"m 338 -22 q 185 28 251 -22 q 89 171 120 78 l 122 182 q 206 57 149 102 q 337 13 263 13 q 436 36 390 13 q 510 102 482 59 q 538 203 538 144 q 514 283 538 254 q 447 332 491 312 q 342 375 403 351 q 251 416 295 393 q 177 473 206 438 q 149 562 149 508 q 174 650 149 611 q 243 711 199 688 q 342 733 287 733 q 454 702 404 733 q 532 615 503 672 l 500 600 q 341 699 451 699 q 228 660 272 699 q 185 561 185 622 q 207 492 185 519 q 267 448 228 466 q 353 411 305 430 q 470 362 421 385 q 545 302 519 338 q 572 204 572 267 q 541 85 572 136 q 457 6 510 34 q 338 -22 403 -22 m 349 844 l 318 863 l 417 1102 l 460 1074 l 349 844 z "},"š":{"ha":676,"x_min":89,"x_max":575,"o":"m 338 -22 q 185 28 251 -22 q 89 171 120 78 l 122 182 q 206 57 149 102 q 337 13 263 13 q 436 36 390 13 q 510 102 482 59 q 538 203 538 144 q 514 283 538 254 q 447 332 491 312 q 342 375 403 351 q 251 416 295 393 q 177 473 206 438 q 149 562 149 508 q 174 650 149 611 q 243 711 199 688 q 342 733 287 733 q 454 702 404 733 q 532 615 503 672 l 500 600 q 341 699 451 699 q 228 660 272 699 q 185 561 185 622 q 207 492 185 519 q 267 448 228 466 q 353 411 305 430 q 470 362 421 385 q 545 302 519 338 q 572 204 572 267 q 541 85 572 136 q 457 6 510 34 q 338 -22 403 -22 m 342 890 l 108 1061 l 129 1090 l 342 935 l 554 1090 l 575 1061 l 342 890 z "},"ş":{"ha":676,"x_min":89,"x_max":572,"o":"m 338 -22 q 185 28 251 -22 q 89 171 120 78 l 122 182 q 206 57 149 102 q 337 13 263 13 q 436 36 390 13 q 510 102 482 59 q 538 203 538 144 q 514 283 538 254 q 447 332 491 312 q 342 375 403 351 q 251 416 295 393 q 177 473 206 438 q 149 562 149 508 q 174 650 149 611 q 243 711 199 688 q 342 733 287 733 q 454 702 404 733 q 532 615 503 672 l 500 600 q 341 699 451 699 q 228 660 272 699 q 185 561 185 622 q 207 492 185 519 q 267 448 228 466 q 353 411 305 430 q 470 362 421 385 q 545 302 519 338 q 572 204 572 267 q 541 85 572 136 q 457 6 510 34 q 338 -22 403 -22 m 345 -389 q 246 -364 290 -389 q 179 -294 202 -338 l 208 -278 q 347 -355 249 -355 q 438 -326 403 -355 q 472 -252 472 -298 q 444 -184 472 -210 q 372 -158 417 -158 q 316 -167 346 -158 q 264 -188 285 -175 l 262 -187 l 322 0 l 358 0 l 315 -132 q 348 -126 336 -128 q 370 -124 360 -124 q 468 -160 430 -124 q 506 -251 506 -196 q 461 -350 506 -312 q 345 -389 416 -389 z "},"ș":{"ha":676,"x_min":89,"x_max":572,"o":"m 338 -22 q 185 28 251 -22 q 89 171 120 78 l 122 182 q 206 57 149 102 q 337 13 263 13 q 436 36 390 13 q 510 102 482 59 q 538 203 538 144 q 514 283 538 254 q 447 332 491 312 q 342 375 403 351 q 251 416 295 393 q 177 473 206 438 q 149 562 149 508 q 174 650 149 611 q 243 711 199 688 q 342 733 287 733 q 454 702 404 733 q 532 615 503 672 l 500 600 q 341 699 451 699 q 228 660 272 699 q 185 561 185 622 q 207 492 185 519 q 267 448 228 466 q 353 411 305 430 q 470 362 421 385 q 545 302 519 338 q 572 204 572 267 q 541 85 572 136 q 457 6 510 34 q 338 -22 403 -22 m 336 -308 l 327 -300 q 351 -246 343 -276 q 358 -176 358 -217 q 330 -164 342 -176 q 317 -135 317 -152 q 329 -106 317 -117 q 359 -94 340 -94 q 389 -109 379 -94 q 399 -153 399 -123 q 380 -243 399 -196 q 336 -308 360 -290 z "},"ß":{"ha":926,"x_min":88,"x_max":817,"o":"m 327 -22 l 327 17 l 478 17 q 629 57 561 17 q 738 166 697 98 q 778 317 778 234 q 738 468 778 400 q 629 577 697 537 q 478 618 561 618 l 327 618 l 327 657 l 478 657 q 609 692 550 657 q 703 786 668 727 q 738 917 738 845 q 703 1047 738 988 q 609 1141 668 1106 q 478 1176 550 1176 q 348 1141 407 1176 q 254 1047 289 1106 q 219 917 219 988 l 219 0 l 180 0 l 180 525 l 88 525 l 88 565 l 180 565 l 180 917 q 220 1067 180 999 q 328 1175 260 1135 q 478 1215 396 1215 q 629 1175 561 1215 q 737 1067 697 1135 q 777 917 777 999 q 725 748 777 824 q 588 639 674 672 q 708 567 657 615 q 789 454 760 519 q 817 317 817 390 q 772 146 817 223 q 649 23 726 69 q 478 -22 572 -22 l 327 -22 z "},"t":{"ha":473,"x_min":106,"x_max":393,"o":"m 301 -22 q 201 24 236 -22 q 165 154 165 70 l 165 682 l 106 682 l 106 711 l 165 711 l 165 976 l 204 976 l 204 711 l 393 711 l 393 682 l 204 682 l 204 154 q 231 48 204 85 q 306 11 257 11 q 383 35 352 11 l 393 4 q 352 -15 377 -8 q 301 -22 328 -22 z "},"ŧ":{"ha":473,"x_min":106,"x_max":393,"o":"m 301 -22 q 201 24 236 -22 q 165 154 165 70 l 165 543 l 106 543 l 106 572 l 165 572 l 165 682 l 106 682 l 106 711 l 165 711 l 165 976 l 204 976 l 204 711 l 393 711 l 393 682 l 204 682 l 204 572 l 393 572 l 393 543 l 204 543 l 204 154 q 231 48 204 85 q 306 11 257 11 q 383 35 352 11 l 393 4 q 352 -15 377 -8 q 301 -22 328 -22 z "},"ť":{"ha":473,"x_min":10,"x_max":477,"o":"m 301 -22 q 201 24 236 -22 q 165 154 165 70 l 165 682 l 106 682 l 106 711 l 165 711 l 165 976 l 204 976 l 204 711 l 393 711 l 393 682 l 204 682 l 204 154 q 231 48 204 85 q 306 11 257 11 q 383 35 352 11 l 393 4 q 352 -15 377 -8 q 301 -22 328 -22 m 244 1022 l 10 1192 l 31 1222 l 244 1066 l 456 1222 l 477 1192 l 244 1022 z "},"ţ":{"ha":473,"x_min":106,"x_max":444,"o":"m 301 -22 q 201 24 236 -22 q 165 154 165 70 l 165 682 l 106 682 l 106 711 l 165 711 l 165 976 l 204 976 l 204 711 l 393 711 l 393 682 l 204 682 l 204 154 q 231 48 204 85 q 306 11 257 11 q 383 35 352 11 l 393 4 q 352 -15 377 -8 q 301 -22 328 -22 m 283 -389 q 183 -364 227 -389 q 117 -294 140 -338 l 145 -278 q 284 -355 186 -355 q 375 -326 340 -355 q 410 -252 410 -298 q 382 -184 410 -210 q 309 -158 354 -158 q 253 -167 283 -158 q 201 -188 223 -175 l 199 -187 l 260 0 l 296 0 l 253 -132 q 285 -126 274 -128 q 308 -124 297 -124 q 406 -160 367 -124 q 444 -251 444 -196 q 399 -350 444 -312 q 283 -389 353 -389 z "},"ț":{"ha":473,"x_min":106,"x_max":393,"o":"m 301 -22 q 201 24 236 -22 q 165 154 165 70 l 165 682 l 106 682 l 106 711 l 165 711 l 165 976 l 204 976 l 204 711 l 393 711 l 393 682 l 204 682 l 204 154 q 231 48 204 85 q 306 11 257 11 q 383 35 352 11 l 393 4 q 352 -15 377 -8 q 301 -22 328 -22 m 274 -308 l 265 -300 q 288 -246 281 -276 q 296 -176 296 -217 q 267 -164 279 -176 q 255 -135 255 -152 q 266 -106 255 -117 q 297 -94 278 -94 q 327 -109 317 -94 q 337 -153 337 -123 q 317 -243 337 -196 q 274 -308 298 -290 z "},"u":{"ha":832,"x_min":152,"x_max":680,"o":"m 416 -22 q 212 48 272 -22 q 152 288 152 119 l 152 711 l 191 711 l 191 288 q 243 77 191 140 q 416 14 294 14 q 589 77 538 14 q 641 288 641 140 l 641 711 l 680 711 l 680 288 q 620 48 680 119 q 416 -22 560 -22 z "},"ú":{"ha":832,"x_min":152,"x_max":680,"o":"m 416 -22 q 212 48 272 -22 q 152 288 152 119 l 152 711 l 191 711 l 191 288 q 243 77 191 140 q 416 14 294 14 q 589 77 538 14 q 641 288 641 140 l 641 711 l 680 711 l 680 288 q 620 48 680 119 q 416 -22 560 -22 m 423 823 l 392 842 l 491 1081 l 535 1053 l 423 823 z "},"û":{"ha":832,"x_min":152,"x_max":680,"o":"m 416 -22 q 212 48 272 -22 q 152 288 152 119 l 152 711 l 191 711 l 191 288 q 243 77 191 140 q 416 14 294 14 q 589 77 538 14 q 641 288 641 140 l 641 711 l 680 711 l 680 288 q 620 48 680 119 q 416 -22 560 -22 m 203 967 l 183 996 l 416 1167 l 649 996 l 628 967 l 416 1122 l 203 967 z "},"ü":{"ha":832,"x_min":152,"x_max":680,"o":"m 416 -22 q 212 48 272 -22 q 152 288 152 119 l 152 711 l 191 711 l 191 288 q 243 77 191 140 q 416 14 294 14 q 589 77 538 14 q 641 288 641 140 l 641 711 l 680 711 l 680 288 q 620 48 680 119 q 416 -22 560 -22 m 580 938 q 557 948 567 938 q 547 971 547 958 q 557 994 547 985 q 580 1004 567 1004 q 603 994 594 1004 q 613 971 613 985 q 603 948 613 958 q 580 938 594 938 m 252 938 q 229 948 239 938 q 219 971 219 958 q 229 994 219 985 q 252 1004 239 1004 q 276 994 266 1004 q 285 971 285 985 q 276 948 285 958 q 252 938 266 938 z "},"ù":{"ha":832,"x_min":152,"x_max":680,"o":"m 416 -22 q 212 48 272 -22 q 152 288 152 119 l 152 711 l 191 711 l 191 288 q 243 77 191 140 q 416 14 294 14 q 589 77 538 14 q 641 288 641 140 l 641 711 l 680 711 l 680 288 q 620 48 680 119 q 416 -22 560 -22 m 456 823 l 344 1053 l 388 1081 l 487 842 l 456 823 z "},"ű":{"ha":832,"x_min":152,"x_max":680,"o":"m 416 -22 q 212 48 272 -22 q 152 288 152 119 l 152 711 l 191 711 l 191 288 q 243 77 191 140 q 416 14 294 14 q 589 77 538 14 q 641 288 641 140 l 641 711 l 680 711 l 680 288 q 620 48 680 119 q 416 -22 560 -22 m 494 1019 l 465 1049 l 579 1167 l 625 1124 l 494 1019 m 306 1019 l 276 1049 l 392 1167 l 436 1124 l 306 1019 z "},"ū":{"ha":832,"x_min":133,"x_max":699,"o":"m 416 -22 q 212 48 272 -22 q 152 288 152 119 l 152 711 l 191 711 l 191 288 q 243 77 191 140 q 416 14 294 14 q 589 77 538 14 q 641 288 641 140 l 641 711 l 680 711 l 680 288 q 620 48 680 119 q 416 -22 560 -22 m 133 949 l 133 981 l 699 981 l 699 949 l 133 949 z "},"ų":{"ha":832,"x_min":152,"x_max":680,"o":"m 416 -22 q 212 48 272 -22 q 152 288 152 119 l 152 711 l 191 711 l 191 288 q 243 77 191 140 q 416 14 294 14 q 589 77 538 14 q 641 288 641 140 l 641 711 l 680 711 l 680 288 q 620 48 680 119 q 416 -22 560 -22 m 446 -381 q 321 -335 369 -381 q 272 -225 272 -289 q 306 -117 272 -176 q 401 8 340 -58 l 437 8 q 342 -119 376 -58 q 308 -224 308 -180 q 344 -308 308 -272 q 450 -344 380 -344 q 536 -325 496 -344 q 614 -264 576 -306 l 638 -281 q 554 -354 606 -327 q 446 -381 503 -381 z "},"ů":{"ha":832,"x_min":152,"x_max":680,"o":"m 416 -22 q 212 48 272 -22 q 152 288 152 119 l 152 711 l 191 711 l 191 288 q 243 77 191 140 q 416 14 294 14 q 589 77 538 14 q 641 288 641 140 l 641 711 l 680 711 l 680 288 q 620 48 680 119 q 416 -22 560 -22 m 416 897 q 348 913 378 897 q 299 955 317 928 q 281 1017 281 982 l 281 1017 q 299 1078 281 1051 q 348 1121 317 1106 q 416 1136 378 1136 q 484 1121 453 1136 q 533 1078 515 1106 q 551 1017 551 1051 q 533 955 551 982 q 484 913 515 928 q 416 897 453 897 m 416 933 q 487 957 459 933 q 515 1017 515 981 q 487 1077 515 1053 q 416 1100 459 1100 q 345 1077 374 1100 q 317 1017 317 1053 l 317 1017 q 345 957 317 981 q 416 933 374 933 z "},"v":{"ha":832,"x_min":74,"x_max":758,"o":"m 403 0 l 74 711 l 119 711 l 416 68 l 713 711 l 758 711 l 428 0 l 403 0 z "},"w":{"ha":1351,"x_min":74,"x_max":1277,"o":"m 403 0 l 74 711 l 119 711 l 416 68 l 663 711 l 688 711 l 935 68 l 1233 711 l 1277 711 l 948 0 l 923 0 l 676 633 l 428 0 l 403 0 z "},"ẃ":{"ha":1351,"x_min":74,"x_max":1277,"o":"m 403 0 l 74 711 l 119 711 l 416 68 l 663 711 l 688 711 l 935 68 l 1233 711 l 1277 711 l 948 0 l 923 0 l 676 633 l 428 0 l 403 0 m 683 823 l 652 842 l 751 1081 l 794 1053 l 683 823 z "},"ŵ":{"ha":1351,"x_min":74,"x_max":1277,"o":"m 403 0 l 74 711 l 119 711 l 416 68 l 663 711 l 688 711 l 935 68 l 1233 711 l 1277 711 l 948 0 l 923 0 l 676 633 l 428 0 l 403 0 m 463 967 l 442 996 l 676 1167 l 909 996 l 888 967 l 676 1122 l 463 967 z "},"ẅ":{"ha":1351,"x_min":74,"x_max":1277,"o":"m 403 0 l 74 711 l 119 711 l 416 68 l 663 711 l 688 711 l 935 68 l 1233 711 l 1277 711 l 948 0 l 923 0 l 676 633 l 428 0 l 403 0 m 840 938 q 816 948 826 938 q 806 971 806 958 q 816 994 806 985 q 840 1004 826 1004 q 863 994 853 1004 q 873 971 873 985 q 863 948 873 958 q 840 938 853 938 m 512 938 q 489 948 499 938 q 478 971 478 958 q 489 994 478 985 q 512 1004 499 1004 q 535 994 526 1004 q 545 971 545 985 q 535 948 545 958 q 512 938 526 938 z "},"ẁ":{"ha":1351,"x_min":74,"x_max":1277,"o":"m 403 0 l 74 711 l 119 711 l 416 68 l 663 711 l 688 711 l 935 68 l 1233 711 l 1277 711 l 948 0 l 923 0 l 676 633 l 428 0 l 403 0 m 716 823 l 604 1053 l 648 1081 l 747 842 l 716 823 z "},"x":{"ha":797,"x_min":71,"x_max":726,"o":"m 71 0 l 369 364 l 110 711 l 153 711 l 399 390 l 644 711 l 688 711 l 428 364 l 726 0 l 682 0 l 399 346 l 115 0 l 71 0 z "},"y":{"ha":844,"x_min":74,"x_max":769,"o":"m 269 -361 l 413 -22 l 74 711 l 117 711 l 434 25 l 726 711 l 769 711 l 310 -361 l 269 -361 z "},"ý":{"ha":844,"x_min":74,"x_max":769,"o":"m 269 -361 l 413 -22 l 74 711 l 117 711 l 434 25 l 726 711 l 769 711 l 310 -361 l 269 -361 m 429 823 l 399 842 l 497 1081 l 541 1053 l 429 823 z "},"ŷ":{"ha":844,"x_min":74,"x_max":769,"o":"m 269 -361 l 413 -22 l 74 711 l 117 711 l 434 25 l 726 711 l 769 711 l 310 -361 l 269 -361 m 210 967 l 189 996 l 422 1167 l 656 996 l 635 967 l 422 1122 l 210 967 z "},"ÿ":{"ha":844,"x_min":74,"x_max":769,"o":"m 269 -361 l 413 -22 l 74 711 l 117 711 l 434 25 l 726 711 l 769 711 l 310 -361 l 269 -361 m 586 938 q 563 948 573 938 q 553 971 553 958 q 563 994 553 985 q 586 1004 573 1004 q 610 994 600 1004 q 619 971 619 985 q 610 948 619 958 q 586 938 600 938 m 258 938 q 235 948 245 938 q 225 971 225 958 q 235 994 225 985 q 258 1004 245 1004 q 282 994 272 1004 q 292 971 292 985 q 282 948 292 958 q 258 938 272 938 z "},"ỳ":{"ha":844,"x_min":74,"x_max":769,"o":"m 269 -361 l 413 -22 l 74 711 l 117 711 l 434 25 l 726 711 l 769 711 l 310 -361 l 269 -361 m 463 823 l 351 1053 l 394 1081 l 493 842 l 463 823 z "},"z":{"ha":836,"x_min":71,"x_max":758,"o":"m 71 0 l 671 672 l 122 672 l 122 711 l 758 711 l 157 39 l 747 39 l 747 0 l 71 0 z "},"ź":{"ha":836,"x_min":71,"x_max":758,"o":"m 71 0 l 671 672 l 122 672 l 122 711 l 758 711 l 157 39 l 747 39 l 747 0 l 71 0 m 425 823 l 394 842 l 493 1081 l 537 1053 l 425 823 z "},"ž":{"ha":836,"x_min":71,"x_max":758,"o":"m 71 0 l 671 672 l 122 672 l 122 711 l 758 711 l 157 39 l 747 39 l 747 0 l 71 0 m 418 869 l 185 1040 l 206 1069 l 418 914 l 631 1069 l 651 1040 l 418 869 z "},"ż":{"ha":836,"x_min":71,"x_max":758,"o":"m 71 0 l 671 672 l 122 672 l 122 711 l 758 711 l 157 39 l 747 39 l 747 0 l 71 0 m 419 989 q 402 993 410 989 q 390 1006 394 998 q 385 1022 385 1013 q 390 1039 385 1031 q 402 1050 394 1046 q 419 1055 410 1055 q 435 1050 428 1055 q 447 1039 442 1046 q 451 1022 451 1031 q 447 1006 451 1013 q 435 993 442 998 q 419 989 428 989 z "},"ﬁ":{"ha":595,"x_min":106,"x_max":463,"o":"m 164 0 l 164 682 l 106 682 l 106 711 l 164 711 l 164 1010 q 184 1131 164 1086 q 241 1196 205 1176 q 325 1215 278 1215 q 379 1205 352 1215 q 427 1176 406 1195 q 461 1129 449 1157 l 429 1117 q 389 1165 419 1147 q 328 1182 358 1182 q 236 1144 269 1182 q 203 1017 203 1106 l 203 711 l 463 711 l 463 0 l 424 0 l 424 682 l 203 682 l 203 0 l 164 0 z "},"ﬂ":{"ha":728,"x_min":137,"x_max":533,"o":"m 197 0 l 197 682 l 137 682 l 137 711 l 197 711 l 197 1010 q 217 1131 197 1086 q 273 1196 237 1176 q 356 1215 309 1215 q 408 1209 387 1215 q 444 1194 429 1203 l 427 1167 q 397 1178 414 1174 q 359 1182 380 1182 q 267 1144 300 1182 q 234 1017 234 1106 l 234 711 l 423 711 l 423 682 l 234 682 l 234 0 l 197 0 m 497 0 l 497 1194 l 533 1194 l 533 0 l 497 0 z "},"ª":{"ha":726,"x_min":124,"x_max":564,"o":"m 344 700 q 232 730 282 700 q 153 812 182 760 q 124 933 124 865 q 153 1054 124 1001 q 232 1137 182 1107 q 344 1167 282 1167 q 463 1133 410 1167 q 540 1040 515 1099 l 540 1153 l 564 1153 l 564 714 l 540 714 l 540 826 q 463 734 515 768 q 344 700 410 700 m 344 721 q 445 749 401 721 q 515 824 490 776 q 540 933 540 872 q 485 1086 540 1026 q 344 1146 430 1146 q 243 1118 288 1146 q 173 1043 199 1091 q 147 933 147 995 q 173 824 147 872 q 243 749 199 776 q 344 721 288 721 z "},"º":{"ha":714,"x_min":122,"x_max":592,"o":"m 357 700 q 237 730 290 700 q 153 812 184 760 q 122 933 122 865 q 153 1055 122 1003 q 237 1137 184 1108 q 357 1167 290 1167 q 476 1137 423 1167 q 560 1055 529 1108 q 592 933 592 1003 q 560 812 592 865 q 476 730 529 760 q 357 700 423 700 m 356 722 q 466 750 418 722 q 542 825 514 777 q 569 933 569 872 q 542 1042 569 994 q 466 1117 514 1090 q 357 1144 418 1144 q 247 1117 295 1144 q 172 1042 199 1090 q 144 933 144 994 q 172 824 144 872 q 248 749 200 776 q 356 722 296 722 z "},"Δ":{"ha":1153,"x_min":203,"x_max":949,"o":"m 226 0 l 203 15 l 549 899 l 603 899 l 949 15 l 926 0 l 226 0 m 241 30 l 912 30 l 592 864 l 560 864 l 241 30 z "},"Ω":{"ha":821,"x_min":113,"x_max":708,"o":"m 131 0 l 131 35 l 285 37 q 160 177 207 84 q 113 379 113 270 q 153 565 113 481 q 261 697 193 648 q 410 746 328 746 q 560 697 493 746 q 668 564 628 647 q 708 380 708 481 q 661 178 708 271 q 536 37 615 85 l 690 35 l 690 0 l 441 0 l 441 45 l 449 45 q 528 73 490 45 q 598 148 567 101 q 648 257 629 196 q 666 383 666 317 q 632 544 666 470 q 541 661 599 617 q 410 706 483 706 q 280 661 338 706 q 189 544 222 617 q 155 381 155 470 q 173 256 155 316 q 223 148 192 196 q 292 73 253 101 q 372 45 331 45 l 380 45 l 380 0 l 131 0 z "},"μ":{"ha":1015,"x_min":230,"x_max":790,"o":"m 230 -222 q 233 -61 230 -129 q 240 63 236 6 q 248 178 244 120 q 251 310 251 236 l 251 713 l 290 713 l 290 279 q 346 82 290 152 q 523 13 402 13 q 646 44 595 13 q 724 124 697 76 q 751 224 751 173 l 751 713 l 790 713 l 790 0 l 751 0 l 751 107 q 693 33 732 61 q 608 -9 654 4 q 523 -22 563 -22 q 377 8 433 -22 q 290 92 320 39 l 290 -222 l 230 -222 z "},"π":{"ha":872,"x_min":163,"x_max":722,"o":"m 284 0 l 284 674 l 163 674 l 163 713 l 722 713 l 722 674 l 601 674 l 601 102 q 613 52 601 66 q 658 39 626 39 l 658 0 q 584 24 606 0 q 562 102 562 47 l 562 674 l 323 674 l 323 0 l 284 0 z "},"¹":{"ha":276,"x_min":92,"x_max":155,"o":"m 127 713 l 127 1117 l 92 1117 l 92 1146 l 155 1146 l 155 713 l 127 713 z "},"²":{"ha":459,"x_min":67,"x_max":376,"o":"m 67 713 l 67 732 q 225 853 166 801 q 309 946 283 904 q 335 1027 335 988 q 303 1108 335 1076 q 223 1139 270 1139 q 137 1103 172 1139 q 101 1019 102 1068 l 73 1026 q 118 1126 75 1085 q 222 1167 161 1167 q 324 1128 281 1167 q 367 1023 367 1089 q 346 947 367 984 q 272 860 325 909 q 122 739 219 812 l 376 739 l 376 713 l 67 713 z "},"³":{"ha":442,"x_min":73,"x_max":340,"o":"m 209 713 q 110 746 146 713 q 73 826 75 780 l 101 834 q 131 767 101 794 q 208 741 160 741 q 283 767 258 741 q 309 831 309 794 q 279 904 309 874 q 210 933 249 933 q 194 932 200 933 l 194 956 l 208 956 q 277 983 249 956 q 305 1050 305 1011 q 278 1115 305 1089 q 215 1140 252 1140 q 151 1115 178 1140 q 123 1051 124 1090 l 97 1057 q 132 1135 99 1103 q 215 1167 166 1167 q 300 1132 266 1167 q 334 1051 334 1097 q 314 986 334 1015 q 260 945 293 957 q 318 903 297 935 q 340 833 340 872 q 306 748 340 783 q 209 713 272 713 z "},"⁴":{"ha":349,"x_min":17,"x_max":331,"o":"m 253 722 l 253 802 l 17 802 l 17 819 l 255 1146 l 276 1146 l 276 824 l 331 824 l 331 802 l 276 802 l 276 722 l 253 722 m 49 824 l 253 824 l 253 1107 l 49 824 z "},"⁄":{"ha":6,"x_min":-424,"x_max":429,"o":"m -424 0 l 382 1146 l 429 1146 l -376 0 l -424 0 z "},"⅟":{"ha":590,"x_min":161,"x_max":1014,"o":"m 205 417 l 205 1110 l 181 1110 l 181 1146 l 238 1146 l 238 417 l 205 417 m 161 0 l 967 1146 l 1014 1146 l 208 0 l 161 0 z "},"½":{"ha":1600,"x_min":161,"x_max":1375,"o":"m 205 417 l 205 1110 l 181 1110 l 181 1146 l 238 1146 l 238 417 l 205 417 m 161 0 l 967 1146 l 1014 1146 l 208 0 l 161 0 m 806 0 l 806 14 q 1061 198 961 122 q 1218 328 1161 274 q 1297 425 1274 383 q 1319 510 1319 468 q 1288 613 1319 567 q 1205 686 1257 659 q 1090 713 1153 713 q 974 686 1026 713 q 890 613 922 658 q 858 510 859 567 l 820 515 q 858 634 822 581 q 956 718 894 687 q 1090 750 1017 750 q 1225 718 1164 750 q 1323 632 1286 687 q 1360 509 1360 578 q 1339 421 1360 465 q 1268 326 1319 378 q 1126 204 1217 274 q 897 37 1036 134 l 1375 37 l 1375 0 l 806 0 z "},"↉":{"ha":1990,"x_min":139,"x_max":1740,"o":"m 500 402 q 310 450 392 402 q 184 585 229 499 q 139 785 139 671 q 184 985 139 899 q 310 1119 229 1071 q 500 1167 392 1167 q 690 1119 608 1167 q 816 985 771 1071 q 861 785 861 899 q 816 585 861 671 q 690 450 771 499 q 500 402 608 402 m 500 436 q 669 480 597 436 q 781 602 741 524 q 822 785 822 681 q 781 968 822 890 q 668 1090 741 1046 q 500 1133 596 1133 q 332 1090 404 1133 q 219 968 260 1046 q 178 785 178 890 q 219 602 178 681 q 332 480 259 524 q 500 436 404 436 m 576 0 l 1382 1146 l 1429 1146 l 624 0 l 576 0 m 1517 -15 q 1351 38 1417 -15 q 1283 179 1285 91 l 1319 185 q 1376 67 1319 113 q 1517 22 1432 22 q 1651 67 1601 22 q 1701 181 1701 111 q 1676 272 1701 231 q 1610 336 1651 313 q 1520 360 1569 360 q 1493 358 1504 360 l 1493 390 l 1515 390 q 1607 413 1566 390 q 1673 474 1649 435 q 1697 557 1697 512 q 1674 638 1697 602 q 1613 695 1651 674 q 1528 717 1574 717 q 1445 695 1483 717 q 1384 638 1407 674 q 1360 558 1361 602 l 1327 563 q 1356 659 1328 617 q 1429 726 1383 701 q 1529 750 1475 750 q 1633 724 1587 750 q 1706 654 1679 698 q 1733 558 1733 610 q 1695 446 1733 497 q 1596 375 1658 394 q 1698 309 1656 361 q 1740 183 1740 258 q 1714 82 1740 127 q 1638 11 1688 38 q 1517 -15 1588 -15 z "},"⅓":{"ha":1575,"x_min":161,"x_max":1325,"o":"m 205 417 l 205 1110 l 181 1110 l 181 1146 l 238 1146 l 238 417 l 205 417 m 161 0 l 967 1146 l 1014 1146 l 208 0 l 161 0 m 1101 -15 q 936 38 1002 -15 q 868 179 870 91 l 904 185 q 960 67 904 113 q 1101 22 1017 22 q 1235 67 1185 22 q 1285 181 1285 111 q 1261 272 1285 231 q 1195 336 1236 313 q 1105 360 1154 360 q 1078 358 1089 360 l 1078 390 l 1099 390 q 1192 413 1151 390 q 1257 474 1233 435 q 1281 557 1281 512 q 1258 638 1281 602 q 1197 695 1235 674 q 1113 717 1159 717 q 1030 695 1068 717 q 969 638 992 674 q 945 558 946 602 l 912 563 q 941 659 913 617 q 1014 726 968 701 q 1114 750 1060 750 q 1218 724 1172 750 q 1291 654 1264 698 q 1318 558 1318 610 q 1280 446 1318 497 q 1181 375 1242 394 q 1283 309 1240 361 q 1325 183 1325 258 q 1299 82 1325 127 q 1222 11 1272 38 q 1101 -15 1172 -15 z "},"⅔":{"ha":2000,"x_min":215,"x_max":1750,"o":"m 215 417 l 215 431 q 471 614 371 538 q 627 745 571 690 q 707 842 684 799 q 729 926 729 885 q 698 1030 729 983 q 615 1103 667 1076 q 499 1130 563 1130 q 384 1102 436 1130 q 300 1029 331 1075 q 267 926 269 983 l 230 932 q 268 1050 231 997 q 365 1135 304 1103 q 500 1167 426 1167 q 635 1135 574 1167 q 733 1049 696 1103 q 769 926 769 994 q 749 838 769 881 q 677 742 728 794 q 536 620 626 690 q 306 453 446 551 l 785 453 l 785 417 l 215 417 m 586 0 l 1392 1146 l 1439 1146 l 633 0 l 586 0 m 1526 -15 q 1361 38 1427 -15 q 1293 179 1295 91 l 1329 185 q 1385 67 1329 113 q 1526 22 1442 22 q 1660 67 1610 22 q 1710 181 1710 111 q 1686 272 1710 231 q 1620 336 1661 313 q 1530 360 1579 360 q 1503 358 1514 360 l 1503 390 l 1524 390 q 1617 413 1576 390 q 1682 474 1658 435 q 1706 557 1706 512 q 1683 638 1706 602 q 1622 695 1660 674 q 1538 717 1584 717 q 1455 695 1493 717 q 1394 638 1417 674 q 1370 558 1371 602 l 1337 563 q 1366 659 1338 617 q 1439 726 1393 701 q 1539 750 1485 750 q 1643 724 1597 750 q 1716 654 1689 698 q 1743 558 1743 610 q 1705 446 1743 497 q 1606 375 1667 394 q 1708 309 1665 361 q 1750 183 1750 258 q 1724 82 1750 127 q 1647 11 1697 38 q 1526 -15 1597 -15 z "},"¼":{"ha":1435,"x_min":161,"x_max":1235,"o":"m 205 417 l 205 1110 l 181 1110 l 181 1146 l 238 1146 l 238 417 l 205 417 m 161 0 l 967 1146 l 1014 1146 l 208 0 l 161 0 m 1104 0 l 1104 143 l 694 143 l 694 167 l 1103 729 l 1140 729 l 1140 175 l 1235 175 l 1235 143 l 1140 143 l 1140 0 l 1104 0 m 738 175 l 1104 175 l 1104 676 l 738 175 z "},"¾":{"ha":1776,"x_min":222,"x_max":1576,"o":"m 456 402 q 290 455 356 402 q 222 596 224 508 l 258 602 q 315 484 258 529 q 456 439 371 439 q 590 483 540 439 q 640 598 640 528 q 615 689 640 648 q 549 753 590 729 q 459 777 508 777 q 432 774 443 777 l 432 806 l 453 806 q 546 829 505 806 q 611 890 588 852 q 635 974 635 928 q 613 1055 635 1019 q 551 1112 590 1091 q 467 1133 513 1133 q 384 1112 422 1133 q 323 1055 346 1090 q 299 974 300 1019 l 266 979 q 295 1076 267 1033 q 368 1142 322 1118 q 468 1167 414 1167 q 572 1141 526 1167 q 645 1071 618 1115 q 672 975 672 1027 q 634 863 672 914 q 535 792 597 811 q 637 726 594 778 q 679 599 679 674 q 653 499 679 544 q 576 428 626 454 q 456 402 526 402 m 502 0 l 1308 1146 l 1355 1146 l 549 0 l 502 0 m 1445 0 l 1445 143 l 1035 143 l 1035 167 l 1444 729 l 1481 729 l 1481 175 l 1576 175 l 1576 143 l 1481 143 l 1481 0 l 1445 0 m 1079 175 l 1445 175 l 1445 676 l 1079 175 z "},"⅕":{"ha":1631,"x_min":161,"x_max":1401,"o":"m 205 417 l 205 1110 l 181 1110 l 181 1146 l 238 1146 l 238 417 l 205 417 m 161 0 l 967 1146 l 1014 1146 l 208 0 l 161 0 m 1105 -14 q 923 28 1004 -14 q 809 144 842 69 l 844 160 q 944 57 874 94 q 1108 21 1014 21 q 1292 75 1223 21 q 1362 226 1362 129 q 1327 346 1362 297 q 1233 423 1292 396 q 1098 449 1173 449 q 966 424 1027 449 q 851 349 905 399 l 915 729 l 1347 729 l 1347 697 l 944 697 l 892 417 q 991 466 938 451 q 1106 479 1044 481 q 1322 406 1242 476 q 1401 225 1401 335 q 1359 91 1401 144 q 1251 12 1318 38 q 1105 -14 1183 -14 z "},"⅖":{"ha":2056,"x_min":215,"x_max":1826,"o":"m 215 417 l 215 431 q 471 614 371 538 q 627 745 571 690 q 707 842 684 799 q 729 926 729 885 q 698 1030 729 983 q 615 1103 667 1076 q 499 1130 563 1130 q 384 1102 436 1130 q 300 1029 331 1075 q 267 926 269 983 l 230 932 q 268 1050 231 997 q 365 1135 304 1103 q 500 1167 426 1167 q 635 1135 574 1167 q 733 1049 696 1103 q 769 926 769 994 q 749 838 769 881 q 677 742 728 794 q 536 620 626 690 q 306 453 446 551 l 785 453 l 785 417 l 215 417 m 586 0 l 1392 1146 l 1439 1146 l 633 0 l 586 0 m 1530 -14 q 1348 28 1429 -14 q 1234 144 1267 69 l 1269 160 q 1369 57 1299 94 q 1533 21 1439 21 q 1717 75 1648 21 q 1787 226 1787 129 q 1752 346 1787 297 q 1658 423 1717 396 q 1523 449 1598 449 q 1391 424 1452 449 q 1276 349 1330 399 l 1340 729 l 1772 729 l 1772 697 l 1369 697 l 1317 417 q 1416 466 1363 451 q 1531 479 1469 481 q 1747 406 1667 476 q 1826 225 1826 335 q 1784 91 1826 144 q 1676 12 1743 38 q 1530 -14 1608 -14 z "},"⅗":{"ha":1972,"x_min":222,"x_max":1742,"o":"m 456 402 q 290 455 356 402 q 222 596 224 508 l 258 602 q 315 484 258 529 q 456 439 371 439 q 590 483 540 439 q 640 598 640 528 q 615 689 640 648 q 549 753 590 729 q 459 777 508 777 q 432 774 443 777 l 432 806 l 453 806 q 546 829 505 806 q 611 890 588 852 q 635 974 635 928 q 613 1055 635 1019 q 551 1112 590 1091 q 467 1133 513 1133 q 384 1112 422 1133 q 323 1055 346 1090 q 299 974 300 1019 l 266 979 q 295 1076 267 1033 q 368 1142 322 1118 q 468 1167 414 1167 q 572 1141 526 1167 q 645 1071 618 1115 q 672 975 672 1027 q 634 863 672 914 q 535 792 597 811 q 637 726 594 778 q 679 599 679 674 q 653 499 679 544 q 576 428 626 454 q 456 402 526 402 m 502 0 l 1308 1146 l 1355 1146 l 549 0 l 502 0 m 1446 -14 q 1264 28 1345 -14 q 1150 144 1183 69 l 1185 160 q 1285 57 1215 94 q 1449 21 1355 21 q 1633 75 1564 21 q 1703 226 1703 129 q 1668 346 1703 297 q 1574 423 1633 396 q 1439 449 1514 449 q 1307 424 1368 449 q 1192 349 1246 399 l 1256 729 l 1688 729 l 1688 697 l 1285 697 l 1233 417 q 1332 466 1278 451 q 1447 479 1385 481 q 1663 406 1583 476 q 1742 225 1742 335 q 1700 91 1742 144 q 1592 12 1659 38 q 1446 -14 1524 -14 z "},"⅘":{"ha":1958,"x_min":172,"x_max":1728,"o":"m 581 417 l 581 560 l 172 560 l 172 584 l 581 1146 l 617 1146 l 617 592 l 712 592 l 712 560 l 617 560 l 617 417 l 581 417 m 215 592 l 581 592 l 581 1093 l 215 592 m 489 0 l 1294 1146 l 1342 1146 l 536 0 l 489 0 m 1433 -14 q 1251 28 1332 -14 q 1137 144 1169 69 l 1172 160 q 1272 57 1201 94 q 1435 21 1342 21 q 1620 75 1551 21 q 1690 226 1690 129 q 1655 346 1690 297 q 1560 423 1620 396 q 1426 449 1501 449 q 1294 424 1355 449 q 1179 349 1233 399 l 1243 729 l 1674 729 l 1674 697 l 1272 697 l 1219 417 q 1319 466 1265 451 q 1434 479 1372 481 q 1649 406 1570 476 q 1728 225 1728 335 q 1687 91 1728 144 q 1578 12 1646 38 q 1433 -14 1511 -14 z "},"⅙":{"ha":1439,"x_min":161,"x_max":1300,"o":"m 205 417 l 205 1110 l 181 1110 l 181 1146 l 238 1146 l 238 417 l 205 417 m 161 0 l 967 1146 l 1014 1146 l 208 0 l 161 0 m 1013 -14 q 860 21 924 -14 q 763 112 797 56 q 729 228 729 167 q 751 329 729 279 q 804 412 772 379 l 1111 729 l 1157 729 l 893 455 q 958 477 926 470 q 1024 485 990 485 q 1161 452 1098 485 q 1262 364 1224 420 q 1300 233 1300 307 q 1263 106 1300 162 q 1160 18 1225 50 q 1013 -14 1095 -14 m 1013 18 q 1142 46 1085 18 q 1232 122 1199 74 q 1265 233 1265 171 q 1232 346 1265 297 q 1143 424 1199 395 q 1019 452 1087 452 q 891 423 949 452 q 799 343 833 393 q 764 230 764 292 q 794 125 764 173 q 881 47 825 76 q 1013 18 937 18 z "},"⅚":{"ha":1894,"x_min":219,"x_max":1756,"o":"m 515 403 q 333 444 414 403 q 219 561 251 486 l 253 577 q 353 474 283 510 q 517 438 424 438 q 702 492 633 438 q 772 643 772 546 q 737 763 772 713 q 642 839 702 813 q 508 866 583 866 q 376 841 437 866 q 261 765 315 816 l 325 1146 l 756 1146 l 756 1114 l 353 1114 l 301 833 q 401 882 347 867 q 516 896 454 897 q 731 822 652 893 q 810 642 810 751 q 769 508 810 561 q 660 429 728 455 q 515 403 593 403 m 617 0 l 1422 1146 l 1469 1146 l 664 0 l 617 0 m 1468 -14 q 1316 21 1379 -14 q 1218 112 1252 56 q 1185 228 1185 167 q 1206 329 1185 279 q 1260 412 1228 379 l 1567 729 l 1613 729 l 1349 455 q 1414 477 1381 470 q 1479 485 1446 485 q 1616 452 1553 485 q 1717 364 1679 420 q 1756 233 1756 307 q 1718 106 1756 162 q 1616 18 1681 50 q 1468 -14 1551 -14 m 1468 18 q 1598 46 1541 18 q 1688 122 1655 74 q 1721 233 1721 171 q 1688 346 1721 297 q 1598 424 1654 395 q 1474 452 1542 452 q 1347 423 1405 452 q 1254 343 1289 393 q 1219 230 1219 292 q 1250 125 1219 173 q 1336 47 1281 76 q 1468 18 1392 18 z "},"⅐":{"ha":1450,"x_min":161,"x_max":1311,"o":"m 205 417 l 205 1110 l 181 1110 l 181 1146 l 238 1146 l 238 417 l 205 417 m 161 0 l 967 1146 l 1014 1146 l 208 0 l 161 0 m 868 0 l 1259 697 l 870 697 l 870 729 l 1311 729 l 1311 715 l 910 0 l 868 0 z "},"⅛":{"ha":1532,"x_min":161,"x_max":1293,"o":"m 205 417 l 205 1110 l 181 1110 l 181 1146 l 238 1146 l 238 417 l 205 417 m 161 0 l 967 1146 l 1014 1146 l 208 0 l 161 0 m 1061 -15 q 941 13 994 -15 q 859 88 889 41 q 829 193 829 135 q 870 314 829 260 q 978 390 910 367 q 891 459 924 412 q 858 563 858 506 q 884 658 858 616 q 957 725 911 700 q 1061 750 1003 750 q 1165 725 1119 750 q 1238 658 1211 701 q 1265 563 1265 616 q 1232 459 1265 506 q 1144 390 1199 412 q 1252 314 1212 367 q 1293 193 1293 260 q 1263 88 1293 135 q 1181 13 1233 41 q 1061 -15 1128 -15 m 1061 18 q 1200 69 1146 18 q 1255 194 1255 119 q 1230 285 1255 245 q 1160 348 1204 325 q 1061 372 1117 372 q 963 349 1007 372 q 893 286 919 326 q 867 195 867 247 q 922 69 867 119 q 1061 18 976 18 m 1061 406 q 1181 450 1133 406 q 1229 563 1229 495 q 1181 675 1229 630 q 1061 720 1133 720 q 941 675 990 720 q 893 563 893 630 q 941 450 893 495 q 1061 406 990 406 z "},"⅜":{"ha":1873,"x_min":222,"x_max":1634,"o":"m 456 402 q 290 455 356 402 q 222 596 224 508 l 258 602 q 315 484 258 529 q 456 439 371 439 q 590 483 540 439 q 640 598 640 528 q 615 689 640 648 q 549 753 590 729 q 459 777 508 777 q 432 774 443 777 l 432 806 l 453 806 q 546 829 505 806 q 611 890 588 852 q 635 974 635 928 q 613 1055 635 1019 q 551 1112 590 1091 q 467 1133 513 1133 q 384 1112 422 1133 q 323 1055 346 1090 q 299 974 300 1019 l 266 979 q 295 1076 267 1033 q 368 1142 322 1118 q 468 1167 414 1167 q 572 1141 526 1167 q 645 1071 618 1115 q 672 975 672 1027 q 634 863 672 914 q 535 792 597 811 q 637 726 594 778 q 679 599 679 674 q 653 499 679 544 q 576 428 626 454 q 456 402 526 402 m 502 0 l 1308 1146 l 1355 1146 l 549 0 l 502 0 m 1402 -15 q 1282 13 1335 -15 q 1200 88 1230 41 q 1170 193 1170 135 q 1211 314 1170 260 q 1319 390 1251 367 q 1232 459 1265 412 q 1199 563 1199 506 q 1225 658 1199 616 q 1298 725 1252 700 q 1402 750 1344 750 q 1506 725 1460 750 q 1579 658 1552 701 q 1606 563 1606 616 q 1573 459 1606 506 q 1485 390 1540 412 q 1593 314 1553 367 q 1634 193 1634 260 q 1604 88 1634 135 q 1522 13 1574 41 q 1402 -15 1469 -15 m 1402 18 q 1541 69 1487 18 q 1596 194 1596 119 q 1570 285 1596 245 q 1501 348 1545 325 q 1402 372 1458 372 q 1304 349 1348 372 q 1234 286 1260 326 q 1208 195 1208 247 q 1263 69 1208 119 q 1402 18 1317 18 m 1402 406 q 1522 450 1474 406 q 1570 563 1570 495 q 1522 675 1570 630 q 1402 720 1474 720 q 1282 675 1331 720 q 1234 563 1234 630 q 1282 450 1234 495 q 1402 406 1331 406 z "},"⅝":{"ha":1988,"x_min":219,"x_max":1749,"o":"m 515 403 q 333 444 414 403 q 219 561 251 486 l 253 577 q 353 474 283 510 q 517 438 424 438 q 702 492 633 438 q 772 643 772 546 q 737 763 772 713 q 642 839 702 813 q 508 866 583 866 q 376 841 437 866 q 261 765 315 816 l 325 1146 l 756 1146 l 756 1114 l 353 1114 l 301 833 q 401 882 347 867 q 516 896 454 897 q 731 822 652 893 q 810 642 810 751 q 769 508 810 561 q 660 429 728 455 q 515 403 593 403 m 617 0 l 1422 1146 l 1469 1146 l 664 0 l 617 0 m 1517 -15 q 1397 13 1449 -15 q 1315 88 1344 41 q 1285 193 1285 135 q 1325 314 1285 260 q 1434 390 1366 367 q 1346 459 1379 412 q 1313 563 1313 506 q 1340 658 1313 616 q 1413 725 1367 700 q 1517 750 1458 750 q 1621 725 1575 750 q 1693 658 1667 701 q 1720 563 1720 616 q 1688 459 1720 506 q 1599 390 1655 412 q 1708 314 1667 367 q 1749 193 1749 260 q 1718 88 1749 135 q 1636 13 1688 41 q 1517 -15 1584 -15 m 1517 18 q 1656 69 1601 18 q 1710 194 1710 119 q 1685 285 1710 245 q 1616 348 1660 325 q 1517 372 1572 372 q 1418 349 1463 372 q 1349 286 1374 326 q 1323 195 1323 247 q 1377 69 1323 119 q 1517 18 1432 18 m 1517 406 q 1637 450 1589 406 q 1685 563 1685 495 q 1636 675 1685 630 q 1517 720 1588 720 q 1397 675 1445 720 q 1349 563 1349 630 q 1397 450 1349 495 q 1517 406 1445 406 z "},"⅞":{"ha":1738,"x_min":208,"x_max":1499,"o":"m 208 417 l 599 1114 l 210 1114 l 210 1146 l 651 1146 l 651 1131 l 251 417 l 208 417 m 367 0 l 1172 1146 l 1219 1146 l 414 0 l 367 0 m 1267 -15 q 1147 13 1199 -15 q 1065 88 1094 41 q 1035 193 1035 135 q 1075 314 1035 260 q 1184 390 1116 367 q 1096 459 1129 412 q 1063 563 1063 506 q 1090 658 1063 616 q 1163 725 1117 700 q 1267 750 1208 750 q 1371 725 1325 750 q 1443 658 1417 701 q 1470 563 1470 616 q 1438 459 1470 506 q 1349 390 1405 412 q 1458 314 1417 367 q 1499 193 1499 260 q 1468 88 1499 135 q 1386 13 1438 41 q 1267 -15 1334 -15 m 1267 18 q 1406 69 1351 18 q 1460 194 1460 119 q 1435 285 1460 245 q 1366 348 1410 325 q 1267 372 1322 372 q 1168 349 1213 372 q 1099 286 1124 326 q 1073 195 1073 247 q 1127 69 1073 119 q 1267 18 1182 18 m 1267 406 q 1387 450 1339 406 q 1435 563 1435 495 q 1386 675 1435 630 q 1267 720 1338 720 q 1147 675 1195 720 q 1099 563 1099 630 q 1147 450 1099 495 q 1267 406 1195 406 z "},"⅑":{"ha":1618,"x_min":161,"x_max":1390,"o":"m 205 417 l 205 1110 l 181 1110 l 181 1146 l 238 1146 l 238 417 l 205 417 m 161 0 l 967 1146 l 1014 1146 l 208 0 l 161 0 m 962 0 l 1233 284 q 1171 257 1205 266 q 1099 247 1137 247 q 962 279 1026 247 q 858 368 898 311 q 819 501 819 425 q 856 628 819 572 q 958 717 893 685 q 1106 750 1023 750 q 1254 717 1190 750 q 1354 627 1318 683 q 1390 502 1390 571 q 1381 437 1390 469 q 1355 376 1372 405 q 1314 321 1338 347 l 1008 0 l 962 0 m 1103 281 q 1229 311 1173 281 q 1319 392 1285 342 q 1352 503 1352 442 q 1322 610 1352 562 q 1236 687 1291 658 q 1106 716 1181 716 q 978 688 1035 716 q 889 612 922 660 q 856 501 856 563 q 890 387 856 436 q 981 309 924 338 q 1103 281 1038 281 z "},"⅒":{"ha":1960,"x_min":161,"x_max":1856,"o":"m 205 417 l 205 1110 l 181 1110 l 181 1146 l 238 1146 l 238 417 l 205 417 m 161 0 l 967 1146 l 1014 1146 l 208 0 l 161 0 m 892 0 l 892 694 l 868 694 l 868 729 l 925 729 l 925 0 l 892 0 m 1494 -15 q 1305 34 1386 -15 q 1178 168 1224 82 q 1133 368 1133 254 q 1178 568 1133 482 q 1305 702 1224 654 q 1494 750 1386 750 q 1684 702 1603 750 q 1810 568 1765 654 q 1856 368 1856 482 q 1810 168 1856 254 q 1684 34 1765 82 q 1494 -15 1603 -15 m 1494 19 q 1663 63 1591 19 q 1776 185 1735 107 q 1816 368 1816 264 q 1776 551 1816 473 q 1663 673 1735 629 q 1494 717 1590 717 q 1326 673 1399 717 q 1214 551 1254 629 q 1173 368 1173 473 q 1213 185 1173 264 q 1326 63 1253 107 q 1494 19 1399 19 z "},".":{"ha":510,"x_min":222,"x_max":288,"o":"m 255 -22 q 238 -18 246 -22 q 226 -6 231 -13 q 222 11 222 2 q 226 28 222 20 q 238 40 231 35 q 255 44 246 44 q 272 40 264 44 q 284 28 279 35 q 288 11 288 20 q 284 -6 288 2 q 272 -18 279 -13 q 255 -22 264 -22 z "},",":{"ha":492,"x_min":210,"x_max":284,"o":"m 226 -129 l 219 -122 q 233 -94 228 -109 q 241 -61 238 -79 q 244 -22 244 -44 q 220 -12 231 -22 q 210 11 210 -2 q 220 35 210 26 q 244 44 229 44 q 273 33 261 44 q 284 -3 284 21 q 265 -76 284 -37 q 226 -129 246 -115 z "},":":{"ha":488,"x_min":210,"x_max":277,"o":"m 244 703 q 227 707 235 703 q 215 719 219 712 q 210 736 210 727 q 215 753 210 745 q 227 765 219 760 q 244 769 235 769 q 260 765 253 769 q 273 753 268 760 q 277 736 277 745 q 273 719 277 727 q 260 707 268 712 q 244 703 253 703 m 244 -22 q 227 -18 235 -22 q 215 -6 219 -13 q 210 11 210 2 q 215 28 210 20 q 227 40 219 35 q 244 44 235 44 q 260 40 253 44 q 273 28 268 35 q 277 11 277 20 q 273 -6 277 2 q 260 -18 268 -13 q 244 -22 253 -22 z "},";":{"ha":488,"x_min":210,"x_max":284,"o":"m 244 703 q 227 707 235 703 q 215 719 219 712 q 210 736 210 727 q 215 753 210 745 q 227 765 219 760 q 244 769 235 769 q 260 765 253 769 q 273 753 268 760 q 277 736 277 745 q 273 719 277 727 q 260 707 268 712 q 244 703 253 703 m 226 -129 l 219 -122 q 233 -94 228 -109 q 241 -61 238 -79 q 244 -22 244 -44 q 220 -12 231 -22 q 210 11 210 -2 q 220 35 210 26 q 244 44 229 44 q 273 33 261 44 q 284 -3 284 21 q 265 -76 284 -37 q 226 -129 246 -115 z "},"…":{"ha":797,"x_min":222,"x_max":576,"o":"m 255 -22 q 238 -18 246 -22 q 226 -6 231 -13 q 222 11 222 2 q 226 28 222 20 q 238 40 231 35 q 255 44 246 44 q 272 40 264 44 q 284 28 279 35 q 288 11 288 20 q 284 -6 288 2 q 272 -18 279 -13 q 255 -22 264 -22 m 399 -22 q 383 -18 390 -22 q 370 -6 375 -13 q 366 11 366 2 q 370 28 366 20 q 383 40 375 35 q 399 44 390 44 q 416 40 408 44 q 428 28 424 35 q 433 11 433 20 q 428 -6 433 2 q 416 -18 424 -13 q 399 -22 408 -22 m 542 -22 q 526 -18 533 -22 q 514 -6 518 -13 q 509 11 509 2 q 514 28 509 20 q 526 40 518 35 q 542 44 533 44 q 559 40 551 44 q 571 28 567 35 q 576 11 576 20 q 571 -6 576 2 q 559 -18 567 -13 q 542 -22 551 -22 z "},"!":{"ha":493,"x_min":213,"x_max":280,"o":"m 228 233 l 228 1194 l 265 1194 l 265 233 l 228 233 m 247 -22 q 230 -18 238 -22 q 218 -6 222 -13 q 213 11 213 2 q 218 28 213 20 q 230 40 222 35 q 247 44 238 44 q 263 40 256 44 q 275 28 271 35 q 280 11 280 20 q 275 -6 280 2 q 263 -18 271 -13 q 247 -22 256 -22 z "},"¡":{"ha":493,"x_min":213,"x_max":280,"o":"m 228 -362 l 228 599 l 265 599 l 265 -362 l 228 -362 m 247 788 q 230 792 238 788 q 218 804 222 797 q 213 821 213 812 q 218 838 213 830 q 230 850 222 845 q 247 854 238 854 q 263 850 256 854 q 275 838 271 845 q 280 821 280 830 q 275 804 280 812 q 263 792 271 797 q 247 788 256 788 z "},"?":{"ha":972,"x_min":143,"x_max":818,"o":"m 444 -22 q 428 -18 435 -22 q 416 -6 420 -13 q 411 11 411 2 q 416 28 411 20 q 428 40 420 35 q 444 44 435 44 q 461 40 453 44 q 473 28 469 35 q 478 11 478 20 q 473 -6 478 2 q 461 -18 469 -13 q 444 -22 453 -22 m 428 257 l 428 517 q 447 515 440 515 q 465 514 454 514 q 625 551 554 514 q 738 657 697 588 q 779 826 779 727 q 741 989 779 921 q 634 1092 702 1056 q 479 1128 567 1128 q 263 1045 344 1128 q 182 822 182 962 l 143 822 q 188 1011 143 935 q 309 1127 233 1088 q 474 1167 384 1167 q 652 1122 575 1167 q 774 1000 730 1077 q 818 824 818 922 q 775 651 818 729 q 652 526 732 572 q 463 479 572 479 l 463 257 l 428 257 z "},"¿":{"ha":971,"x_min":153,"x_max":828,"o":"m 497 -382 q 319 -337 397 -382 q 198 -215 242 -292 q 153 -40 153 -137 q 197 134 153 56 q 319 259 240 213 q 509 306 399 306 l 509 528 l 544 528 l 544 268 q 525 270 532 269 q 507 271 517 271 q 346 234 417 271 q 234 127 275 197 q 192 -41 192 58 q 231 -204 192 -136 q 338 -307 269 -272 q 492 -343 406 -343 q 709 -260 628 -343 q 790 -37 790 -177 l 828 -37 q 783 -227 828 -150 q 663 -343 738 -303 q 497 -382 588 -382 m 527 740 q 510 745 518 740 q 498 757 503 749 q 494 774 494 765 q 498 790 494 783 q 510 802 503 798 q 527 807 518 807 q 544 802 536 807 q 556 790 551 798 q 560 774 560 783 q 556 757 560 765 q 544 745 551 749 q 527 740 536 740 z "},"·":{"ha":510,"x_min":222,"x_max":288,"o":"m 255 340 q 238 345 246 340 q 226 357 231 349 q 222 374 222 365 q 226 390 222 383 q 238 402 231 398 q 255 407 246 407 q 272 402 264 407 q 284 390 279 398 q 288 374 288 383 q 284 357 288 365 q 272 345 279 349 q 255 340 264 340 z "},"•":{"ha":523,"x_min":220,"x_max":302,"o":"m 262 456 q 241 461 251 456 q 226 476 232 467 q 220 496 220 485 q 226 516 220 507 q 241 531 232 525 q 262 536 251 536 q 282 531 273 536 q 297 516 291 525 q 302 496 302 507 q 297 476 302 485 q 282 461 291 467 q 262 456 273 456 z "},"*":{"ha":610,"x_min":186,"x_max":424,"o":"m 240 968 l 226 979 l 290 1068 l 186 1101 l 192 1118 l 296 1085 l 296 1194 l 314 1194 l 314 1085 l 418 1118 l 424 1101 l 319 1068 l 383 979 l 369 968 l 304 1057 l 240 968 z "},"#":{"ha":954,"x_min":153,"x_max":801,"o":"m 236 0 l 276 288 l 153 288 l 153 314 l 281 314 l 326 635 l 153 635 l 153 661 l 329 661 l 369 950 l 396 950 l 356 661 l 651 661 l 692 950 l 718 950 l 678 661 l 801 661 l 801 635 l 674 635 l 628 314 l 801 314 l 801 288 l 625 288 l 585 0 l 558 0 l 599 288 l 303 288 l 263 0 l 236 0 m 306 314 l 603 314 l 647 635 l 351 635 l 306 314 z "},"/":{"ha":733,"x_min":67,"x_max":667,"o":"m 67 -167 l 639 1194 l 667 1194 l 94 -167 l 67 -167 z "},"\\":{"ha":733,"x_min":67,"x_max":667,"o":"m 639 0 l 67 1194 l 94 1194 l 667 0 l 639 0 z "},"(":{"ha":528,"x_min":136,"x_max":425,"o":"m 399 -361 q 309 -228 355 -307 q 224 -48 263 -149 q 160 172 185 53 q 136 426 136 292 q 160 681 136 561 q 224 901 185 800 q 309 1081 263 1002 q 399 1215 355 1160 l 425 1204 q 311 999 367 1117 q 218 737 255 881 q 182 426 182 593 q 220 109 182 255 q 314 -152 258 -37 q 425 -350 370 -268 l 399 -361 z "},")":{"ha":528,"x_min":103,"x_max":390,"o":"m 129 -361 l 103 -350 q 235 -105 181 -233 q 317 157 290 23 q 345 426 345 291 q 319 687 345 555 q 240 949 293 819 q 103 1204 186 1080 l 129 1215 q 323 851 256 1054 q 390 427 390 647 q 325 12 390 216 q 129 -361 261 -192 z "},"{":{"ha":532,"x_min":143,"x_max":431,"o":"m 410 -361 q 300 -339 343 -361 q 233 -279 257 -316 q 199 -197 208 -242 q 189 -110 189 -153 l 189 340 q 178 386 189 373 q 143 400 167 400 l 143 433 q 178 447 167 433 q 189 493 189 461 l 189 943 q 199 1031 189 986 q 233 1112 208 1075 q 300 1172 257 1149 q 410 1194 343 1194 l 431 1194 l 431 1156 l 410 1156 q 272 1100 315 1156 q 228 943 228 1045 l 228 469 q 223 436 228 449 q 208 417 219 423 q 223 398 219 410 q 228 364 228 385 l 228 -110 q 272 -267 228 -212 q 410 -322 315 -322 l 431 -322 l 431 -361 l 410 -361 z "},"}":{"ha":532,"x_min":101,"x_max":389,"o":"m 101 -361 l 101 -322 l 122 -322 q 261 -267 217 -322 q 304 -110 304 -212 l 304 364 q 309 398 304 385 q 324 417 313 410 q 309 436 313 423 q 304 469 304 449 l 304 943 q 261 1100 304 1045 q 122 1156 217 1156 l 101 1156 l 101 1194 l 122 1194 q 232 1172 189 1194 q 299 1112 275 1149 q 333 1031 324 1075 q 343 943 343 986 l 343 493 q 354 447 343 461 q 389 433 365 433 l 389 400 q 354 386 365 400 q 343 340 343 373 l 343 -110 q 333 -197 343 -153 q 299 -279 324 -242 q 232 -339 275 -316 q 122 -361 189 -361 l 101 -361 z "},"[":{"ha":522,"x_min":196,"x_max":421,"o":"m 196 -361 l 196 1194 l 421 1194 l 421 1156 l 235 1156 l 235 -322 l 421 -322 l 421 -361 l 196 -361 z "},"]":{"ha":522,"x_min":101,"x_max":326,"o":"m 101 -361 l 101 -322 l 288 -322 l 288 1156 l 101 1156 l 101 1194 l 326 1194 l 326 -361 l 101 -361 z "},"-":{"ha":774,"x_min":163,"x_max":610,"o":"m 163 386 l 163 419 l 610 419 l 610 386 l 163 386 z "},"­":{"ha":774,"x_min":163,"x_max":610,"o":"m 163 386 l 163 419 l 610 419 l 610 386 l 163 386 z "},"–":{"ha":865,"x_min":163,"x_max":702,"o":"m 163 386 l 163 418 l 702 418 l 702 386 l 163 386 z "},"—":{"ha":1369,"x_min":163,"x_max":1206,"o":"m 163 386 l 163 418 l 1206 418 l 1206 386 l 163 386 z "},"_":{"ha":1039,"x_min":163,"x_max":876,"o":"m 163 -139 l 163 -111 l 876 -111 l 876 -139 l 163 -139 z "},"‚":{"ha":492,"x_min":176,"x_max":249,"o":"m 191 -129 l 184 -122 q 198 -94 193 -109 q 206 -61 203 -79 q 209 -22 209 -44 q 186 -12 196 -22 q 176 11 176 -2 q 185 35 176 26 q 210 44 194 44 q 238 33 226 44 q 249 -3 249 21 q 230 -76 249 -37 q 191 -129 211 -115 z "},"„":{"ha":516,"x_min":169,"x_max":347,"o":"m 184 -129 l 177 -122 q 191 -94 186 -109 q 199 -61 197 -79 q 202 -22 202 -44 q 179 -12 189 -22 q 169 11 169 -2 q 178 35 169 26 q 203 44 188 44 q 231 33 219 44 q 242 -3 242 21 q 223 -76 242 -37 q 184 -129 204 -115 m 288 -129 l 281 -122 q 295 -94 290 -109 q 303 -61 301 -79 q 306 -22 306 -44 q 283 -12 293 -22 q 273 11 273 -2 q 282 35 273 26 q 307 44 292 44 q 335 33 324 44 q 347 -3 347 21 q 327 -76 347 -37 q 288 -129 308 -115 z "},"“":{"ha":544,"x_min":183,"x_max":360,"o":"m 326 992 q 298 1003 310 992 q 287 1040 287 1015 q 306 1113 287 1074 q 345 1165 326 1151 l 352 1158 q 338 1131 344 1146 q 330 1098 333 1115 q 327 1058 327 1080 q 351 1049 341 1058 q 360 1025 360 1039 q 351 1001 360 1010 q 326 992 342 992 m 222 992 q 194 1003 206 992 q 183 1040 183 1015 q 202 1113 183 1074 q 241 1165 222 1151 l 248 1158 q 234 1131 240 1146 q 226 1098 228 1115 q 223 1058 223 1080 q 247 1049 237 1058 q 256 1025 256 1039 q 247 1001 256 1010 q 222 992 238 992 z "},"”":{"ha":544,"x_min":183,"x_max":360,"o":"m 302 993 l 295 1000 q 309 1028 304 1013 q 317 1061 315 1043 q 320 1100 320 1078 q 297 1110 307 1100 q 287 1133 287 1120 q 296 1157 287 1148 q 321 1167 306 1167 q 349 1155 338 1167 q 360 1119 360 1143 q 341 1046 360 1085 q 302 993 322 1008 m 198 993 l 191 1000 q 205 1028 200 1013 q 213 1061 210 1043 q 216 1100 216 1078 q 193 1110 203 1100 q 183 1133 183 1120 q 192 1157 183 1148 q 217 1167 201 1167 q 245 1155 233 1167 q 256 1119 256 1143 q 237 1046 256 1085 q 198 993 218 1008 z "},"‘":{"ha":428,"x_min":177,"x_max":251,"o":"m 217 992 q 189 1003 200 992 q 177 1040 177 1015 q 197 1113 177 1074 q 235 1165 216 1151 l 242 1158 q 228 1131 234 1146 q 220 1098 223 1115 q 217 1058 217 1080 q 241 1049 231 1058 q 251 1025 251 1039 q 241 1001 251 1010 q 217 992 232 992 z "},"’":{"ha":427,"x_min":178,"x_max":251,"o":"m 193 993 l 186 1000 q 200 1028 195 1013 q 208 1061 206 1043 q 211 1100 211 1078 q 188 1110 198 1100 q 178 1133 178 1120 q 187 1157 178 1148 q 212 1167 197 1167 q 240 1155 228 1167 q 251 1119 251 1143 q 232 1046 251 1085 q 193 993 213 1008 z "},"«":{"ha":728,"x_min":110,"x_max":610,"o":"m 381 39 l 110 386 l 381 733 l 413 708 l 161 386 l 413 64 l 381 39 m 578 39 l 308 386 l 578 733 l 610 708 l 359 386 l 610 64 l 578 39 z "},"»":{"ha":728,"x_min":117,"x_max":618,"o":"m 347 39 l 315 64 l 567 386 l 315 708 l 347 733 l 618 386 l 347 39 m 149 39 l 117 64 l 369 386 l 117 708 l 149 733 l 420 386 l 149 39 z "},"‹":{"ha":530,"x_min":110,"x_max":413,"o":"m 381 39 l 110 386 l 381 733 l 413 708 l 161 386 l 413 64 l 381 39 z "},"›":{"ha":530,"x_min":117,"x_max":420,"o":"m 149 39 l 117 64 l 369 386 l 117 708 l 149 733 l 420 386 l 149 39 z "},"\"":{"ha":531,"x_min":192,"x_max":339,"o":"m 296 950 l 288 1146 l 339 1146 l 331 950 l 296 950 m 200 950 l 192 1146 l 243 1146 l 235 950 l 200 950 z "},"'":{"ha":435,"x_min":192,"x_max":243,"o":"m 200 950 l 192 1146 l 243 1146 l 235 950 l 200 950 z "}," ":{"ha":347,"x_min":0,"x_max":0,"o":""}," ":{"ha":347,"x_min":0,"x_max":0,"o":""},"\r":{"ha":347,"x_min":0,"x_max":0,"o":""},"¢":{"ha":995,"x_min":192,"x_max":817,"o":"m 553 -179 l 553 -22 q 366 32 448 -18 q 238 167 285 83 q 192 356 192 251 q 233 535 192 455 q 350 668 275 616 q 522 731 424 719 l 522 883 l 553 883 l 553 733 q 700 713 638 733 q 817 649 763 693 l 803 621 q 697 684 756 663 q 571 706 638 706 q 393 660 471 706 q 271 536 315 615 q 226 355 226 457 q 270 176 226 254 q 392 52 314 97 q 571 7 469 7 q 699 28 639 7 q 803 89 758 49 l 817 61 q 711 1 770 23 q 585 -22 651 -20 l 585 -179 l 553 -179 z "},"¤":{"ha":847,"x_min":100,"x_max":747,"o":"m 121 137 l 100 158 l 192 250 q 133 345 154 292 q 111 460 111 399 q 133 575 111 522 q 192 671 154 629 l 100 763 l 121 784 l 213 692 q 309 751 255 730 q 424 773 363 773 q 539 751 485 773 q 634 692 592 730 l 726 784 l 747 763 l 655 671 q 715 575 693 629 q 736 460 736 522 q 715 345 736 399 q 655 250 693 292 l 747 158 l 726 137 l 634 229 q 539 169 592 191 q 424 148 485 148 q 309 169 363 148 q 213 229 255 191 l 121 137 m 424 177 q 566 215 502 177 q 669 318 631 253 q 707 460 707 382 q 669 603 707 539 q 566 706 631 667 q 424 744 502 744 q 281 706 345 744 q 178 603 217 667 q 140 460 140 539 q 178 318 140 382 q 281 215 217 253 q 424 177 345 177 z "},"$":{"ha":1050,"x_min":169,"x_max":872,"o":"m 529 -192 l 529 -21 q 416 0 474 -21 q 306 57 358 22 q 218 137 255 93 q 169 228 182 181 l 200 243 q 278 124 225 176 q 400 44 331 73 q 545 15 470 15 q 692 49 626 15 q 797 143 758 82 q 836 288 836 205 q 808 406 836 358 q 734 487 781 454 q 630 544 688 520 q 513 592 572 569 q 377 653 440 619 q 276 738 315 686 q 238 875 238 790 q 276 1024 238 958 q 380 1128 314 1090 q 529 1167 447 1167 l 529 1338 l 561 1338 l 561 1165 q 709 1113 642 1158 q 804 1000 776 1067 l 772 983 q 679 1089 747 1048 q 530 1131 611 1131 q 397 1096 455 1131 q 306 1003 339 1061 q 272 876 272 945 q 309 754 272 801 q 406 678 347 708 q 532 624 466 649 q 659 571 598 598 q 768 507 720 544 q 844 418 816 471 q 872 290 872 366 q 834 134 872 202 q 725 26 795 67 q 561 -19 655 -14 l 561 -192 l 529 -192 z "},"€":{"ha":1414,"x_min":178,"x_max":1240,"o":"m 872 -21 q 605 37 726 -21 q 402 198 484 94 q 291 439 320 301 l 178 439 l 178 471 l 285 471 q 279 522 281 496 q 277 574 277 548 q 279 624 277 599 q 285 672 281 649 l 178 672 l 178 704 l 291 704 q 367 890 313 806 q 499 1037 421 975 q 672 1133 576 1099 q 872 1167 767 1167 q 1065 1135 971 1167 q 1238 1042 1158 1103 l 1213 1010 q 1053 1098 1140 1067 q 872 1128 966 1128 q 633 1074 744 1128 q 443 925 522 1020 q 335 704 365 829 l 1044 704 l 1044 672 l 328 672 q 321 620 324 644 q 319 574 319 596 q 321 526 319 551 q 328 471 324 501 l 1044 471 l 1044 439 l 334 439 q 440 217 363 312 q 627 70 516 123 q 872 18 738 18 q 1054 48 967 18 q 1215 133 1142 77 l 1240 103 q 1068 11 1162 42 q 872 -21 974 -21 z "},"ƒ":{"ha":622,"x_min":-62,"x_max":590,"o":"m 39 -383 q -18 -375 7 -383 q -62 -351 -44 -367 l -45 -322 q 36 -349 -16 -349 q 136 -306 98 -349 q 181 -184 174 -262 l 272 682 l 214 682 l 217 711 l 275 711 l 306 1010 q 336 1124 314 1078 q 397 1192 359 1169 q 489 1215 435 1215 q 547 1207 522 1215 q 590 1183 572 1199 l 573 1154 q 492 1182 544 1182 q 392 1139 431 1182 q 347 1017 354 1095 l 314 711 l 503 711 l 500 682 l 311 682 l 222 -177 q 192 -291 215 -245 q 131 -360 169 -337 q 39 -383 92 -383 z "},"£":{"ha":1239,"x_min":171,"x_max":1065,"o":"m 815 -21 q 707 -1 755 -21 q 616 44 659 18 q 529 89 573 69 q 432 108 485 108 q 352 94 391 108 q 286 56 313 81 q 253 0 259 32 l 217 0 q 247 63 221 33 q 316 115 274 94 q 413 140 359 136 q 436 218 426 174 q 446 307 446 263 q 434 386 446 353 q 406 447 422 418 l 171 447 l 171 479 l 385 479 q 305 614 342 541 q 268 792 268 687 q 316 989 268 905 q 447 1120 364 1073 q 637 1167 531 1167 q 803 1133 726 1167 q 936 1032 881 1099 q 1013 869 992 966 l 978 863 q 926 989 966 926 q 815 1094 885 1052 q 639 1136 744 1136 q 461 1092 536 1136 q 345 971 386 1049 q 304 790 304 893 q 323 662 304 717 q 369 563 342 607 q 421 479 396 519 l 806 479 l 806 447 l 439 447 q 467 383 457 415 q 478 308 478 351 q 470 229 478 272 q 442 142 462 186 q 538 123 492 142 q 627 78 583 103 q 718 34 672 53 q 819 15 765 15 q 929 44 884 15 q 999 118 974 74 q 1029 211 1024 163 l 1065 193 q 1022 86 1056 135 q 936 8 989 38 q 815 -21 883 -21 z "},"¥":{"ha":1126,"x_min":163,"x_max":964,"o":"m 543 0 l 543 250 l 278 250 l 278 282 l 543 282 l 543 483 l 278 483 l 278 515 l 529 515 l 163 1146 l 210 1146 l 563 536 l 917 1146 l 964 1146 l 597 515 l 849 515 l 849 483 l 583 483 l 583 282 l 849 282 l 849 250 l 583 250 l 583 0 l 543 0 z "},"+":{"ha":1029,"x_min":159,"x_max":870,"o":"m 498 219 l 498 558 l 159 558 l 159 592 l 498 592 l 498 931 l 531 931 l 531 592 l 870 592 l 870 558 l 531 558 l 531 219 l 498 219 z "},"−":{"ha":1200,"x_min":244,"x_max":956,"o":"m 244 558 l 244 592 l 956 592 l 956 558 l 244 558 z "},"×":{"ha":926,"x_min":165,"x_max":762,"o":"m 187 276 l 165 300 l 441 575 l 165 851 l 188 874 l 463 597 l 740 874 l 762 851 l 485 575 l 762 300 l 738 276 l 463 553 l 187 276 z "},"÷":{"ha":1042,"x_min":146,"x_max":857,"o":"m 146 560 l 146 593 l 857 593 l 857 560 l 146 560 m 501 192 q 478 202 488 192 q 468 225 468 212 q 478 249 468 239 q 501 258 488 258 q 525 249 515 258 q 535 225 535 239 q 525 202 535 212 q 501 192 515 192 m 501 894 q 478 905 488 894 q 468 928 468 915 q 478 951 468 942 q 501 961 488 961 q 525 951 515 961 q 535 928 535 942 q 525 905 535 915 q 501 894 515 894 z "},"=":{"ha":1200,"x_min":244,"x_max":956,"o":"m 244 686 l 244 719 l 956 719 l 956 686 l 244 686 m 244 432 l 244 465 l 956 465 l 956 432 l 244 432 z "},"≠":{"ha":1069,"x_min":179,"x_max":890,"o":"m 267 214 l 393 432 l 179 432 l 179 465 l 411 465 l 540 686 l 179 686 l 179 719 l 561 719 l 685 932 l 718 932 l 594 719 l 890 719 l 890 686 l 574 686 l 444 465 l 890 465 l 890 432 l 426 432 l 300 214 l 267 214 z "},">":{"ha":1078,"x_min":163,"x_max":922,"o":"m 163 188 l 163 225 l 881 578 l 163 931 l 163 968 l 922 590 l 922 565 l 163 188 z "},"<":{"ha":1078,"x_min":156,"x_max":916,"o":"m 916 188 l 156 565 l 156 590 l 916 968 l 916 931 l 198 578 l 916 225 l 916 188 z "},"≥":{"ha":1097,"x_min":174,"x_max":934,"o":"m 174 285 l 174 317 l 898 675 l 174 1033 l 174 1065 l 934 688 l 934 663 l 174 285 m 174 135 l 174 168 l 934 168 l 934 135 l 174 135 z "},"≤":{"ha":1097,"x_min":163,"x_max":923,"o":"m 923 285 l 163 663 l 163 688 l 923 1065 l 923 1033 l 199 675 l 923 317 l 923 285 m 163 135 l 163 168 l 923 168 l 923 135 l 163 135 z "},"±":{"ha":1047,"x_min":168,"x_max":879,"o":"m 507 219 l 507 558 l 168 558 l 168 592 l 507 592 l 507 931 l 540 931 l 540 592 l 879 592 l 879 558 l 540 558 l 540 219 l 507 219 m 168 0 l 168 33 l 879 33 l 879 0 l 168 0 z "},"≈":{"ha":1153,"x_min":244,"x_max":908,"o":"m 715 639 q 633 656 667 639 q 572 694 600 672 q 513 733 544 717 q 438 750 481 750 q 338 718 379 750 q 271 642 296 685 l 244 665 q 323 750 274 715 q 438 785 371 785 q 519 768 485 785 q 581 729 553 751 q 640 690 609 707 q 715 674 672 674 q 809 702 766 674 q 882 782 852 730 l 908 758 q 855 693 885 719 q 789 652 824 666 q 715 639 753 639 m 715 329 q 633 346 667 329 q 572 385 600 363 q 513 424 544 407 q 438 440 481 440 q 338 408 379 440 q 271 332 296 376 l 244 356 q 323 440 274 406 q 438 475 371 475 q 519 458 485 475 q 581 419 553 442 q 640 381 609 397 q 715 364 672 364 q 809 392 766 364 q 882 472 852 420 l 908 449 q 855 383 885 410 q 789 343 824 356 q 715 329 753 329 z "},"~":{"ha":1069,"x_min":203,"x_max":867,"o":"m 675 504 q 595 521 628 504 q 534 560 563 538 q 474 599 506 582 q 397 615 442 615 q 296 583 338 615 q 229 507 254 551 l 203 531 q 249 590 222 563 q 313 633 277 617 q 394 650 349 650 q 473 633 440 650 q 535 594 506 617 q 595 556 563 572 q 672 539 627 539 q 767 567 724 539 q 840 647 810 595 l 867 624 q 815 559 844 586 q 749 518 785 533 q 675 504 714 504 z "},"¬":{"ha":1029,"x_min":159,"x_max":870,"o":"m 837 219 l 837 558 l 159 558 l 159 592 l 870 592 l 870 219 l 837 219 z "},"^":{"ha":910,"x_min":158,"x_max":752,"o":"m 158 840 l 445 1167 l 465 1167 l 752 840 l 719 840 l 455 1143 l 191 840 l 158 840 z "},"∞":{"ha":1503,"x_min":113,"x_max":1390,"o":"m 393 94 q 290 115 340 94 q 200 174 240 135 q 137 264 160 212 q 113 378 113 316 q 137 493 113 441 q 200 583 160 545 q 290 642 240 621 q 393 663 340 663 q 522 628 462 663 q 638 535 582 594 q 751 405 694 477 q 865 535 809 477 q 981 628 921 594 q 1110 663 1041 663 q 1213 642 1163 663 q 1302 583 1263 621 q 1366 493 1342 545 q 1390 378 1390 441 q 1366 264 1390 316 q 1303 174 1342 212 q 1213 115 1263 135 q 1110 94 1163 94 q 981 128 1041 94 q 865 221 921 163 q 751 352 809 280 q 638 221 694 280 q 522 128 582 163 q 393 94 462 94 m 392 128 q 510 162 456 128 q 618 252 565 196 q 731 378 672 309 q 618 504 672 448 q 511 594 565 560 q 392 628 456 628 q 276 597 332 628 q 184 509 220 565 q 148 378 148 453 q 184 248 148 304 q 276 160 219 192 q 392 128 332 128 m 1110 128 q 1227 160 1172 128 q 1319 248 1283 192 q 1355 378 1355 304 q 1319 509 1355 453 q 1227 597 1283 565 q 1110 628 1171 628 q 993 594 1047 628 q 885 504 938 560 q 772 378 832 448 q 885 252 832 309 q 993 162 938 196 q 1110 128 1047 128 z "},"∅":{"ha":833,"x_min":100,"x_max":747,"o":"m 121 137 l 100 158 l 726 784 l 747 763 l 121 137 m 423 148 q 266 190 337 148 q 153 303 195 232 q 111 460 111 374 q 153 617 111 546 q 266 731 195 688 q 424 773 337 773 q 582 731 511 773 q 694 617 653 688 q 736 460 736 546 q 694 303 736 374 q 581 190 651 232 q 423 148 510 148 m 424 177 q 566 215 502 177 q 669 318 631 253 q 707 460 707 382 q 669 603 707 539 q 566 706 631 667 q 424 744 502 744 q 281 706 345 744 q 178 603 217 667 q 140 460 140 539 q 178 318 140 382 q 281 215 217 253 q 424 177 345 177 z "},"∫":{"ha":622,"x_min":-62,"x_max":590,"o":"m 38 -383 q -19 -375 6 -383 q -62 -351 -44 -367 l -45 -322 q 37 -349 -16 -349 q 136 -306 99 -349 q 181 -184 173 -262 l 306 1010 q 336 1124 314 1078 q 397 1192 359 1169 q 490 1215 435 1215 q 547 1207 522 1215 q 590 1183 572 1199 l 573 1154 q 491 1182 544 1182 q 392 1139 430 1182 q 347 1017 355 1095 l 222 -177 q 192 -291 215 -245 q 131 -360 169 -337 q 38 -383 92 -383 z "},"∏":{"ha":965,"x_min":203,"x_max":762,"o":"m 324 0 l 324 1156 l 203 1156 l 203 1194 l 762 1194 l 762 1156 l 641 1156 l 641 0 l 602 0 l 602 1156 l 363 1156 l 363 0 l 324 0 z "},"∑":{"ha":965,"x_min":203,"x_max":762,"o":"m 203 0 l 363 597 l 203 1194 l 762 1194 l 762 1156 l 254 1156 l 402 597 l 254 39 l 762 39 l 762 0 l 203 0 z "},"√":{"ha":1115,"x_min":203,"x_max":912,"o":"m 358 -22 l 203 423 l 244 423 l 374 44 l 646 1194 l 912 1194 l 912 1156 l 678 1156 l 397 -22 l 358 -22 z "},"∂":{"ha":1026,"x_min":124,"x_max":901,"o":"m 519 -22 q 363 6 435 -22 q 238 84 291 33 q 154 203 184 134 q 124 353 124 272 q 151 499 124 430 q 226 622 177 568 q 344 706 276 675 q 497 737 413 737 q 651 708 578 737 q 780 625 724 679 q 864 496 836 572 q 826 783 864 653 q 706 1016 788 913 q 492 1196 624 1119 l 513 1229 q 730 1046 644 1151 q 859 806 816 940 q 901 510 901 672 q 881 303 901 399 q 814 133 860 206 q 696 19 769 60 q 519 -22 624 -22 m 511 15 q 692 64 615 15 q 809 192 768 113 q 851 363 851 271 q 801 542 851 466 q 672 659 752 617 q 499 700 592 700 q 319 651 394 700 q 202 524 243 603 q 160 353 160 445 q 209 173 160 249 q 338 56 258 97 q 511 15 418 15 z "},"µ":{"ha":1015,"x_min":230,"x_max":790,"o":"m 230 -222 q 233 -61 230 -129 q 240 63 236 6 q 248 178 244 120 q 251 310 251 236 l 251 713 l 290 713 l 290 279 q 348 80 290 147 q 523 13 407 13 q 638 41 587 13 q 720 117 690 69 q 751 224 751 165 l 751 713 l 790 713 l 790 0 l 751 0 l 751 107 q 664 14 728 51 q 523 -22 599 -22 q 381 6 439 -22 q 290 92 322 35 l 290 -222 l 230 -222 z "},"%":{"ha":1576,"x_min":166,"x_max":1410,"o":"m 441 619 q 301 654 363 619 q 202 751 239 689 q 166 893 166 813 q 202 1035 166 974 q 301 1132 239 1097 q 441 1167 363 1167 q 580 1132 518 1167 q 678 1035 642 1097 q 715 893 715 974 q 678 751 715 813 q 580 654 642 689 q 441 619 518 619 m 431 0 l 1098 1146 l 1138 1146 l 472 0 l 431 0 m 441 656 q 561 686 508 656 q 644 770 614 717 q 675 893 675 824 q 645 1016 676 963 q 561 1100 615 1069 q 441 1130 508 1130 q 320 1100 373 1130 q 237 1016 267 1069 q 207 893 207 963 q 237 770 207 824 q 320 686 267 717 q 441 656 373 656 m 1135 -22 q 996 13 1058 -22 q 897 109 934 47 q 860 251 860 171 q 897 394 860 332 q 996 490 934 456 q 1135 525 1058 525 q 1275 490 1213 525 q 1374 394 1338 456 q 1410 251 1410 332 q 1374 109 1410 171 q 1275 13 1338 47 q 1135 -22 1213 -22 m 1135 15 q 1256 45 1203 15 q 1339 128 1309 75 q 1369 251 1369 182 q 1339 374 1369 321 q 1256 458 1309 428 q 1135 488 1203 488 q 1015 458 1068 488 q 932 374 963 428 q 901 251 901 321 q 932 128 901 182 q 1015 45 963 75 q 1135 15 1068 15 z "},"‰":{"ha":2243,"x_min":166,"x_max":2077,"o":"m 441 619 q 301 654 363 619 q 202 751 239 689 q 166 893 166 813 q 202 1035 166 974 q 301 1132 239 1097 q 441 1167 363 1167 q 580 1132 518 1167 q 678 1035 642 1097 q 715 893 715 974 q 678 751 715 813 q 580 654 642 689 q 441 619 518 619 m 424 0 l 1091 1146 l 1131 1146 l 465 0 l 424 0 m 440 656 q 561 686 508 656 q 644 770 614 717 q 675 893 675 824 q 644 1016 675 963 q 561 1100 614 1069 q 441 1130 508 1130 q 320 1100 373 1130 q 237 1016 267 1069 q 207 893 207 963 q 238 769 207 823 q 321 686 268 716 q 440 656 374 656 m 1119 -22 q 979 13 1041 -22 q 880 109 917 47 q 844 251 844 171 q 880 394 844 332 q 979 490 917 456 q 1119 525 1041 525 q 1258 490 1196 525 q 1356 394 1320 456 q 1392 251 1392 332 q 1356 109 1392 171 q 1258 13 1320 47 q 1119 -22 1196 -22 m 1802 -22 q 1663 13 1725 -22 q 1565 109 1601 47 q 1528 251 1528 171 q 1565 394 1528 332 q 1663 490 1601 456 q 1802 525 1725 525 q 1942 490 1880 525 q 2041 394 2004 456 q 2077 251 2077 332 q 2041 109 2077 171 q 1942 13 2004 47 q 1802 -22 1880 -22 m 1119 15 q 1239 45 1186 15 q 1322 128 1292 75 q 1353 251 1353 182 q 1322 374 1353 321 q 1239 458 1292 428 q 1119 488 1186 488 q 998 458 1051 488 q 915 374 945 428 q 885 251 885 321 q 915 128 885 182 q 998 45 945 75 q 1119 15 1051 15 m 1802 15 q 1923 45 1870 15 q 2006 128 1976 75 q 2036 251 2036 182 q 2006 374 2036 321 q 1923 458 1976 428 q 1802 488 1870 488 q 1682 458 1735 488 q 1599 374 1629 428 q 1568 251 1568 321 q 1599 128 1568 182 q 1682 45 1629 75 q 1802 15 1735 15 z "},"◊":{"ha":833,"x_min":87,"x_max":747,"o":"m 378 -56 l 87 552 l 378 1160 l 455 1160 l 747 552 l 455 -56 l 378 -56 m 417 -19 l 692 552 l 417 1124 l 141 552 l 417 -19 z "},"@":{"ha":1515,"x_min":181,"x_max":1336,"o":"m 756 -227 q 524 -181 630 -227 q 342 -55 419 -135 q 223 133 265 26 q 181 363 181 240 q 225 598 181 489 q 349 789 269 707 q 534 916 428 870 q 764 962 640 962 q 970 926 869 962 q 1155 819 1072 891 q 1287 639 1238 748 q 1336 384 1336 531 q 1329 283 1336 335 q 1305 184 1322 230 q 1258 110 1288 138 q 1182 81 1228 81 q 1098 112 1133 81 q 1050 181 1062 142 q 924 32 1008 88 q 732 -23 840 -23 q 550 25 631 -23 q 422 159 469 74 q 375 355 375 244 q 422 551 375 466 q 550 685 469 637 q 732 734 631 734 q 924 679 840 734 q 1050 530 1008 624 l 1050 712 l 1089 712 l 1089 249 q 1102 175 1089 204 q 1137 131 1115 145 q 1182 116 1158 116 q 1246 149 1219 116 q 1287 240 1273 182 q 1301 374 1301 299 q 1257 616 1301 513 q 1137 788 1213 719 q 967 890 1061 856 q 772 924 872 924 q 558 883 658 924 q 383 767 458 842 q 265 590 308 692 q 222 366 222 488 q 260 152 222 252 q 370 -25 299 51 q 539 -146 441 -102 q 757 -190 638 -190 q 1006 -130 900 -190 q 1174 16 1111 -70 l 1210 -2 q 1092 -121 1161 -71 q 938 -199 1023 -172 q 756 -227 853 -227 m 733 13 q 899 57 826 13 q 1013 178 972 101 q 1054 355 1054 255 q 1013 533 1054 456 q 899 654 972 610 q 733 698 826 698 q 568 654 641 698 q 454 533 496 610 q 413 355 413 456 q 454 178 413 255 q 568 57 496 101 q 733 13 641 13 z "},"&":{"ha":1234,"x_min":169,"x_max":1086,"o":"m 488 -22 q 332 13 405 -22 q 214 117 259 48 q 169 285 169 185 q 239 497 169 404 q 442 656 308 590 q 340 760 378 715 q 286 848 302 806 q 269 933 269 889 q 301 1053 269 1000 q 387 1136 333 1106 q 510 1167 442 1167 q 603 1150 560 1167 q 679 1101 647 1133 q 729 1024 711 1069 q 747 925 747 980 q 685 765 747 826 q 500 646 622 703 l 874 238 q 906 282 887 253 q 946 340 926 310 q 982 395 967 371 q 1000 428 997 419 l 1026 417 q 969 314 1006 372 q 897 211 933 256 l 1086 0 l 1040 0 l 875 185 q 690 31 789 84 q 488 -22 592 -22 m 487 11 q 676 62 583 11 q 853 211 769 113 l 467 631 q 269 480 336 567 q 203 284 203 392 q 242 135 203 197 q 347 43 282 74 q 487 11 412 11 m 474 671 q 603 742 549 707 q 685 820 657 776 q 714 926 714 864 q 686 1036 714 990 q 613 1107 659 1082 q 509 1132 566 1132 q 404 1106 451 1132 q 330 1035 357 1081 q 303 931 303 990 q 317 858 303 893 q 369 778 332 822 q 474 671 406 735 z "},"¶":{"ha":1014,"x_min":169,"x_max":769,"o":"m 657 0 l 657 511 l 522 511 q 332 553 410 511 q 211 668 253 595 q 169 835 169 742 q 211 999 169 928 q 332 1107 253 1069 q 522 1146 410 1146 l 769 1146 l 769 0 l 731 0 l 731 1113 l 696 1113 l 696 0 l 657 0 z "},"§":{"ha":1036,"x_min":156,"x_max":860,"o":"m 532 -382 q 397 -359 460 -382 q 284 -300 334 -337 q 201 -219 235 -262 q 156 -133 168 -175 l 190 -117 q 267 -235 215 -184 q 388 -314 319 -285 q 532 -342 457 -342 q 677 -309 613 -342 q 781 -216 742 -276 q 819 -72 819 -155 q 778 67 819 14 q 665 156 737 119 q 497 227 592 192 q 405 265 453 244 q 317 314 358 285 q 251 380 276 342 q 226 471 226 419 q 261 584 226 532 q 347 656 295 637 q 254 751 285 697 q 224 876 224 806 q 263 1026 224 960 q 369 1129 302 1092 q 517 1167 435 1167 q 609 1154 565 1167 q 688 1118 652 1141 q 751 1064 724 1094 q 793 997 778 1033 l 757 981 q 665 1086 733 1045 q 517 1127 597 1127 q 387 1093 444 1127 q 296 1002 329 1059 q 263 875 263 945 q 285 778 263 817 q 344 711 307 738 q 427 664 381 683 q 521 626 473 644 q 628 584 570 607 q 737 530 685 561 q 822 456 789 499 q 855 354 855 413 q 820 243 855 295 q 729 168 785 192 q 828 62 796 122 q 860 -72 860 2 q 816 -234 860 -164 q 698 -343 772 -303 q 532 -382 624 -382 m 693 186 q 752 223 726 198 q 792 283 778 249 q 807 354 807 317 q 778 441 807 402 q 683 515 750 479 q 499 590 615 551 q 444 611 465 602 q 383 640 422 621 q 331 606 356 631 q 290 545 306 581 q 275 467 275 510 q 302 380 275 415 q 384 318 330 345 q 518 263 438 292 q 593 236 567 246 q 639 215 618 226 q 693 186 659 205 z "},"©":{"ha":1517,"x_min":180,"x_max":1338,"o":"m 758 -22 q 530 23 635 -22 q 346 148 424 67 q 224 336 267 228 q 180 569 180 444 q 224 803 180 694 q 348 993 269 911 q 532 1121 427 1075 q 758 1167 637 1167 q 985 1121 880 1167 q 1170 993 1090 1075 q 1294 803 1249 912 q 1338 569 1338 695 q 1294 337 1338 444 q 1171 149 1250 229 q 986 23 1092 68 q 758 -22 881 -22 m 758 15 q 970 57 872 15 q 1141 175 1068 99 q 1256 351 1215 250 q 1297 569 1297 452 q 1255 789 1297 687 q 1140 967 1214 890 q 969 1086 1067 1043 q 758 1129 871 1129 q 549 1086 646 1129 q 378 966 451 1043 q 263 788 304 890 q 222 569 222 686 q 262 350 222 451 q 375 174 302 249 q 545 57 448 99 q 758 15 643 15 m 768 199 q 577 248 662 199 q 444 381 493 297 q 395 571 395 465 q 444 761 395 677 q 577 893 492 844 q 769 942 662 942 q 899 921 837 942 q 1009 861 960 900 l 985 830 q 772 901 894 901 q 603 858 678 901 q 485 740 528 815 q 442 571 442 665 q 485 402 442 477 q 603 285 528 328 q 773 242 678 242 q 888 260 833 242 q 985 312 942 278 l 1009 280 q 768 199 903 199 z "},"®":{"ha":1010,"x_min":184,"x_max":825,"o":"m 505 535 q 344 578 417 535 q 227 695 271 622 q 184 855 184 767 q 227 1016 184 943 q 344 1133 271 1089 q 505 1176 417 1176 q 666 1133 593 1176 q 782 1017 738 1090 q 825 855 825 944 q 782 693 825 766 q 666 578 738 621 q 505 535 593 535 m 504 566 q 650 605 584 566 q 755 710 715 644 q 794 855 794 776 q 755 1000 794 935 q 650 1106 716 1066 q 505 1145 584 1145 q 359 1106 425 1145 q 255 1000 294 1066 q 215 855 215 935 q 255 709 215 775 q 359 605 294 644 q 504 566 425 566 m 410 641 l 410 1069 l 478 1069 q 575 1038 540 1069 q 610 953 610 1006 q 577 867 610 901 q 488 832 544 834 l 635 641 l 599 641 l 455 831 l 439 831 l 439 641 l 410 641 m 439 854 l 473 854 q 551 881 522 854 q 581 953 581 908 q 551 1020 581 997 q 473 1044 522 1044 l 439 1044 l 439 854 z "},"™":{"ha":992,"x_min":153,"x_max":780,"o":"m 410 788 l 458 1146 l 486 1146 l 594 858 l 703 1146 l 732 1146 l 780 788 l 753 788 l 710 1094 l 606 811 l 584 811 l 479 1094 l 437 788 l 410 788 m 265 788 l 265 1122 l 153 1122 l 153 1146 l 405 1146 l 405 1122 l 294 1122 l 294 788 l 265 788 z "},"°":{"ha":719,"x_min":219,"x_max":501,"o":"m 359 929 q 257 970 295 929 q 219 1072 219 1011 q 260 1175 219 1135 q 359 1215 301 1215 q 460 1176 419 1215 q 501 1072 501 1136 q 461 969 501 1010 q 359 929 422 929 m 360 963 q 438 993 408 963 q 467 1072 467 1024 q 436 1152 467 1122 q 359 1182 404 1182 q 283 1151 313 1182 q 252 1071 252 1120 q 282 993 252 1023 q 360 963 311 963 z "},"|":{"ha":528,"x_min":244,"x_max":283,"o":"m 244 0 l 244 1194 l 283 1194 l 283 0 l 244 0 z "},"¦":{"ha":528,"x_min":244,"x_max":283,"o":"m 244 733 l 244 1194 l 283 1194 l 283 733 l 244 733 m 244 0 l 244 461 l 283 461 l 283 0 l 244 0 z "},"†":{"ha":860,"x_min":151,"x_max":709,"o":"m 410 0 l 410 789 l 151 789 l 151 828 l 410 828 l 410 1194 l 449 1194 l 449 828 l 709 828 l 709 789 l 449 789 l 449 0 l 410 0 z "},"‡":{"ha":885,"x_min":163,"x_max":722,"o":"m 423 0 l 423 394 l 163 394 l 163 433 l 423 433 l 423 789 l 163 789 l 163 828 l 423 828 l 423 1194 l 462 1194 l 462 828 l 722 828 l 722 789 l 462 789 l 462 433 l 722 433 l 722 394 l 462 394 l 462 0 l 423 0 z "},"̈":{"ha":0,"x_min":0,"x_max":394,"o":"m 361 938 q 338 948 348 938 q 328 971 328 958 q 338 994 328 985 q 361 1004 348 1004 q 385 994 375 1004 q 394 971 394 985 q 385 948 394 958 q 361 938 375 938 m 33 938 q 10 948 20 938 q 0 971 0 958 q 10 994 0 985 q 33 1004 20 1004 q 57 994 47 1004 q 67 971 67 985 q 57 948 67 958 q 33 938 47 938 z "},"̇":{"ha":0,"x_min":0,"x_max":66,"o":"m 33 989 q 17 993 24 989 q 5 1006 9 998 q 0 1022 0 1013 q 5 1039 0 1031 q 17 1050 9 1046 q 33 1055 24 1055 q 50 1050 42 1055 q 61 1039 57 1046 q 66 1022 66 1031 q 61 1006 66 1013 q 50 993 57 998 q 33 989 42 989 z "},"̀":{"ha":0,"x_min":0,"x_max":142,"o":"m 112 823 l 0 1053 l 44 1081 l 142 842 l 112 823 z "},"́":{"ha":0,"x_min":0,"x_max":142,"o":"m 31 823 l 0 842 l 99 1081 l 142 1053 l 31 823 z "},"̋":{"ha":0,"x_min":0,"x_max":349,"o":"m 219 1019 l 189 1049 l 303 1167 l 349 1124 l 219 1019 m 30 1019 l 0 1049 l 116 1167 l 160 1124 l 30 1019 z "},"̂":{"ha":0,"x_min":0,"x_max":467,"o":"m 21 967 l 0 996 l 233 1167 l 467 996 l 446 967 l 233 1122 l 21 967 z "},"̌":{"ha":0,"x_min":0,"x_max":467,"o":"m 233 869 l 0 1040 l 21 1069 l 233 914 l 446 1069 l 467 1040 l 233 869 z "},"̆":{"ha":0,"x_min":0,"x_max":542,"o":"m 271 947 q 147 974 203 947 q 52 1048 91 1000 q 0 1158 14 1095 l 35 1167 q 80 1070 47 1112 q 161 1006 113 1029 q 271 983 210 983 q 380 1006 331 983 q 462 1070 429 1029 q 507 1167 495 1112 l 542 1158 q 489 1048 528 1095 q 394 974 451 1000 q 271 947 338 947 z "},"̊":{"ha":0,"x_min":0,"x_max":269,"o":"m 135 897 q 67 913 97 897 q 18 955 36 928 q 0 1017 0 982 l 0 1017 q 18 1078 0 1051 q 67 1121 36 1106 q 135 1136 97 1136 q 203 1121 172 1136 q 251 1078 233 1106 q 269 1017 269 1051 q 251 955 269 982 q 203 913 233 928 q 135 897 172 897 m 135 933 q 206 957 178 933 q 233 1017 233 981 q 206 1077 233 1053 q 135 1100 178 1100 q 64 1077 92 1100 q 36 1017 36 1053 l 36 1017 q 64 957 36 981 q 135 933 92 933 z "},"̃":{"ha":0,"x_min":0,"x_max":664,"o":"m 470 917 q 389 933 422 917 q 327 972 356 950 q 268 1011 299 994 q 193 1028 237 1028 q 93 995 135 1028 q 26 919 51 963 l 0 943 q 78 1028 30 993 q 193 1063 126 1063 q 275 1046 241 1063 q 336 1007 308 1029 q 396 968 365 985 q 470 951 427 951 q 565 980 522 951 q 638 1060 608 1008 l 664 1036 q 610 970 640 997 q 544 930 580 944 q 470 917 509 917 z "},"̄":{"ha":0,"x_min":0,"x_max":567,"o":"m 0 949 l 0 981 l 567 981 l 567 949 l 0 949 z "},"̒":{"ha":0,"x_min":210,"x_max":277,"o":"m 243 947 q 218 959 226 947 q 210 995 210 971 q 226 1068 210 1030 q 262 1121 242 1106 l 269 1114 q 250 1070 256 1094 q 244 1014 244 1047 q 267 1004 258 1014 q 277 981 277 994 q 268 957 277 966 q 243 947 258 947 z "},"̦":{"ha":0,"x_min":199,"x_max":281,"o":"m 217 -308 l 208 -300 q 232 -246 224 -276 q 240 -176 240 -217 q 211 -164 223 -176 q 199 -135 199 -152 q 210 -106 199 -117 q 240 -94 222 -94 q 270 -109 260 -94 q 281 -153 281 -123 q 261 -243 281 -196 q 217 -308 242 -290 z "},"̧":{"ha":0,"x_min":0,"x_max":327,"o":"m 166 -369 q 67 -343 110 -369 q 0 -274 23 -318 l 28 -258 q 167 -335 69 -335 q 258 -306 224 -335 q 293 -232 293 -278 q 265 -164 293 -190 q 192 -138 238 -138 q 136 -147 167 -138 q 85 -168 106 -155 l 83 -167 l 143 20 l 179 20 l 136 -112 q 169 -106 157 -108 q 191 -104 181 -104 q 289 -140 251 -104 q 327 -231 327 -176 q 282 -330 327 -292 q 166 -369 237 -369 z "},"̨":{"ha":0,"x_min":0,"x_max":365,"o":"m 174 -368 q 49 -322 97 -368 q 0 -212 0 -276 q 34 -105 0 -164 q 129 20 67 -45 l 165 20 q 70 -106 103 -45 q 36 -212 36 -167 q 72 -295 36 -259 q 178 -332 108 -332 q 264 -313 224 -332 q 342 -251 303 -294 l 365 -268 q 282 -341 333 -315 q 174 -368 231 -368 z "},"¨":{"ha":394,"x_min":0,"x_max":394,"o":"m 361 938 q 338 948 348 938 q 328 971 328 958 q 338 994 328 985 q 361 1004 348 1004 q 385 994 375 1004 q 394 971 394 985 q 385 948 394 958 q 361 938 375 938 m 33 938 q 10 948 20 938 q 0 971 0 958 q 10 994 0 985 q 33 1004 20 1004 q 57 994 47 1004 q 67 971 67 985 q 57 948 67 958 q 33 938 47 938 z "},"˙":{"ha":66,"x_min":0,"x_max":66,"o":"m 33 989 q 17 993 24 989 q 5 1006 9 998 q 0 1022 0 1013 q 5 1039 0 1031 q 17 1050 9 1046 q 33 1055 24 1055 q 50 1050 42 1055 q 61 1039 57 1046 q 66 1022 66 1031 q 61 1006 66 1013 q 50 993 57 998 q 33 989 42 989 z "},"`":{"ha":186,"x_min":0,"x_max":142,"o":"m 112 823 l 0 1053 l 44 1081 l 142 842 l 112 823 z "},"´":{"ha":186,"x_min":0,"x_max":142,"o":"m 31 823 l 0 842 l 99 1081 l 142 1053 l 31 823 z "},"˝":{"ha":375,"x_min":0,"x_max":349,"o":"m 219 1019 l 189 1049 l 303 1167 l 349 1124 l 219 1019 m 30 1019 l 0 1049 l 116 1167 l 160 1124 l 30 1019 z "},"ˆ":{"ha":467,"x_min":0,"x_max":467,"o":"m 21 967 l 0 996 l 233 1167 l 467 996 l 446 967 l 233 1122 l 21 967 z "},"ˇ":{"ha":467,"x_min":0,"x_max":467,"o":"m 233 869 l 0 1040 l 21 1069 l 233 914 l 446 1069 l 467 1040 l 233 869 z "},"˘":{"ha":542,"x_min":0,"x_max":542,"o":"m 271 947 q 147 974 203 947 q 52 1048 91 1000 q 0 1158 14 1095 l 35 1167 q 80 1070 47 1112 q 161 1006 113 1029 q 271 983 210 983 q 380 1006 331 983 q 462 1070 429 1029 q 507 1167 495 1112 l 542 1158 q 489 1048 528 1095 q 394 974 451 1000 q 271 947 338 947 z "},"˚":{"ha":269,"x_min":0,"x_max":269,"o":"m 135 897 q 67 913 97 897 q 18 955 36 928 q 0 1017 0 982 l 0 1017 q 18 1078 0 1051 q 67 1121 36 1106 q 135 1136 97 1136 q 203 1121 172 1136 q 251 1078 233 1106 q 269 1017 269 1051 q 251 955 269 982 q 203 913 233 928 q 135 897 172 897 m 135 933 q 206 957 178 933 q 233 1017 233 981 q 206 1077 233 1053 q 135 1100 178 1100 q 64 1077 92 1100 q 36 1017 36 1053 l 36 1017 q 64 957 36 981 q 135 933 92 933 z "},"˜":{"ha":664,"x_min":0,"x_max":664,"o":"m 470 917 q 389 933 422 917 q 327 972 356 950 q 268 1011 299 994 q 193 1028 237 1028 q 93 995 135 1028 q 26 919 51 963 l 0 943 q 78 1028 30 993 q 193 1063 126 1063 q 275 1046 241 1063 q 336 1007 308 1029 q 396 968 365 985 q 470 951 427 951 q 565 980 522 951 q 638 1060 608 1008 l 664 1036 q 610 970 640 997 q 544 930 580 944 q 470 917 509 917 z "},"¯":{"ha":567,"x_min":0,"x_max":567,"o":"m 0 949 l 0 981 l 567 981 l 567 949 l 0 949 z "},"¸":{"ha":327,"x_min":0,"x_max":327,"o":"m 166 -369 q 67 -343 110 -369 q 0 -274 23 -318 l 28 -258 q 167 -335 69 -335 q 258 -306 224 -335 q 293 -232 293 -278 q 265 -164 293 -190 q 192 -138 238 -138 q 136 -147 167 -138 q 85 -168 106 -155 l 83 -167 l 143 20 l 179 20 l 136 -112 q 169 -106 157 -108 q 191 -104 181 -104 q 289 -140 251 -104 q 327 -231 327 -176 q 282 -330 327 -292 q 166 -369 237 -369 z "},"˛":{"ha":365,"x_min":0,"x_max":365,"o":"m 174 -368 q 49 -322 97 -368 q 0 -212 0 -276 q 34 -105 0 -164 q 129 20 67 -45 l 165 20 q 70 -106 103 -45 q 36 -212 36 -167 q 72 -295 36 -259 q 178 -332 108 -332 q 264 -313 224 -332 q 342 -251 303 -294 l 365 -268 q 282 -341 333 -315 q 174 -368 231 -368 z "},"\u0000":{"ha":0,"x_min":0,"x_max":0,"o":""},"∕":{"ha":733,"x_min":67,"x_max":667,"o":"m 67 -167 l 639 1194 l 667 1194 l 94 -167 l 67 -167 z "}}}
